<svg width="16" height="16" viewBox="0 0 16 16" fill="none" xmlns="http://www.w3.org/2000/svg">
<path d="M8.17462 9.085C12.137 9.085 15.3492 10.579 15.3492 12.424V14.809H1V12.424C1 10.579 4.20922 9.085 8.17462 9.085ZM14.3925 12.424C14.3925 11.108 11.6085 10.039 8.17462 10.039C4.74075 10.039 1.95675 11.107 1.95675 12.424V13.855H14.3925V12.424ZM8.17462 0.5C8.83691 0.5 9.48433 0.695829 10.035 1.06272C10.5857 1.42962 11.0149 1.9511 11.2683 2.56122C11.5218 3.17134 11.5881 3.8427 11.4589 4.49041C11.3297 5.13811 11.0108 5.73306 10.5424 6.20003C10.0741 6.667 9.47747 6.98501 8.8279 7.11384C8.17833 7.24268 7.50503 7.17655 6.89315 6.92383C6.28127 6.67111 5.75829 6.24314 5.39034 5.69405C5.02239 5.14495 4.82599 4.49939 4.82599 3.839C4.82599 2.95344 5.17879 2.10415 5.80678 1.47797C6.43477 0.851786 7.28651 0.5 8.17462 0.5ZM8.17462 1.454C7.70155 1.454 7.2391 1.59388 6.84576 1.85594C6.45242 2.11801 6.14585 2.4905 5.96481 2.9263C5.78378 3.3621 5.73641 3.84165 5.8287 4.30429C5.92099 4.76693 6.1488 5.1919 6.48331 5.52545C6.81782 5.859 7.24401 6.08615 7.70798 6.17817C8.17196 6.2702 8.65289 6.22297 9.08995 6.04245C9.527 5.86194 9.90056 5.55625 10.1634 5.16403C10.4262 4.77182 10.5665 4.31071 10.5665 3.839C10.5665 3.20646 10.3145 2.59982 9.86592 2.15255C9.41736 1.70528 8.80898 1.454 8.17462 1.454Z" fill="#B7B7B7" stroke="#B7B7B7" stroke-width="0.5"/>
</svg>
