<svg width="22" height="30" viewBox="0 0 22 30" fill="none" xmlns="http://www.w3.org/2000/svg">
<path fill-rule="evenodd" clip-rule="evenodd" d="M18.678 23.378V15.321C18.678 8.703 14.463 4.578 9.33701 4.578C4.21101 4.578 1.03958e-05 8.702 1.03958e-05 15.321V23.378C-0.00194234 24.0862 0.271272 24.7674 0.76201 25.278C0.999836 25.5259 1.28515 25.7233 1.60093 25.8585C1.91672 25.9937 2.2565 26.064 2.60001 26.065H16.078C16.4215 26.064 16.7613 25.9937 17.0771 25.8585C17.3929 25.7233 17.6782 25.5259 17.916 25.278C18.4067 24.7674 18.68 24.0862 18.678 23.378ZM16.945 15.321V23.378C16.9453 23.6139 16.8543 23.8407 16.691 24.011C16.6116 24.0935 16.5164 24.1591 16.4111 24.2041C16.3058 24.2491 16.1925 24.2726 16.078 24.273H2.60001C2.4855 24.2726 2.37225 24.2491 2.26696 24.2041C2.16166 24.1591 2.06647 24.0935 1.98701 24.011C1.82375 23.8407 1.73272 23.6139 1.73301 23.378V15.321C1.73301 9.861 5.11201 6.369 9.34101 6.369C13.57 6.369 16.949 9.861 16.949 15.321H16.945Z" fill="#B7B7B7"/>
<path fill-rule="evenodd" clip-rule="evenodd" d="M10.26 5.498V3.492C10.26 3.24826 10.1632 3.01451 9.99083 2.84217C9.81848 2.66982 9.58473 2.573 9.341 2.573C9.09726 2.573 8.86351 2.66982 8.69117 2.84217C8.51882 3.01451 8.422 3.24826 8.422 3.492V5.498C8.422 5.74173 8.51882 5.97548 8.69117 6.14783C8.86351 6.32017 9.09726 6.417 9.341 6.417C9.58473 6.417 9.81848 6.32017 9.99083 6.14783C10.1632 5.97548 10.26 5.74173 10.26 5.498Z" fill="#B7B7B7"/>
<path fill-rule="evenodd" clip-rule="evenodd" d="M9.34099 24.226C8.81213 24.226 8.29514 24.3828 7.8554 24.6767C7.41566 24.9705 7.07293 25.3881 6.87054 25.8767C6.66815 26.3653 6.6152 26.903 6.71837 27.4217C6.82155 27.9404 7.07622 28.4169 7.45019 28.7908C7.82416 29.1648 8.30062 29.4195 8.81932 29.5226C9.33803 29.6258 9.87568 29.5729 10.3643 29.3705C10.8529 29.1681 11.2705 28.8253 11.5643 28.3856C11.8582 27.9459 12.015 27.4289 12.015 26.9C12.015 26.1908 11.7333 25.5107 11.2318 25.0092C10.7303 24.5077 10.0502 24.226 9.34099 24.226ZM9.34099 26.064C9.50614 26.064 9.66758 26.113 9.80489 26.2047C9.94221 26.2965 10.0492 26.4269 10.1124 26.5795C10.1756 26.732 10.1922 26.8999 10.1599 27.0619C10.1277 27.2239 10.0482 27.3727 9.93143 27.4894C9.81465 27.6062 9.66587 27.6858 9.50389 27.718C9.34192 27.7502 9.17403 27.7337 9.02145 27.6705C8.86888 27.6073 8.73847 27.5002 8.64672 27.3629C8.55497 27.2256 8.50599 27.0642 8.50599 26.899C8.50626 26.6776 8.59432 26.4654 8.75085 26.3089C8.90739 26.1523 9.11962 26.0643 9.34099 26.064Z" fill="#B7B7B7"/>
<path d="M16.684 10C19.4454 10 21.684 7.76142 21.684 5C21.684 2.23858 19.4454 0 16.684 0C13.9226 0 11.684 2.23858 11.684 5C11.684 7.76142 13.9226 10 16.684 10Z" fill="#FB5353"/>
<path d="M16.684 9.5C19.1693 9.5 21.184 7.48528 21.184 5C21.184 2.51472 19.1693 0.5 16.684 0.5C14.1987 0.5 12.184 2.51472 12.184 5C12.184 7.48528 14.1987 9.5 16.684 9.5Z" stroke="#F5F5F5"/>
</svg>
