<svg width="26" height="28" viewBox="0 0 26 28" fill="none" xmlns="http://www.w3.org/2000/svg">
<path d="M20.333 16.531L18.902 8.449C18.841 8.05463 18.6405 7.69525 18.337 7.43614C18.0335 7.17704 17.6471 7.03542 17.248 7.037H15.682V5.56C15.682 4.35061 15.2016 3.19076 14.3464 2.33559C13.4912 1.48043 12.3314 1 11.122 1C9.91261 1 8.75276 1.48043 7.89759 2.33559C7.04243 3.19076 6.562 4.35061 6.562 5.56V7.038H4.997C4.59814 7.03659 4.21198 7.17814 3.90854 7.43701C3.60509 7.69587 3.40445 8.0549 3.343 8.449L1.007 21.637C1.00244 21.6614 1.00009 21.6862 1 21.711C1.00079 22.4865 1.30901 23.2301 1.85711 23.7788C2.40521 24.3274 3.14848 24.6364 3.924 24.638H15.696C16.2079 25.2756 16.8677 25.7784 17.6183 26.1027C18.3688 26.4271 19.1872 26.5631 20.0023 26.4991C20.8173 26.435 21.6044 26.1727 22.295 25.735C22.9856 25.2974 23.5588 24.6976 23.9648 23.9879C24.3707 23.2782 24.5971 22.48 24.6242 21.6629C24.6513 20.8457 24.4783 20.0343 24.1203 19.2993C23.7623 18.5642 23.2302 17.9278 22.5701 17.4453C21.91 16.9628 21.142 16.649 20.333 16.531ZM7.411 5.56C7.411 4.57565 7.80203 3.63161 8.49807 2.93557C9.19411 2.23953 10.1381 1.8485 11.1225 1.8485C12.1069 1.8485 13.0509 2.23953 13.7469 2.93557C14.443 3.63161 14.834 4.57565 14.834 5.56V7.038H7.411V5.56ZM1.849 21.747L4.179 8.593V8.585C4.20852 8.3897 4.30729 8.21153 4.45728 8.08302C4.60728 7.9545 4.79848 7.88422 4.996 7.885H6.562V10.192C6.562 10.3046 6.60672 10.4126 6.68633 10.4922C6.76594 10.5718 6.87392 10.6165 6.9865 10.6165C7.09908 10.6165 7.20706 10.5718 7.28667 10.4922C7.36628 10.4126 7.411 10.3046 7.411 10.192V7.886H14.834V10.192C14.834 10.3046 14.8787 10.4126 14.9583 10.4922C15.0379 10.5718 15.1459 10.6165 15.2585 10.6165C15.3711 10.6165 15.4791 10.5718 15.5587 10.4922C15.6383 10.4126 15.683 10.3046 15.683 10.192V7.886H17.248C17.4455 7.88522 17.6367 7.9555 17.7867 8.08402C17.9367 8.21253 18.0355 8.3907 18.065 8.586V8.594L19.465 16.482C18.6177 16.5066 17.7905 16.7453 17.0605 17.176C16.3304 17.6067 15.7213 18.2152 15.29 18.9449C14.8587 19.6745 14.6192 20.5015 14.5938 21.3488C14.5684 22.196 14.7581 23.0359 15.145 23.79H3.924C3.37913 23.7893 2.85626 23.5749 2.46771 23.1929C2.07917 22.8109 1.85595 22.2918 1.846 21.747H1.849ZM19.608 25.666C18.5023 25.666 17.4419 25.2268 16.6601 24.4449C15.8782 23.6631 15.439 22.6027 15.439 21.497C15.439 20.3913 15.8782 19.3309 16.6601 18.5491C17.4419 17.7672 18.5023 17.328 19.608 17.328C19.718 17.328 19.829 17.328 19.938 17.341C21.0145 17.4228 22.0172 17.9189 22.7353 18.725C23.4534 19.5312 23.8307 20.5844 23.788 21.6631C23.7452 22.7418 23.2857 23.7619 22.5061 24.5087C21.7264 25.2555 20.6876 25.6707 19.608 25.667V25.666Z" fill="#B7B7B7" stroke="#B7B7B7" stroke-width="1.1"/>
</svg>
