<svg width="12" height="16" viewBox="0 0 12 16" fill="none" xmlns="http://www.w3.org/2000/svg">
<path d="M0 2C0 1.46957 0.210714 0.960859 0.585786 0.585786C0.960859 0.210714 1.46957 0 2 0L10 0C10.5304 0 11.0391 0.210714 11.4142 0.585786C11.7893 0.960859 12 1.46957 12 2V15.5C12 15.5904 11.9754 15.6792 11.9289 15.7568C11.8824 15.8343 11.8157 15.8979 11.736 15.9405C11.6563 15.9832 11.5664 16.0035 11.4761 15.9992C11.3858 15.9948 11.2983 15.9661 11.223 15.916L6 13.101L0.777 15.916C0.701705 15.9661 0.61423 15.9948 0.523891 15.9992C0.433553 16.0035 0.343733 15.9832 0.263999 15.9405C0.184266 15.8979 0.117604 15.8343 0.0711141 15.7568C0.024624 15.6792 4.67204e-05 15.5904 0 15.5V2ZM2 1C1.73478 1 1.48043 1.10536 1.29289 1.29289C1.10536 1.48043 1 1.73478 1 2V14.566L5.723 12.084C5.80506 12.0294 5.90143 12.0003 6 12.0003C6.09857 12.0003 6.19494 12.0294 6.277 12.084L11 14.566V2C11 1.73478 10.8946 1.48043 10.7071 1.29289C10.5196 1.10536 10.2652 1 10 1H2Z" fill="black"/>
<path d="M6 4C6.13261 4 6.25979 4.05268 6.35355 4.14645C6.44732 4.24021 6.5 4.36739 6.5 4.5V6H8C8.13261 6 8.25979 6.05268 8.35355 6.14645C8.44732 6.24021 8.5 6.36739 8.5 6.5C8.5 6.63261 8.44732 6.75979 8.35355 6.85355C8.25979 6.94732 8.13261 7 8 7H6.5V8.5C6.5 8.63261 6.44732 8.75979 6.35355 8.85355C6.25979 8.94732 6.13261 9 6 9C5.86739 9 5.74021 8.94732 5.64645 8.85355C5.55268 8.75979 5.5 8.63261 5.5 8.5V7H4C3.86739 7 3.74021 6.94732 3.64645 6.85355C3.55268 6.75979 3.5 6.63261 3.5 6.5C3.5 6.36739 3.55268 6.24021 3.64645 6.14645C3.74021 6.05268 3.86739 6 4 6H5.5V4.5C5.5 4.36739 5.55268 4.24021 5.64645 4.14645C5.74021 4.05268 5.86739 4 6 4Z" fill="black"/>
</svg>
