<svg width="42" height="42" viewBox="0 0 32 32" fill="none" xmlns="http://www.w3.org/2000/svg">
<path d="M16 32C24.8366 32 32 24.8366 32 16C32 7.16344 24.8366 0 16 0C7.16344 0 0 7.16344 0 16C0 24.8366 7.16344 32 16 32Z" fill="white"/>
<path d="M16 31C24.2843 31 31 24.2843 31 16C31 7.71573 24.2843 1 16 1C7.71573 1 1 7.71573 1 16C1 24.2843 7.71573 31 16 31Z" stroke="#F9F9F9" stroke-width="2"/>
<path d="M10.481 21.5179C10.593 21.6306 10.7451 21.6942 10.904 21.6949C10.9703 21.695 11.0362 21.6842 11.099 21.6629L14.515 20.5039L21.069 13.9499C21.2798 13.7545 21.4491 13.5186 21.5666 13.2562C21.6841 12.9939 21.7475 12.7105 21.7529 12.4231C21.7584 12.1357 21.7058 11.8502 21.5983 11.5836C21.4908 11.317 21.3307 11.0748 21.1274 10.8715C20.9241 10.6683 20.682 10.5081 20.4154 10.4006C20.1488 10.2931 19.8632 10.2405 19.5758 10.246C19.2884 10.2514 19.005 10.3148 18.7427 10.4323C18.4804 10.5499 18.2444 10.7191 18.049 10.9299L11.495 17.4839L10.335 20.8999C10.2989 21.0061 10.2932 21.1203 10.3186 21.2295C10.3441 21.3387 10.3996 21.4387 10.479 21.5179H10.481ZM18.594 11.4779C18.7202 11.3478 18.871 11.244 19.0377 11.1727C19.2044 11.1014 19.3836 11.0639 19.5649 11.0625C19.7462 11.0612 19.9259 11.0958 20.0937 11.1646C20.2614 11.2333 20.4138 11.3347 20.542 11.4629C20.6702 11.5911 20.7716 11.7435 20.8404 11.9113C20.9091 12.079 20.9438 12.2588 20.9424 12.44C20.941 12.6213 20.9035 12.8005 20.8322 12.9672C20.7609 13.1339 20.6572 13.2847 20.527 13.4109L19.665 14.2729L17.735 12.3359L18.594 11.4779ZM12.166 17.9009L17.187 12.8779L19.12 14.8109L14.099 19.8339L11.174 20.8259L12.166 17.9009Z" fill="black"/>
<path d="M17.5 21.5H21.5" stroke="black" stroke-linecap="round"/>
</svg>
