<svg width="13" height="19" viewBox="0 0 13 19" fill="none" xmlns="http://www.w3.org/2000/svg">
<path d="M6.383 1C5.61029 0.999475 4.84505 1.15128 4.13105 1.44675C3.41706 1.74221 2.76831 2.17553 2.22192 2.72192C1.67553 3.26831 1.24221 3.91706 0.946747 4.63105C0.651285 5.34505 0.499475 6.11029 0.500001 6.883C0.500001 11.295 6.383 17.808 6.383 17.808C6.383 17.808 12.266 11.3 12.266 6.883C12.2665 6.11029 12.1147 5.34505 11.8193 4.63105C11.5238 3.91706 11.0905 3.26831 10.5441 2.72192C9.99769 2.17553 9.34895 1.74221 8.63495 1.44675C7.92095 1.15128 7.15572 0.999475 6.383 1V1ZM6.383 8.984C5.96766 8.984 5.56165 8.86084 5.2163 8.63009C4.87096 8.39934 4.6018 8.07136 4.44285 7.68764C4.28391 7.30391 4.24232 6.88167 4.32335 6.47431C4.40438 6.06695 4.60439 5.69277 4.89808 5.39908C5.19177 5.10539 5.56595 4.90538 5.97331 4.82435C6.38067 4.74332 6.80291 4.78491 7.18664 4.94385C7.57036 5.1028 7.89834 5.37196 8.12909 5.7173C8.35984 6.06265 8.483 6.46866 8.483 6.884C8.483 7.44096 8.26175 7.9751 7.86793 8.36893C7.4741 8.76275 6.93996 8.984 6.383 8.984Z" stroke="#B7B7B7"/>
</svg>
