<svg width="12" height="15" viewBox="0 0 12 15" fill="none" xmlns="http://www.w3.org/2000/svg">
<path d="M6.36489 11.191C6.64179 11.191 6.91246 11.1089 7.14269 10.9551C7.37292 10.8012 7.55236 10.5826 7.65832 10.3268C7.76429 10.0709 7.79201 9.78945 7.73799 9.51787C7.68397 9.2463 7.55064 8.99684 7.35484 8.80105C7.15905 8.60526 6.90959 8.47192 6.63802 8.4179C6.36645 8.36388 6.08495 8.39161 5.82914 8.49757C5.57332 8.60353 5.35467 8.78297 5.20084 9.0132C5.047 9.24343 4.96489 9.51411 4.96489 9.791C4.96489 10.1623 5.11239 10.5184 5.37494 10.7809C5.63749 11.0435 5.99359 11.191 6.36489 11.191ZM10.5649 4.896H9.86489V3.5C9.86489 2.57174 9.49614 1.6815 8.83977 1.02513C8.18339 0.368749 7.29315 0 6.36489 0C5.43664 0 4.5464 0.368749 3.89002 1.02513C3.23364 1.6815 2.86489 2.57174 2.86489 3.5V4.9H2.16489C1.79445 4.9 1.43911 5.04681 1.17671 5.30828C0.914299 5.56975 0.766216 5.92456 0.764893 6.295V13.289C0.764893 13.6603 0.912392 14.0164 1.17494 14.2789C1.43749 14.5415 1.79359 14.689 2.16489 14.689H10.5579C10.9292 14.689 11.2853 14.5415 11.5478 14.2789C11.8104 14.0164 11.9579 13.6603 11.9579 13.289V6.295C11.9566 5.92439 11.8083 5.56943 11.5457 5.30793C11.2831 5.04643 10.9275 4.89973 10.5569 4.9L10.5649 4.896ZM4.19189 3.5C4.19189 2.92488 4.42036 2.37331 4.82703 1.96664C5.2337 1.55997 5.78527 1.3315 6.36039 1.3315C6.93551 1.3315 7.48708 1.55997 7.89375 1.96664C8.30043 2.37331 8.52889 2.92488 8.52889 3.5V4.9H4.19189V3.5ZM10.5569 13.292H2.16489V6.295H10.5579L10.5569 13.292Z" fill="#B7B7B7"/>
</svg>
