<svg width="20" height="18" viewBox="0 0 20 18" fill="none" xmlns="http://www.w3.org/2000/svg">
<path d="M7.08499 5.037V3.018C7.08499 2.48279 7.2976 1.96951 7.67605 1.59106C8.0545 1.21261 8.56778 1 9.10299 1H17.175C17.7102 1 18.2235 1.21261 18.6019 1.59106C18.9804 1.96951 19.193 2.48279 19.193 3.018V15.126C19.193 15.6612 18.9804 16.1745 18.6019 16.5529C18.2235 16.9314 17.7102 17.144 17.175 17.144H9.50699C8.92769 17.1567 8.36336 16.9593 7.9182 16.5884C7.47303 16.2175 7.17708 15.6981 7.08499 15.126V13.108" stroke="black" stroke-width="1.5" stroke-linecap="round" stroke-linejoin="round"/>
<path d="M11.929 13.1091L15.965 9.07311L11.929 5.03711" stroke="black" stroke-width="1.5" stroke-linecap="round" stroke-linejoin="round"/>
<path d="M1.435 9.07324H15.157" stroke="black" stroke-width="1.5" stroke-linecap="round" stroke-linejoin="round"/>
</svg>
