<svg width="19" height="13" viewBox="0 0 19 13" fill="none" xmlns="http://www.w3.org/2000/svg">
<path d="M1 11.3341V1.97406C1 1.96339 1.01633 1.86039 1.049 1.66506L6.558 6.37706L1.065 11.6591C1.03033 11.5537 1.0085 11.4446 1 11.3341V11.3341ZM1.728 1.01506C1.81576 0.98028 1.90964 0.963612 2.004 0.966055H16.844C16.9437 0.966408 17.0426 0.982957 17.137 1.01506L11.612 5.74405L10.881 6.32905L9.434 7.51505L7.988 6.32905L7.257 5.74405L1.728 1.01506ZM1.748 12.2931L7.289 6.97906L9.434 8.71805L11.579 6.97906L17.12 12.2931C17.0317 12.3259 16.9382 12.3425 16.844 12.3421H2.008C1.91909 12.3416 1.831 12.325 1.748 12.2931V12.2931ZM12.31 6.37706L17.803 1.66405C17.8359 1.76372 17.8525 1.86808 17.852 1.97305V11.3331C17.8501 11.4431 17.8336 11.5524 17.803 11.6581L12.31 6.37706Z" stroke="#B7B7B7"/>
</svg>
