<svg width="16" height="22" viewBox="0 0 16 22" fill="none" xmlns="http://www.w3.org/2000/svg">
<path fill-rule="evenodd" clip-rule="evenodd" d="M15.62 16.6608V10.2028C15.62 4.90277 12.13 1.59277 7.88699 1.59277C3.64399 1.59277 0.153992 4.89877 0.153992 10.2028V16.6608C0.154786 17.2311 0.381833 17.7778 0.785296 18.1809C1.18876 18.584 1.73567 18.8105 2.30599 18.8108H13.467C14.038 18.8108 14.5856 18.5839 14.9894 18.1802C15.3932 17.7764 15.62 17.2288 15.62 16.6578V16.6608ZM14.185 10.2028V16.6608C14.185 16.8512 14.1093 17.0338 13.9747 17.1685C13.84 17.3031 13.6574 17.3788 13.467 17.3788H2.30599C2.11557 17.3788 1.93294 17.3031 1.79829 17.1685C1.66364 17.0338 1.58799 16.8512 1.58799 16.6608V10.2028C1.58799 5.82677 4.38799 3.02777 7.88799 3.02777C11.388 3.02777 14.185 5.82677 14.185 10.2028Z" fill="black"/>
<path fill-rule="evenodd" clip-rule="evenodd" d="M8.60399 2.30979V0.744791C8.60759 0.648314 8.5917 0.552101 8.55726 0.461906C8.52283 0.371712 8.47056 0.289389 8.40358 0.219859C8.33659 0.15033 8.25628 0.0950236 8.16743 0.057247C8.07858 0.0194705 7.98303 0 7.88649 0C7.78994 0 7.69439 0.0194705 7.60554 0.057247C7.5167 0.0950236 7.43638 0.15033 7.3694 0.219859C7.30242 0.289389 7.25015 0.371712 7.21571 0.461906C7.18128 0.552101 7.16539 0.648314 7.16899 0.744791V2.30979C7.16539 2.40627 7.18128 2.50248 7.21571 2.59268C7.25015 2.68287 7.30242 2.76519 7.3694 2.83472C7.43638 2.90425 7.5167 2.95956 7.60554 2.99733C7.69439 3.03511 7.78994 3.05458 7.88649 3.05458C7.98303 3.05458 8.07858 3.03511 8.16743 2.99733C8.25628 2.95956 8.33659 2.90425 8.40358 2.83472C8.47056 2.76519 8.52283 2.68287 8.55726 2.59268C8.5917 2.50248 8.60759 2.40627 8.60399 2.30979Z" fill="black"/>
<path fill-rule="evenodd" clip-rule="evenodd" d="M7.886 17.3779C7.47323 17.3779 7.06973 17.5003 6.72652 17.7297C6.38332 17.959 6.11582 18.2849 5.95786 18.6663C5.7999 19.0476 5.75857 19.4672 5.8391 19.8721C5.91963 20.2769 6.11839 20.6488 6.41027 20.9407C6.70214 21.2325 7.07401 21.4313 7.47884 21.5118C7.88368 21.5924 8.30331 21.551 8.68466 21.3931C9.06601 21.2351 9.39195 20.9676 9.62127 20.6244C9.8506 20.2812 9.973 19.8777 9.973 19.4649C9.97273 18.9115 9.75277 18.3808 9.36144 17.9895C8.9701 17.5982 8.43942 17.3782 7.886 17.3779ZM7.886 18.8129C8.01495 18.8129 8.14101 18.8512 8.24823 18.9228C8.35545 18.9945 8.43902 19.0963 8.48837 19.2154C8.53772 19.3346 8.55063 19.4657 8.52547 19.5921C8.50031 19.7186 8.43821 19.8348 8.34703 19.926C8.25585 20.0171 8.13967 20.0792 8.0132 20.1044C7.88672 20.1296 7.75563 20.1166 7.63649 20.0673C7.51735 20.018 7.41552 19.9344 7.34388 19.8272C7.27224 19.7199 7.234 19.5939 7.234 19.4649C7.234 19.292 7.30269 19.1262 7.42496 19.0039C7.54724 18.8816 7.71308 18.8129 7.886 18.8129Z" fill="black"/>
</svg>
