<svg width="254" height="193" viewBox="0 0 254 193" fill="none" xmlns="http://www.w3.org/2000/svg">
<path d="M217.226 152.957C217.226 154.633 207.462 159.509 195.864 159.509C184.265 159.509 175.229 154.626 175.229 152.957C175.229 151.289 184.629 151.822 196.239 151.822C207.849 151.822 217.226 151.28 217.226 152.957Z" fill="#FB5353"/>
<path opacity="0.2" d="M217.226 152.957C217.226 154.633 207.462 159.509 195.864 159.509C184.265 159.509 175.229 154.626 175.229 152.957" fill="#1D0505"/>
<path d="M100.426 122.221C102.297 122.573 104.222 122.508 106.065 122.031C106.356 121.943 106.66 121.739 106.633 121.463C106.612 121.36 106.568 121.262 106.504 121.179C105.825 120.159 105.254 119.072 104.801 117.933C104.782 117.875 104.745 117.824 104.696 117.788C104.637 117.767 104.573 117.767 104.514 117.788C103.683 118.006 102.963 118.543 102.138 118.773C101.717 118.889 101.277 118.922 100.844 118.87C100.469 118.827 99.9583 118.517 99.6176 118.556C99.8097 119.796 100.28 120.955 100.426 122.221Z" fill="#E2E2E2"/>
<path d="M136.027 119.078C137.333 118.322 138.449 117.276 139.287 116.02C139.339 115.941 139.369 115.85 139.374 115.756C139.362 115.663 139.326 115.575 139.269 115.5C138.572 114.391 137.674 113.421 136.621 112.641C136.072 113.029 135.575 113.487 135.145 114.003C134.833 114.333 133.97 114.855 133.961 115.358C133.961 115.641 134.29 115.971 134.443 116.209C134.649 116.517 134.846 116.828 135.034 117.147C135.427 117.757 135.76 118.403 136.027 119.078Z" fill="#E2E2E2"/>
<path d="M107.805 126.026C107.827 126.318 107.747 126.609 107.578 126.848C107.446 126.984 107.282 127.085 107.1 127.139C104.468 128.082 101.422 126.906 98.8011 127.835C98.2609 128.026 97.7513 128.301 97.2082 128.483C96.5617 128.678 95.8947 128.796 95.2207 128.836C94.2918 128.923 93.3585 128.981 92.4267 129.006C91.719 129.056 91.0079 128.994 90.3198 128.821C89.9757 128.733 89.6539 128.574 89.3754 128.353C89.097 128.133 88.8681 127.856 88.7037 127.541C88.5607 127.259 88.532 126.933 88.6236 126.63C88.6648 126.526 88.7234 126.43 88.7969 126.346C88.9748 126.146 89.1838 125.977 89.4157 125.844L90.3839 125.219C90.8379 124.898 91.3311 124.637 91.8515 124.441C92.2345 124.316 92.6407 124.262 93.0294 124.15C94.3549 123.627 95.5166 122.76 96.3943 121.637L97.7047 120.232C97.8277 120.077 97.984 119.952 98.1619 119.865C98.3446 119.804 98.5388 119.786 98.7297 119.811C100.01 119.903 101.245 120.317 102.322 121.015C102.597 121.222 102.893 121.397 103.207 121.538C103.619 121.657 104.051 121.692 104.476 121.639C104.902 121.586 105.312 121.447 105.682 121.231C106.02 121.049 105.946 120.94 106.088 120.624C106.231 120.308 106.576 120.092 106.877 120.388C106.969 120.49 107.033 120.613 107.065 120.746C107.266 121.708 107.326 122.694 107.241 123.673C107.233 123.826 107.252 123.98 107.298 124.127C107.37 124.275 107.457 124.416 107.556 124.548C107.576 124.583 107.594 124.618 107.61 124.655C107.784 125.09 107.849 125.561 107.801 126.027L107.805 126.026Z" fill="#514E7F"/>
<path d="M107.805 126.023C107.827 126.316 107.747 126.607 107.578 126.847C107.446 126.983 107.282 127.083 107.1 127.138C104.468 128.08 101.422 126.905 98.8011 127.834C98.2609 128.025 97.7513 128.3 97.2082 128.482C96.5617 128.677 95.8947 128.795 95.2207 128.834C94.2918 128.922 93.3585 128.98 92.4267 129.005C91.719 129.055 91.0079 128.992 90.3198 128.82C89.9757 128.732 89.654 128.572 89.3755 128.352C89.0971 128.131 88.8682 127.855 88.7037 127.54C88.5607 127.258 88.532 126.931 88.6236 126.629C88.6641 126.522 88.7227 126.424 88.7969 126.337C88.9498 126.658 89.0604 127.084 89.1579 127.237C89.2884 127.464 89.4657 127.661 89.6781 127.814C89.8905 127.967 90.1331 128.073 90.3897 128.125C90.7741 128.149 91.1594 128.099 91.5254 127.98C93.9103 127.389 96.4452 127.381 98.737 126.486C99.5 126.124 100.29 125.82 101.099 125.577C101.945 125.45 102.798 125.381 103.654 125.371C104.999 125.263 106.302 124.857 107.629 124.643C107.799 125.081 107.86 125.555 107.805 126.023Z" fill="#464353"/>
<path d="M142.054 118.904C141.856 119.9 141.346 120.807 140.598 121.493C139.854 122.173 139.172 122.918 138.56 123.719C138.049 124.853 137.421 125.93 136.686 126.933C136.346 127.253 135.964 127.525 135.551 127.742C135.089 128.015 134.601 128.241 134.095 128.415C132.745 128.752 131.342 128.829 129.964 128.639C129.515 128.635 129.071 128.549 128.653 128.386C128.463 128.289 128.281 128.177 128.109 128.051C127.762 127.838 127.471 127.546 127.257 127.199C127.152 127.011 127.122 126.79 127.174 126.58C127.253 126.35 127.389 126.143 127.569 125.979C127.88 125.656 128.214 125.355 128.568 125.079C129.054 124.766 129.492 124.383 129.868 123.944C130.099 123.596 130.268 123.212 130.37 122.808C130.571 122.099 130.694 121.371 130.737 120.636C130.734 120.147 130.783 119.658 130.883 119.18C131.092 118.43 131.648 117.76 131.587 116.985C131.562 116.875 131.572 116.758 131.615 116.653C131.681 116.571 131.773 116.515 131.876 116.492C132.309 116.319 132.767 116.213 133.233 116.177C133.466 116.161 133.7 116.197 133.919 116.282C134.137 116.368 134.333 116.5 134.493 116.671C134.686 116.904 134.814 117.239 135.098 117.329C135.24 117.368 135.389 117.374 135.534 117.346C136.242 117.342 136.934 117.13 137.522 116.736C137.777 116.508 137.982 116.23 138.123 115.919C138.265 115.607 138.341 115.27 138.346 114.928C138.346 114.67 138.23 114.4 138.63 114.36C138.931 114.321 139.169 114.651 139.323 114.842C139.929 115.548 140.381 116.371 140.652 117.261C140.733 117.229 140.819 117.213 140.906 117.213C141.083 117.211 141.258 117.252 141.415 117.333C141.573 117.414 141.709 117.531 141.811 117.676C142.037 118.043 142.123 118.479 142.054 118.904Z" fill="#514E7F"/>
<path d="M142.053 118.903C141.855 119.898 141.345 120.805 140.597 121.492C139.853 122.171 139.171 122.917 138.559 123.718C138.047 124.851 137.419 125.928 136.685 126.931C136.345 127.251 135.963 127.524 135.549 127.741C135.088 128.014 134.6 128.239 134.093 128.413C132.743 128.751 131.341 128.827 129.963 128.638C129.514 128.633 129.07 128.547 128.652 128.384C128.462 128.288 128.28 128.176 128.108 128.049C127.761 127.836 127.469 127.544 127.256 127.198C127.522 127.07 127.813 127 128.108 126.994C128.721 127.027 129.169 127.607 129.757 127.786C130.595 128.039 131.43 127.448 132.279 127.247C132.845 127.178 133.407 127.081 133.962 126.956C134.419 126.779 134.841 126.524 135.209 126.2C135.713 125.84 136.162 125.408 136.541 124.918C136.855 124.427 137.117 123.905 137.321 123.36C137.769 122.314 138.297 121.304 138.9 120.338C138.988 120.185 139.096 120.044 139.22 119.918C139.359 119.804 139.505 119.699 139.657 119.603C140.18 119.118 140.531 118.476 140.658 117.774C140.712 117.564 140.787 117.36 140.883 117.164C141.06 117.163 141.235 117.204 141.392 117.285C141.55 117.365 141.686 117.483 141.788 117.627C142.033 118.005 142.127 118.46 142.053 118.903Z" fill="#464353"/>
<path d="M82.519 30.3839C83.2257 30.9135 83.8073 31.592 84.2225 32.3714C84.62 33.1489 86.9118 39.1854 86.7778 40.0634C87.5248 39.3106 90.4688 39.1898 91.2244 38.4371C91.5389 38.1226 93.2395 36.5443 93.4958 36.1832C93.7521 35.8221 95.6478 35.0475 95.8545 34.6617C96.6291 33.2726 90.3581 28.0121 91.1618 26.6405C91.2063 26.5776 91.2293 26.5021 91.2274 26.4251C91.2092 26.3604 91.1728 26.3022 91.1225 26.2576C90.5683 25.7746 89.9595 25.3583 89.3083 25.0171C88.6517 24.6676 88.156 24.0774 87.9252 23.3704C87.3358 23.6423 86.7948 24.0087 86.3235 24.4551C85.1723 25.4413 84.0415 26.4474 82.9311 27.4734C82.4943 27.8767 81.6556 28.4125 81.4547 28.9891C81.2086 29.6064 82.104 30.0461 82.519 30.3839Z" fill="#A1616A"/>
<path d="M92.6772 28.1489C91.7148 28.7954 90.8154 29.531 89.9909 30.346C89.1548 31.0614 88.5599 32.0173 88.2874 33.0833C88.2073 33.507 88.2189 33.9351 88.1534 34.3631C87.8622 36.2224 86.2606 37.5853 85.553 39.3266C85.3474 39.8639 85.1962 40.4205 85.1016 40.9879C84.9022 42.0636 84.7932 43.1541 84.7755 44.2479C84.758 45.3064 85.7947 46.0359 86.1776 47.0245C86.4943 48.0079 86.7205 49.0182 86.8532 50.0428C87.2674 51.9508 87.8371 53.8217 88.5567 55.6368C89.956 59.5039 94.4929 70.1968 95.8935 74.0624C100.183 72.9865 111.602 70.5127 115.404 68.2384C116.671 67.4828 106.617 58.9623 107.971 58.3755C108.048 58.3634 108.122 58.3335 108.186 58.2881C108.249 58.2428 108.302 58.1833 108.339 58.1142C108.375 58.0452 108.396 57.9686 108.398 57.8903C108.4 57.8121 108.384 57.7345 108.351 57.6635C106.997 51.7405 102.76 46.8745 100.838 41.1088C100.031 39.182 99.1048 37.3074 98.0644 35.4959C97.2418 33.772 96.8006 31.8676 95.8163 30.2296C95.6307 29.8922 95.3878 29.5897 95.0985 29.3356C94.8529 29.1469 94.5873 28.9858 94.3065 28.8551C93.7357 28.5857 93.2145 28.4241 92.6772 28.1489Z" fill="white"/>
<path d="M82.7473 29.7112C86.4559 29.7112 89.4624 26.7047 89.4624 22.9961C89.4624 19.2874 86.4559 16.281 82.7473 16.281C79.0387 16.281 76.0322 19.2874 76.0322 22.9961C76.0322 26.7047 79.0387 29.7112 82.7473 29.7112Z" fill="#A1616A"/>
<path d="M89.5769 26.1527C89.9115 25.8438 90.332 25.6436 90.7827 25.5786C91.2335 25.5136 91.6934 25.5869 92.1016 25.7887C92.338 25.8867 92.5376 26.0566 92.6721 26.2742C92.8067 26.4919 92.8694 26.7463 92.8514 27.0016L96.1813 27.0525C96.7114 27.0383 97.2412 27.0872 97.7596 27.1981C98.2789 27.3131 98.7421 27.6049 99.0701 28.0237C99.1094 28.0775 99.1545 28.1431 99.2229 28.1518C99.2782 28.1526 99.3321 28.1346 99.3758 28.1009C99.8882 27.8438 100.465 27.745 101.034 27.8169C102.838 28.0198 104.538 28.7662 105.909 29.9572C106.163 30.1323 106.361 30.3784 106.477 30.6649C106.593 31.042 106.453 31.5166 106.768 31.786C107.01 34.8735 107.61 37.9224 108.556 40.8714C108.782 41.4216 109.126 41.9156 109.563 42.3187C110.008 42.7892 110.372 43.3305 110.639 43.9203C111.247 45.4986 110.409 47.355 111.001 48.9406C111.303 49.5862 111.684 50.1917 112.136 50.7431C112.668 51.4155 113.004 52.2216 113.107 53.0727C113.134 53.4527 113.084 53.8371 113.107 54.2084C113.146 54.7197 113.241 55.2252 113.391 55.7153C113.634 56.6317 113.888 57.547 114.153 58.4614C114.418 59.9901 115.244 61.3649 116.469 62.3169C113.275 62.8585 109.908 63.3899 106.86 62.2805C106.435 62.1359 106.032 61.9346 105.661 61.682C104.642 60.7839 103.91 59.6048 103.557 58.2925C102.962 56.8993 102.567 55.4286 102.385 53.9245C102.387 53.4441 102.319 52.966 102.184 52.5049C101.768 51.7214 101.106 51.0967 100.299 50.7271C99.4525 50.2632 98.6857 49.667 98.0276 48.961C97.701 48.6054 97.4509 48.1867 97.2926 47.7307C97.1343 47.2746 97.0712 46.791 97.1073 46.3096C97.1641 45.8408 97.349 45.3894 97.365 44.9191C97.3945 44.6856 97.3476 44.4487 97.2313 44.244C97.1151 44.0393 96.9357 43.8778 96.7201 43.7834C94.3905 43.0787 93.2854 40.3254 92.7685 37.9521C92.5479 36.7254 92.4503 35.4797 92.4773 34.2335L92.4467 31.8122C92.1259 31.52 91.8678 31.1657 91.6881 30.7707C91.5084 30.3758 91.4109 29.9484 91.4013 29.5146C91.432 29.2614 91.4271 29.005 91.3867 28.7531C91.2742 28.4453 91.0912 28.168 90.8524 27.9436C90.3383 27.4152 89.9082 26.8113 89.5769 26.1527Z" fill="#464353"/>
<path d="M82.4256 33.8273C82.4465 34.5794 82.4217 35.3321 82.3514 36.0812C82.2858 36.3651 82.1722 36.649 82.0907 36.9126C81.8393 37.9709 81.9485 39.0828 82.4008 40.0721C82.8527 41.052 83.3937 41.9882 84.017 42.8691C84.2278 43.1697 84.4013 43.4949 84.5339 43.8373C84.641 44.1971 84.7075 44.5678 84.7319 44.9424C84.8963 46.4457 85.16 47.9365 85.5211 49.4051C85.8385 50.6776 89.4523 61.551 90.2909 62.5586C90.4441 62.7806 90.6755 62.9366 90.9388 62.9954C91.1287 63.0025 91.3176 62.9635 91.4892 62.8818L93.1927 62.2281C93.3375 62.1838 93.4718 62.1105 93.5873 62.0126C93.7468 61.826 93.8336 61.5882 93.8319 61.3428C93.9542 59.9567 90.3375 49.0061 89.8745 47.6972C88.2551 43.8329 86.8699 39.8747 85.7263 35.8439C85.621 34.5042 85.2037 33.2078 84.5077 32.0583C84.1641 31.6841 84.2805 31.8428 83.8685 32.0379C83.6607 32.128 83.4597 32.2331 83.2672 32.3524C83.0258 32.5199 82.8249 32.7393 82.6793 32.9945C82.5337 33.2497 82.447 33.5343 82.4256 33.8273Z" fill="#464353"/>
<path d="M87.5957 41.3259C88.0529 43.7414 88.5246 46.1525 88.992 48.568L95.659 46.8208C95.62 46.1243 95.426 45.4453 95.0911 44.8334C94.484 43.3089 94.4694 41.6112 93.9787 40.0431C93.6075 38.8507 92.9595 37.7543 92.6101 36.5487C92.4092 35.8498 92.3058 35.1291 92.1078 34.4215C91.8948 33.7274 91.633 33.0491 91.3245 32.3918C90.9496 31.4381 90.4607 30.5331 89.8685 29.6968C88.9825 29.9269 88.1948 30.4377 87.6233 31.1528C87.3741 31.5863 87.2319 32.0729 87.2084 32.5724C87.0919 34.0691 87.6335 35.5732 87.4559 37.0612C87.271 38.4809 87.3182 39.9213 87.5957 41.3259Z" fill="#FB5353"/>
<path d="M95.7695 73.467C95.972 74.9352 95.7607 76.4308 95.1594 77.7854C94.4927 79.9021 94.0381 82.0799 93.8024 84.2865C93.7736 84.8481 93.6607 85.4022 93.4676 85.9303C93.2579 86.405 92.8997 86.8039 92.6551 87.2567C92.0781 88.5033 91.9006 89.8978 92.147 91.2491C92.2431 92.1431 92.3887 93.0356 92.5678 93.915C92.8902 94.9683 92.9497 96.0846 92.741 97.1663C93.2696 97.0498 93.6263 97.7341 93.5928 98.2714C93.4615 98.7997 93.4792 99.3541 93.6438 99.873C94.2975 100.112 94.3019 101.009 94.2829 101.705C94.2938 102.911 94.4462 104.111 94.7372 105.282C95.7253 110.032 96.7741 114.77 97.8836 119.495C100.283 120.24 103.084 121.014 105.373 119.983C105.594 119.909 105.795 119.784 105.96 119.618C106.124 119.453 106.248 119.251 106.321 119.03C106.346 118.783 106.315 118.535 106.231 118.302L105.146 114.356C104.819 113.422 104.687 112.431 104.757 111.444C104.862 110.716 105.181 109.928 104.823 109.283C104.701 109.062 104.508 108.889 104.366 108.679C103.798 107.848 104.096 106.734 104.142 105.726C104.159 105.5 104.144 105.272 104.096 105.051C104.019 104.791 103.91 104.543 103.773 104.309C102.877 102.569 102.446 100.626 102.524 98.6704C102.558 98.4208 102.524 98.1667 102.425 97.9351C102.356 97.8393 102.294 97.7386 102.24 97.6337C102.198 97.4516 102.219 97.2606 102.3 97.092C101.975 96.8451 101.681 96.559 101.426 96.2403C101.584 96.1424 101.717 96.0101 101.815 95.8532C101.914 95.6963 101.976 95.519 101.996 95.3347C102.017 95.1504 101.995 94.9639 101.932 94.7893C101.87 94.6148 101.768 94.4567 101.636 94.3271C101.752 94.3038 101.859 94.2488 101.945 94.1683C102.032 94.0878 102.094 93.9849 102.126 93.871C102.157 93.7571 102.157 93.6367 102.124 93.5231C102.091 93.4096 102.027 93.3074 101.94 93.2278C101.794 93.1317 101.617 93.0822 101.516 92.9366C101.363 92.7269 101.489 92.4343 101.612 92.2086L102.273 91.0132C102.767 90.1251 102.878 89.0258 103.409 88.174C104.127 86.9065 104.712 85.5687 105.156 84.1817L107.067 78.9095L108.352 80.0248C108.78 80.3523 109.139 80.7615 109.408 81.2289C109.591 81.691 109.707 82.1769 109.751 82.6718C110.223 85.5343 112.023 88.0153 112.69 90.8341C112.781 91.4733 112.987 92.0908 113.297 92.6571C113.426 92.8219 113.542 92.9966 113.643 93.1797C113.738 93.4589 113.787 93.7514 113.789 94.0461C113.849 94.6227 114.031 95.1798 114.325 95.6795C114.619 96.1792 115.017 96.6098 115.492 96.9421C116.126 97.3789 116.912 97.6701 117.256 98.3617C117.327 98.5746 117.425 98.7777 117.547 98.9659C117.854 99.3357 118.515 99.3779 118.646 99.8395C118.72 100.097 118.584 100.407 118.729 100.634C118.811 100.74 118.92 100.821 119.044 100.87L120.891 101.793C122.959 102.827 124.014 105.2 125.539 106.93C126.065 107.494 126.531 108.11 126.929 108.771C127.587 109.949 127.892 111.428 129.004 112.178C129.303 112.333 129.576 112.535 129.811 112.776C130.16 113.236 130.032 113.881 130.064 114.459C130.096 115.037 130.539 115.729 131.083 115.553C130.89 116.254 130.89 116.995 131.083 117.696C133.503 117.573 135.811 116.639 137.635 115.045C137.927 114.836 138.173 114.57 138.356 114.262C138.539 113.954 138.656 113.611 138.7 113.255C138.708 113.131 138.68 113.008 138.62 112.9C138.51 112.76 138.366 112.652 138.202 112.585C136.472 111.649 135.954 109.477 135.079 107.714C134.222 106.209 133.274 104.759 132.239 103.372C130.184 100.263 128.781 96.5009 125.673 94.4479C124.929 94.0924 124.298 93.5381 123.85 92.8464C123.659 92.4285 123.637 91.9524 123.486 91.5199C123.428 91.297 123.304 91.0967 123.131 90.9449C122.958 90.793 122.743 90.6966 122.515 90.6682C122.709 89.9992 122.784 89.3013 122.736 88.6065C122.754 88.3067 122.719 88.0063 122.634 87.7183C122.516 87.4106 122.362 87.1175 122.177 86.8447C121.368 85.4708 120.964 83.8958 121.012 82.302C121.121 81.4864 121.094 80.6583 120.932 79.8515C120.807 79.4569 120.588 79.0959 120.439 78.7158C120.212 78.0267 120.092 77.3068 120.083 76.5813L119.913 73.8528C119.887 72.9439 119.769 72.0399 119.561 71.1548C118.993 69.0364 118.425 60.1649 116.48 59.1647C114.534 58.1644 111.193 64.9887 109.005 65.127C108.036 65.1672 107.079 65.3517 106.165 65.6744C104.742 66.3026 103.434 67.1665 102.298 68.2297L98.2724 71.6105C97.5056 72.3155 96.6667 72.9378 95.7695 73.467Z" fill="#464353"/>
<path d="M76.4453 15.5414C76.9143 14.9541 77.5082 14.4785 78.1839 14.1494C78.8596 13.8202 79.6001 13.6457 80.3517 13.6384C81.8589 13.6368 83.3428 14.0095 84.6702 14.7231C85.0667 14.9486 85.4905 15.1224 85.9311 15.24C86.6402 15.3856 87.4308 15.192 88.0714 15.524C88.4526 15.8184 88.7432 16.2143 88.9098 16.6662C89.0764 17.1181 89.1123 17.6078 89.0135 18.0792C88.8023 19.0293 88.8919 20.0215 89.2697 20.9184C89.4498 21.1541 89.6138 21.4017 89.7604 21.6595C89.9218 22.1756 89.908 22.7305 89.7211 23.2378C89.4271 22.9083 89.1547 22.5601 88.9057 22.1953C88.775 22.017 88.5866 21.8892 88.3725 21.8338C88.1584 21.7783 87.9316 21.7986 87.7307 21.891C87.3638 22.1386 87.3697 22.587 87.3507 22.9903C87.3318 23.3936 87.2284 23.8756 86.8484 24.0095C86.6895 24.0456 86.5235 24.0333 86.3716 23.9741C86.2198 23.915 86.0892 23.8117 85.9967 23.6776C85.3458 22.8826 85.6079 21.613 84.9629 20.8122C84.596 20.3579 83.9859 20.1366 83.6525 19.659C83.386 19.2848 83.3176 18.8072 83.0847 18.4039C82.8517 18.0006 82.3101 17.705 81.949 17.9831C81.8257 18.1007 81.7229 18.238 81.6447 18.3894C81.4197 18.7111 81.0929 18.9477 80.7171 19.061C80.3412 19.1744 79.9381 19.1578 79.5728 19.014C79.2937 18.8427 78.9917 18.7118 78.6759 18.6252C78.47 18.6159 78.2656 18.6641 78.0856 18.7644C77.9056 18.8647 77.7571 19.0131 77.6567 19.1931C77.453 19.5543 77.3546 19.9654 77.3728 20.3797C77.4673 20.9317 77.39 21.4994 77.1514 22.0061C77.0289 22.179 76.8747 22.3272 76.6972 22.4429C76.481 22.6234 76.2158 22.7352 75.9357 22.764C75.6555 22.7928 75.3731 22.7372 75.1247 22.6045C74.9763 22.4665 74.8659 22.2925 74.8042 22.0995C74.7425 21.9065 74.7315 21.7008 74.7723 21.5023C74.8574 21.1069 74.9693 20.7177 75.1072 20.3375C75.3577 19.4639 75.03 18.4665 75.3038 17.6381C75.5851 16.8896 75.9694 16.184 76.4453 15.5414Z" fill="#464353"/>
<path d="M80.0432 35.5717C80.0006 35.7786 80.0225 35.9935 80.1058 36.1876C80.1902 36.3196 80.305 36.4295 80.4406 36.5079C81.3958 37.1006 82.4815 37.4505 83.603 37.5271C83.7556 37.5298 83.9053 37.5688 84.0399 37.6407C84.1578 37.7489 84.239 37.8913 84.2722 38.0479C84.3053 38.2045 84.2887 38.3676 84.2248 38.5143C84.0926 38.8087 84.0241 39.1278 84.0238 39.4505C84.1068 40.0446 84.8101 40.3023 85.4041 40.3896C86.2354 40.5576 87.0994 40.3889 87.8066 39.9208C88.253 39.5139 88.5934 39.0041 88.7981 38.4357C90.4274 34.6909 90.9981 30.5514 92.6477 26.8183C92.7727 26.5746 92.8563 26.3118 92.8953 26.0408C92.9124 25.905 92.893 25.7672 92.839 25.6415C92.785 25.5158 92.6983 25.4068 92.5881 25.3258C92.2808 25.1351 91.8047 25.2429 91.5965 24.9459C91.4946 24.8003 91.5062 24.5906 91.4145 24.4319C91.2238 24.0941 90.7244 24.1407 90.3837 23.9514C90.1172 23.8058 89.9323 23.5146 89.6338 23.4607C89.4875 23.4525 89.3414 23.4784 89.2069 23.5366C89.0725 23.5947 88.9534 23.6834 88.8592 23.7956C87.9685 24.7811 87.2834 25.9345 86.8441 27.1881C86.0205 29.0421 85.0563 30.8305 83.9598 32.5374C83.8596 31.8652 83.5426 31.244 83.057 30.7684C82.5489 30.6665 81.8923 31.5575 81.6229 31.8895C80.7559 32.9411 80.2077 34.2188 80.0432 35.5717Z" fill="#FB5353"/>
<path opacity="0.1" d="M90.3579 24.2279C90.154 24.2315 89.9535 24.2808 89.7713 24.3723C89.5891 24.4638 89.4298 24.595 89.3051 24.7564C89.043 25.1856 88.8928 25.6737 88.8684 26.176C88.6088 27.7685 88.0395 29.2945 87.1925 30.6678" fill="black"/>
<path opacity="0.1" d="M91.8066 25.3622C91.5251 25.3683 91.25 25.4476 91.0084 25.5923C90.7669 25.7371 90.5673 25.9423 90.4292 26.1877C90.2413 26.6342 90.1243 27.1073 90.0827 27.5899C89.8391 28.6601 89.3695 29.6659 88.7053 30.5397" fill="black"/>
<path d="M159.282 80.8678V77.3414C159.281 74.7454 158.249 72.256 156.413 70.4206C154.577 68.5852 152.088 67.5542 149.492 67.5542H10.234C7.63799 67.5542 5.14825 68.5852 3.31233 70.4206C1.4764 72.256 0.44462 74.7454 0.443848 77.3414V83.8424L159.282 80.8678Z" fill="#33323D"/>
<path d="M48.974 63.4206C48.974 63.4206 48.5765 88.0823 52.9489 96.1966C57.3212 104.311 59.1951 139.61 59.1951 139.61C59.1951 139.61 105.031 144.351 136.972 133.932C168.912 123.513 236.877 119.251 236.877 119.251L225.424 42.0567C225.424 42.0567 168.842 38.4283 136.654 53.779C104.467 69.1296 48.974 63.4206 48.974 63.4206Z" fill="#8DD070"/>
<path d="M48.974 63.4206C48.974 63.4206 48.5765 88.0823 52.9489 96.1966C57.3212 104.311 59.1951 139.61 59.1951 139.61C59.1951 139.61 105.031 144.351 136.972 133.932C168.912 123.513 236.877 119.251 236.877 119.251L225.424 42.0567C225.424 42.0567 168.842 38.4283 136.654 53.779C104.467 69.1296 48.974 63.4206 48.974 63.4206Z" fill="#FB5353"/>
<path d="M59.1175 72.4288C59.1175 72.4288 57.6834 92.7779 61.2811 99.279C64.8789 105.78 65.0464 134.805 65.0464 134.805C65.0464 134.805 106.296 136.719 135.641 126.73C164.985 116.742 226.641 110.263 226.641 110.263L219.633 47.1338C219.633 47.1338 168.613 46.6081 138.835 60.6746C109.057 74.741 59.1175 72.4288 59.1175 72.4288Z" fill="#FFD5D5"/>
<path opacity="0.1" d="M138.386 115.173C144.255 114.442 147.741 103.644 146.174 91.0566C144.606 78.4688 138.577 68.857 132.708 69.588C126.839 70.319 123.352 81.1161 124.92 93.7039C126.488 106.292 132.517 115.904 138.386 115.173Z" fill="black"/>
<path opacity="0.2" d="M194.402 4.45105C194.402 4.45105 139.432 18.3631 113.511 42.8516C87.5898 67.3401 33.0204 78.9342 33.0204 78.9342C33.0204 78.9342 40.2087 102.521 46.8524 108.907C53.4961 115.293 66.1138 148.316 66.1138 148.316C66.1138 148.316 111.192 138.758 138.391 119.032C165.591 99.3066 228.981 74.3915 228.981 74.3915L194.402 4.45105Z" fill="black"/>
<path d="M32.1951 75.402C32.1951 75.402 39.3804 98.9892 46.0271 105.378C52.6737 111.767 65.2885 144.783 65.2885 144.783C65.2885 144.783 110.372 135.229 137.575 115.503C164.777 95.7773 228.161 70.8709 228.161 70.8709L193.574 0.921753C193.574 0.921753 138.607 14.8338 112.686 39.3223C86.7645 63.8108 32.1951 75.402 32.1951 75.402Z" fill="white"/>
<path d="M32.1951 75.402C32.1951 75.402 39.3804 98.9892 46.0271 105.378C52.6737 111.767 65.2885 144.783 65.2885 144.783C65.2885 144.783 110.372 135.229 137.575 115.503C164.777 95.7773 228.161 70.8709 228.161 70.8709L193.574 0.921753C193.574 0.921753 138.607 14.8338 112.686 39.3223C86.7645 63.8108 32.1951 75.402 32.1951 75.402Z" fill="#FB5353"/>
<path d="M44.6045 80.8649C44.6045 80.8649 49.485 100.674 54.9057 105.763C60.3264 110.851 69.3856 138.413 69.3856 138.413C69.3856 138.413 109.231 127.573 134.093 109.062C158.956 90.5502 215.66 65.4779 215.66 65.4779L189.622 7.52905C189.622 7.52905 140.904 22.6816 116.876 45.2016C92.8476 67.7216 44.6045 80.8649 44.6045 80.8649Z" fill="#FFC8C8"/>
<path opacity="0.91" d="M133.173 97.2203C138.534 94.7236 138.54 83.3775 133.185 71.8781C127.83 60.3786 119.142 53.0805 113.781 55.5772C108.419 58.0739 108.414 69.42 113.769 80.9194C119.124 92.4188 127.811 99.717 133.173 97.2203Z" fill="#FB5353"/>
<path opacity="0.1" d="M163.041 84.3259V182.278C163.041 183.391 162.822 184.492 162.396 185.52C161.97 186.548 161.346 187.482 160.56 188.268C159.773 189.055 158.839 189.679 157.811 190.104C156.783 190.529 155.681 190.748 154.569 190.748H8.91196C6.6662 190.747 4.51267 189.854 2.92495 188.266C1.33723 186.678 0.445312 184.524 0.445312 182.278V74.4542C4.61821 76.0049 4.61821 76.0049 8.91196 75.8738H154.569C156.812 75.8738 158.964 76.7636 160.553 78.3481C162.141 79.9326 163.036 82.0824 163.041 84.3259Z" fill="black"/>
<path d="M163.041 85.5751V183.528C163.04 185.774 162.148 187.928 160.559 189.517C158.97 191.105 156.815 191.997 154.569 191.997H8.91196C6.6662 191.996 4.51267 191.104 2.92495 189.515C1.33723 187.927 0.445312 185.773 0.445312 183.528V75.6976C4.61821 77.2454 4.61821 77.2454 8.91196 77.1172H154.569C156.813 77.1172 158.966 78.0079 160.555 79.5936C162.143 81.1794 163.037 83.3306 163.041 85.5751Z" fill="#504F60"/>
<path opacity="0.1" d="M162.626 121.789V153.113H132.247C130.177 153.133 128.124 152.743 126.206 151.964C124.288 151.186 122.544 150.036 121.073 148.579C119.603 147.123 118.435 145.389 117.639 143.479C116.842 141.569 116.432 139.52 116.432 137.45C116.432 135.38 116.842 133.331 117.639 131.421C118.435 129.511 119.603 127.777 121.073 126.321C122.544 124.865 124.288 123.714 126.206 122.936C128.124 122.158 130.177 121.767 132.247 121.787L162.626 121.789Z" fill="black"/>
<path d="M163.037 120.954V152.285H132.662C130.592 152.305 128.539 151.914 126.621 151.136C124.703 150.358 122.959 149.207 121.488 147.751C120.018 146.294 118.851 144.561 118.054 142.651C117.257 140.741 116.847 138.691 116.847 136.622C116.847 134.552 117.257 132.503 118.054 130.593C118.851 128.682 120.018 126.949 121.488 125.493C122.959 124.036 124.703 122.885 126.621 122.107C128.539 121.329 130.592 120.939 132.662 120.959L163.037 120.954Z" fill="#33323D"/>
<path opacity="0.1" d="M134.118 143.559C137.491 143.559 140.225 140.825 140.225 137.452C140.225 134.08 137.491 131.346 134.118 131.346C130.746 131.346 128.012 134.08 128.012 137.452C128.012 140.825 130.746 143.559 134.118 143.559Z" fill="black"/>
<path d="M134.533 142.729C137.905 142.729 140.639 139.995 140.639 136.622C140.639 133.25 137.905 130.516 134.533 130.516C131.16 130.516 128.426 133.25 128.426 136.622C128.426 139.995 131.16 142.729 134.533 142.729Z" fill="#FB5353"/>
<path d="M215.775 120.684C216.017 123.304 214.038 125.836 214.61 128.4C214.735 128.948 214.971 129.465 215.056 130.018C215.091 131.571 214.544 133.081 213.522 134.251L206.084 145.171C205.786 145.65 205.429 146.09 205.022 146.481C203.603 147.748 201.468 147.617 199.599 147.994C198.284 148.258 197.042 148.804 195.959 149.595C195.914 149.634 195.885 149.689 195.879 149.748C195.873 149.806 195.889 149.866 195.925 149.913C196.234 150.333 196.643 150.67 197.115 150.891C197.587 151.113 198.107 151.213 198.628 151.182C198.823 151.44 198.628 151.819 198.336 152.002C197.936 152.293 197.389 152.355 197.308 153.03C197.28 153.266 197.328 153.505 197.445 153.712C197.745 154.171 198.211 154.495 198.746 154.617C201.321 155.403 204.104 154.022 206.026 152.142C207.947 150.262 209.336 147.883 211.226 145.967C212.273 144.909 213.464 144 214.543 142.972C216.626 140.847 218.451 138.485 219.983 135.934C220.509 135.208 220.907 134.397 221.161 133.537C221.364 132.664 221.268 131.79 221.498 130.943C221.913 129.873 222.518 128.886 223.282 128.031C224.674 126.241 225.392 124.019 225.309 121.754C225.246 120.629 224.868 119.544 224.218 118.623C223.569 117.702 222.674 116.981 221.635 116.544C220.981 116.281 220.258 116.237 219.577 116.419C218.737 116.769 218.011 117.346 217.481 118.086L216.062 119.718C215.708 120.077 215.428 120.501 215.239 120.968C215.148 121.202 215.127 121.457 215.177 121.704C215.227 121.95 215.347 122.177 215.523 122.357" fill="#FBBEBE"/>
<path opacity="0.05" d="M215.775 120.684C216.017 123.304 214.038 125.836 214.61 128.4C214.735 128.948 214.971 129.465 215.056 130.018C215.091 131.571 214.544 133.081 213.522 134.251L206.084 145.171C205.786 145.65 205.429 146.09 205.022 146.481C203.603 147.748 201.468 147.617 199.599 147.994C198.284 148.258 197.042 148.804 195.959 149.595C195.914 149.634 195.885 149.689 195.879 149.748C195.873 149.806 195.889 149.866 195.925 149.913C196.234 150.333 196.643 150.67 197.115 150.891C197.587 151.113 198.107 151.213 198.628 151.182C198.823 151.44 198.628 151.819 198.336 152.002C197.936 152.293 197.389 152.355 197.308 153.03C197.28 153.266 197.328 153.505 197.445 153.712C197.745 154.171 198.211 154.495 198.746 154.617C201.321 155.403 204.104 154.022 206.026 152.142C207.947 150.262 209.336 147.883 211.226 145.967C212.273 144.909 213.464 144 214.543 142.972C216.626 140.847 218.451 138.485 219.983 135.934C220.509 135.208 220.907 134.397 221.161 133.537C221.364 132.664 221.268 131.79 221.498 130.943C221.913 129.873 222.518 128.886 223.282 128.031C224.674 126.241 225.392 124.019 225.309 121.754C225.246 120.629 224.868 119.544 224.218 118.623C223.569 117.702 222.674 116.981 221.635 116.544C220.981 116.281 220.258 116.237 219.577 116.419C218.737 116.769 218.011 117.346 217.481 118.086L216.062 119.718C215.708 120.077 215.428 120.501 215.239 120.968C215.148 121.202 215.127 121.457 215.177 121.704C215.227 121.95 215.347 122.177 215.523 122.357" fill="black"/>
<path d="M221.411 188.002C219.709 188.883 217.762 189.172 215.878 188.821C215.574 188.785 215.214 188.762 215.027 188.998C214.735 189.338 215.077 189.849 215.424 190.113C216.538 190.949 217.846 191.487 219.226 191.677C220.458 191.852 221.701 191.934 222.946 191.924C226.339 192.075 229.739 191.951 233.113 191.553C233.312 191.538 233.505 191.482 233.681 191.388C233.897 191.237 234.048 191.008 234.102 190.749C234.184 190.304 234.146 189.845 233.99 189.42C233.835 188.994 233.569 188.618 233.219 188.331C232.513 187.766 231.71 187.334 230.849 187.058L227.896 185.908C227.107 185.447 226.242 185.132 225.341 184.979C223.914 185.083 222.576 187.309 221.411 188.002Z" fill="#3F3D56"/>
<path opacity="0.05" d="M221.411 188.002C219.709 188.883 217.762 189.172 215.878 188.821C215.574 188.785 215.214 188.762 215.027 188.998C214.735 189.338 215.077 189.849 215.424 190.113C216.538 190.949 217.846 191.487 219.226 191.677C220.458 191.852 221.701 191.934 222.946 191.924C226.339 192.075 229.739 191.951 233.113 191.553C233.312 191.538 233.505 191.482 233.681 191.388C233.897 191.237 234.048 191.008 234.102 190.749C234.184 190.304 234.146 189.845 233.99 189.42C233.835 188.994 233.569 188.618 233.219 188.331C232.513 187.766 231.71 187.334 230.849 187.058L227.896 185.908C227.107 185.447 226.242 185.132 225.341 184.979C223.914 185.083 222.576 187.309 221.411 188.002Z" fill="black"/>
<path d="M223.473 148.803C222.244 150.439 220.971 152.327 221.275 154.351C221.545 155.42 221.956 156.448 222.499 157.408C223.059 158.796 223.474 160.239 223.736 161.712C224.196 163.853 224.659 166 224.94 168.174C225.261 170.63 223.754 177.737 223.614 180.209C223.643 180.81 223.459 181.402 223.094 181.879C222.932 182.05 222.717 182.187 222.643 182.408C222.599 182.621 222.634 182.843 222.742 183.033C223.501 184.587 224.819 185.797 226.433 186.422C228.717 187.344 231.109 187.972 233.551 188.293C233.778 188.318 234.008 188.288 234.221 188.206C234.45 188.065 234.63 187.858 234.738 187.612C235.972 185.25 234.786 176.85 234.803 174.186C234.821 171.963 235.345 169.754 235.249 167.533C235.169 165.75 234.681 164.007 234.521 162.229C234.373 159.301 234.638 156.366 235.307 153.511C235.716 151.302 236.128 149.093 236.652 146.912C236.915 145.567 237.395 144.273 238.072 143.081C238.64 142.164 239.438 141.398 240.099 140.526C241.935 138.119 242.751 135.085 242.37 132.081C240.787 132.323 239.234 132.736 237.74 133.313C236.223 133.956 234.826 134.853 233.612 135.967C232.682 136.987 231.814 138.061 231.012 139.184C229.802 140.658 228.608 142.143 227.429 143.639C226.082 145.353 224.764 147.075 223.473 148.803Z" fill="#464353"/>
<path opacity="0.05" d="M223.473 148.704C222.244 150.339 220.971 152.231 221.275 154.252C221.545 155.321 221.956 156.349 222.499 157.309C223.059 158.696 223.474 160.138 223.736 161.61C224.196 163.754 224.659 165.9 224.94 168.072C225.261 170.531 223.754 177.635 223.614 180.107C223.643 180.709 223.459 181.301 223.094 181.78C222.932 181.948 222.717 182.085 222.643 182.306C222.599 182.519 222.634 182.741 222.742 182.931C223.505 184.486 224.821 185.701 226.433 186.338C228.736 187.094 231.13 187.542 233.551 187.67C233.778 187.695 234.008 187.665 234.221 187.582C234.451 187.444 234.631 187.238 234.738 186.991C235.972 184.63 234.786 176.77 234.803 174.101C234.821 171.875 235.345 169.669 235.249 167.446C235.169 165.662 234.681 163.92 234.521 162.145C234.373 159.215 234.638 156.279 235.307 153.423C235.716 151.217 236.128 149.009 236.652 146.825C236.915 145.48 237.395 144.187 238.072 142.995C238.64 142.078 239.438 141.312 240.099 140.44C241.936 138.033 242.752 134.999 242.37 131.995C240.787 132.237 239.234 132.65 237.74 133.227C236.223 133.872 234.827 134.77 233.612 135.884C232.682 136.902 231.813 137.975 231.012 139.098C229.802 140.572 228.608 142.058 227.429 143.554C226.082 145.256 224.764 146.973 223.473 148.704Z" fill="black"/>
<path d="M209.795 112.786C213.601 112.786 216.686 109.701 216.686 105.895C216.686 102.089 213.601 99.0038 209.795 99.0038C205.989 99.0038 202.903 102.089 202.903 105.895C202.903 109.701 205.989 112.786 209.795 112.786Z" fill="#FBBEBE"/>
<path d="M216.001 105.605C216.637 106.621 217.472 107.498 218.455 108.184C219.438 108.87 220.548 109.35 221.721 109.598L221.201 111.49C220.305 114.733 219.297 118.162 216.793 120.411C216.903 119.855 216.898 119.281 216.778 118.726C216.658 118.172 216.425 117.647 216.094 117.186C215.432 116.266 214.644 115.443 213.754 114.742L209.788 111.307C209.673 111.214 209.577 111.1 209.504 110.972C209.406 110.73 209.406 110.459 209.504 110.216C210.209 108.757 211.286 107.509 212.627 106.6C213.217 106.051 213.743 105.437 214.197 104.771C214.99 103.634 215.487 104.77 216.001 105.605Z" fill="#FBBEBE"/>
<path d="M200.718 98.9674L200.562 97.673C201.65 97.9642 202.684 97.031 203.378 96.0715C204.073 95.112 204.719 93.9879 205.778 93.5875C207.063 93.1041 208.426 93.8787 209.657 94.5193C211.033 95.2834 212.544 95.7752 214.106 95.9681C214.355 95.9764 214.602 96.0165 214.841 96.0875C215.231 96.3084 215.557 96.6279 215.784 97.014C216.012 97.4001 216.134 97.8392 216.139 98.2874C216.154 99.2047 216.317 100.114 216.619 100.98C216.903 101.596 217.432 102.053 217.755 102.66C218.607 104.289 217.783 106.518 218.672 108.117L216.463 106.093C216.262 105.908 215.979 105.716 215.753 105.872C215.577 105.997 215.562 106.266 215.492 106.482C215.428 106.624 215.336 106.752 215.222 106.858C215.107 106.964 214.973 107.045 214.826 107.098C214.679 107.151 214.524 107.174 214.368 107.166C214.212 107.158 214.06 107.118 213.92 107.05C213.36 106.728 212.876 106.289 212.5 105.764C211.582 104.59 210.375 103.675 208.997 103.107C208.4 102.884 207.762 102.79 207.125 102.832C206.489 102.874 205.869 103.051 205.306 103.351C204.275 103.934 203.52 105.291 202.257 105.339C200.525 105.404 199.804 102.179 199.003 100.904C199.296 100.684 199.503 100.367 199.586 100.01C199.669 99.6522 199.623 99.2771 199.457 98.95C199.571 98.9019 200.692 98.7694 200.718 98.9674Z" fill="#464353"/>
<path d="M115.487 58.6827C114.933 59.1735 114.421 59.7092 113.956 60.2843C113.488 60.8694 113.239 61.5997 113.252 62.349C113.254 62.5659 113.323 62.7769 113.45 62.9532C113.515 63.0376 113.604 63.0997 113.706 63.1308C113.808 63.1618 113.917 63.1603 114.018 63.1265C114.134 63.0691 114.235 62.9829 114.309 62.876C114.609 62.5153 114.927 62.1703 115.262 61.8423C115.385 61.72 115.546 61.5919 115.711 61.6385C115.785 61.6646 115.851 61.7086 115.904 61.7666C116.095 61.9319 116.234 62.1488 116.305 62.3912C116.328 62.6128 116.301 62.8368 116.226 63.0464C116.15 63.256 116.028 63.4457 115.868 63.6011C115.545 63.9089 115.292 64.2829 115.127 64.6975C115.083 64.8108 115.083 64.9366 115.127 65.0499C115.182 65.1319 115.258 65.1969 115.348 65.2377C115.755 65.4616 116.206 65.5934 116.669 65.6239C117.132 65.6543 117.596 65.5826 118.029 65.4139C118.597 65.1838 119.102 64.7892 119.687 64.5854C119.939 64.5135 120.183 64.4159 120.415 64.2942C120.583 64.1829 120.726 64.0395 120.838 63.8723C120.95 63.7051 121.027 63.5175 121.066 63.3201C121.14 62.926 121.154 62.5231 121.108 62.1247C121.037 60.5823 120.707 59.0628 120.131 57.6301C120.098 57.5375 120.041 57.4552 119.967 57.3913C119.879 57.3377 119.778 57.3109 119.676 57.3141C118.822 57.0835 117.932 57.0226 117.055 57.135C116.81 57.2694 116.598 57.4575 116.436 57.6854C116.308 57.8426 115.487 58.492 115.487 58.6827Z" fill="#A1616A"/>
<path d="M115.258 58.0406C115.258 57.3475 114.406 55.676 115.761 55.5654C115.761 54.8242 114.712 54.3642 114.909 53.5779C114.971 53.3173 115.193 53.1033 115.217 52.8368C115.303 52.0782 113.935 51.672 114.162 50.944C114.246 50.6601 114.548 50.4956 114.613 50.216C114.766 49.5608 113.594 49.2681 113.571 48.5955C113.571 48.3683 113.699 48.1587 113.687 47.9286C113.687 47.6374 113.44 47.4292 113.304 47.1817C112.949 46.5483 113.122 45.5685 112.476 45.2423C112.904 45.2787 113.044 44.6439 112.867 44.2537C112.691 43.8635 112.33 43.5257 112.329 43.0889C112.35 42.9324 112.35 42.7737 112.329 42.6172C112.209 42.2022 111.531 42.1687 111.417 41.7654C111.402 41.6106 111.398 41.4549 111.403 41.2995C111.358 40.9791 111.029 40.7739 110.718 40.6836C110.397 40.6291 110.087 40.5187 109.804 40.3574C109.606 40.2118 109.376 39.957 109.162 40.0735C109.082 40.1216 109.043 40.2191 108.983 40.2803C108.728 40.5715 108.239 40.4477 107.919 40.2293C107.469 39.8719 107.095 39.4295 106.817 38.9273C106.539 38.4251 106.363 37.8731 106.298 37.3027C106.096 36.1758 106.101 35.011 105.85 33.8957C105.772 33.5489 105.669 33.2083 105.542 32.8765C105.348 32.5544 105.188 32.2128 105.065 31.8573C105.014 31.205 106.365 31.6506 106.879 31.7117C107.378 31.7604 107.871 31.8554 108.352 31.9956C108.866 32.1895 109.369 32.4102 109.859 32.6567C111.909 33.5623 114.385 33.6758 116.031 35.1945C116.494 35.772 117.075 36.2437 117.735 36.5777C118.058 36.6398 118.376 36.7224 118.689 36.8252C119.469 37.1921 119.591 38.2273 120.018 38.9772C120.152 39.1751 120.269 39.384 120.367 39.6018C120.449 39.8585 120.488 40.1273 120.481 40.3967L120.541 42.3638C120.712 45.6561 120.659 48.9562 120.382 52.2413C120.177 53.3107 120.189 54.4106 120.418 55.4751C120.503 55.759 120.622 56.0255 120.709 56.3123C120.779 56.6475 120.816 56.989 120.817 57.3315L120.862 58.6069C120.878 58.7061 120.856 58.8075 120.8 58.8909C120.752 58.9295 120.697 58.957 120.637 58.9714C120.578 58.9858 120.516 58.9866 120.456 58.9739C118.681 58.8152 116.887 57.809 115.215 58.4206" fill="#464353"/>
<path d="M196.236 155.993C207.833 155.993 217.235 154.634 217.235 152.957C217.235 151.281 207.833 149.922 196.236 149.922C184.639 149.922 175.238 151.281 175.238 152.957C175.238 154.634 184.639 155.993 196.236 155.993Z" fill="#FB5353"/>
<path d="M214.303 153.104C213.934 151.523 213.704 150.134 213.704 150.134C213.737 149.088 213.5 148.05 213.017 147.122V146.685V143.518C213.237 142.94 213.506 142.383 213.821 141.851C214.389 140.852 213.821 137.192 213.821 137.192C213.821 137.192 211.7 132.027 212.219 128.747C212.739 125.467 207.864 114.199 207.864 114.199C207.894 113.112 208.048 112.032 208.322 110.979C208.374 110.758 208.395 110.531 208.384 110.304V110.247C208.061 108.109 207.461 106.021 206.601 104.037L206.831 96.3203C207.453 92.7627 207.218 89.1078 206.143 85.6595C205.522 83.5279 205.124 81.8215 204.871 80.5038C204.842 80.3582 204.814 80.2199 204.791 80.0758C208.451 79.5079 211.247 79.0566 211.247 79.0566C211.247 79.0566 209.122 70.175 207.69 68.617C206.257 67.0591 205.108 62.1742 205.108 62.1742C205.108 62.1742 204.361 55.9018 205.568 54.0687C206.38 52.521 206.85 50.8168 206.946 49.0717C206.946 49.0717 209.698 47.0842 210.043 46.1844C210.528 44.9191 210.837 43.5928 210.96 42.243C210.96 41.1903 210.616 40.2556 210.73 39.6878C210.843 39.1199 209.926 37.0218 210.386 36.023C210.505 35.716 210.567 35.3898 210.568 35.0606C210.569 35.0509 210.569 35.0411 210.568 35.0315C210.572 34.1569 210.491 33.2841 210.327 32.4252C209.531 31.7534 208.602 31.2573 207.601 30.9692L207.541 30.7304L207.385 30.1058C207.298 30.0483 207.208 29.9954 207.116 29.9471V29.72L207.09 28.8173L207.527 26.7905C208.378 23.2641 203.668 22.7384 203.668 22.7384C203.382 22.1993 202.906 21.7846 202.333 21.5736C201.388 21.2417 202.177 26.8779 202.617 27.2521C203.31 28.173 203.931 29.1467 204.473 30.1641L204.553 30.3096C204.476 30.3796 204.404 30.4556 204.338 30.5368L204.517 31.7598L204.545 31.9476C204.232 32.3351 203.979 32.7663 203.792 33.2275C204.275 33.7732 204.523 34.4874 204.482 35.2149C204.42 36.04 204.519 36.8694 204.773 37.6566C204.722 37.5969 204.118 36.9446 203.512 37.1033C202.907 37.262 201.218 37.7702 201.218 37.7702C201.218 37.7702 199.957 37.9915 200.082 38.2696C200.207 38.5477 199.23 39.7693 199.23 39.7693L195.841 36.5559C195.807 36.4598 195.769 36.3622 195.742 36.272C195.603 35.8086 195.508 35.3333 195.458 34.8524C195.827 34.7646 196.19 34.6497 196.543 34.5088C196.898 34.3865 197.22 34.1802 197.479 33.9074C197.764 33.4672 197.951 32.9705 198.026 32.4514C198.378 31.4874 198.798 30.5497 199.284 29.6457C199.972 28.0578 200.194 26.307 199.923 24.5978C199.871 24.071 199.693 23.5646 199.404 23.1214C198.85 22.3599 197.844 22.0512 197.115 21.4441C196.385 20.8369 195.914 19.908 195.062 19.4566C194.251 19.106 193.348 19.0284 192.489 19.2353C190.793 19.5148 189.164 20.1073 187.684 20.9825C187.228 21.3388 186.662 21.5256 186.083 21.511C185.606 21.3738 185.193 21.072 184.918 20.6593C184.924 20.6523 184.928 20.6441 184.93 20.6351C184.932 20.6262 184.932 20.6169 184.93 20.6081C184.928 20.5992 184.923 20.591 184.917 20.5842C184.911 20.5774 184.903 20.5722 184.895 20.569C184.535 21.3662 184.355 22.2324 184.366 23.1068C184.363 23.2425 184.369 23.3781 184.384 23.513V23.7707C184.383 23.8314 184.374 23.8917 184.357 23.9498C184.286 24.1235 184.178 24.2795 184.04 24.407C183.933 24.525 183.836 24.6511 183.749 24.7841C183.756 24.7335 183.771 24.6843 183.794 24.6385C183.577 24.9546 183.455 25.3258 183.441 25.7087C183.426 25.9873 183.518 26.2613 183.698 26.4746C183.868 26.6374 184.053 26.7837 184.251 26.9113C184.184 27.2862 184.15 27.6662 184.149 28.047C184.156 29.1765 184.455 30.285 185.016 31.2653C185.577 32.2455 186.382 33.0643 187.352 33.6424C187.392 33.7356 187.429 33.8332 187.466 33.9336C187.957 35.0988 188.168 36.363 188.082 37.6246C188.076 37.7143 188.062 37.8034 188.042 37.891C188.028 37.9784 187.956 37.9842 187.92 38.0366C187.92 38.0366 182.319 38.0934 181.001 36.901C179.684 35.7085 177.674 39.813 177.674 39.813C177.674 39.813 175.666 40.2017 175.263 39.813C174.86 39.4242 172.513 39.7591 172.513 39.7591C171.552 38.9054 170.303 38.4489 169.018 38.4822C168.239 37.8896 167.378 37.4116 166.463 37.0626L166.4 37.0393C165.996 36.8921 165.565 36.8378 165.137 36.8806C163.84 35.8349 162.648 34.6645 161.58 33.3862C160.776 32.1602 156.951 27.6306 156.935 27.6117V27.3933L156.893 26.7352C156.779 26.7528 156.664 26.762 156.549 26.7628C156.529 26.6973 156.501 26.6172 156.472 26.5328C156.251 25.8903 155.98 25.2666 155.66 24.6676C155.66 24.6676 155.66 23.8363 155.901 23.6252C155.992 22.5373 155.959 21.4426 155.802 20.3622C155.802 20.3622 153.327 14.5615 151.098 18.8917C151.098 18.8917 146.896 21.6945 150.422 24.9589C150.422 24.9589 151.842 25.6403 152.024 26.1804C152.155 26.5299 152.631 27.5098 152.953 28.1679L153.098 28.4518L153.059 28.4853L153.11 29.0298L153.133 29.2395C152.469 29.6166 152.018 29.9922 152.129 30.2733C152.324 30.7544 152.459 31.2583 152.529 31.7729C152.529 31.7729 157.407 37.8881 158.037 40.4915C158.037 40.4915 171.118 48.265 175.419 48.8183L174.657 52.6942C174.547 53.7457 174.49 54.8022 174.487 55.8595C174.544 56.6909 173.97 60.4678 173.97 60.4678C173.97 60.4678 173.223 66.021 172.593 66.7985C171.962 67.576 172.076 70.9073 172.076 70.9073C171.927 72.5017 171.642 74.0804 171.224 75.6262C170.855 77.1733 170.797 78.7781 171.051 80.348C171.051 80.348 168.867 85.345 174.091 81.9584C174.091 81.9584 176.646 81.7997 179.605 81.6977V81.9889C179.605 82.3689 179.605 82.781 179.585 83.212C179.545 86.0745 179.528 90.026 179.659 93.0021C179.889 98.2772 181.496 108.717 181.496 108.717V113.971C181.393 114.465 181.341 114.967 181.343 115.471C181.309 117.32 181.802 119.141 182.763 120.721L183.166 124.216C183.657 125.395 183.98 126.638 184.126 127.907C184.122 128.018 184.109 128.129 184.086 128.239C184.05 128.415 184.035 128.596 184.041 128.776C184.179 130.595 184.481 132.398 184.944 134.163C184.944 134.163 185.001 137.994 185.575 138.218C186.065 138.409 184.918 140.424 184.579 141.004C184.569 140.968 184.562 140.932 184.558 140.896L184.487 141.009C184.368 141.319 184.308 141.649 184.308 141.981C184.276 142.242 184.318 142.507 184.431 142.745C184.543 142.984 184.721 143.185 184.944 143.326C186.035 143.993 186.618 144.547 185.694 144.769C185.353 144.822 185.016 144.892 184.683 144.981C184.674 144.936 184.658 144.893 184.635 144.853C184.505 144.904 184.396 144.999 184.327 145.121C184.259 145.243 184.234 145.385 184.258 145.523C184.267 145.973 184.383 146.415 184.596 146.812C185.003 147.815 185.524 148.767 186.15 149.651L186.586 149.603C186.521 149.771 186.435 149.931 186.33 150.077C186.163 150.316 185.94 150.51 185.682 150.645C185.442 150.789 185.174 150.881 184.896 150.915C184.585 150.925 184.28 151 184 151.136C183.721 151.272 183.473 151.466 183.273 151.704C183.087 151.877 182.943 152.089 182.851 152.326C182.758 152.562 182.721 152.816 182.74 153.069C182.759 153.322 182.835 153.568 182.961 153.788C183.088 154.007 183.263 154.196 183.472 154.339L187.575 155.759C187.575 155.759 194.634 156.676 194.258 155.092C193.882 153.508 193.657 152.122 193.657 152.122C193.687 151.154 193.493 150.193 193.089 149.313C193.015 149.169 192.931 149.031 192.839 148.898L193.089 148.872C193.089 148.872 193.606 145.377 194.293 144.706C194.452 144.553 194.49 144.422 194.452 144.342C194.523 144.151 194.341 144.041 194.111 143.975L194.06 144.121C193.835 144.072 193.606 144.046 193.376 144.044C193.376 144.044 193.146 142.212 193.893 141.545C193.953 141.469 193.997 141.382 194.022 141.288C194.047 141.194 194.053 141.097 194.038 141.001C194.044 140.749 194.017 140.498 193.958 140.254C193.95 140.269 193.942 140.284 193.932 140.299C193.507 138.819 192.956 137.378 192.285 135.992C192.241 135.195 192.379 134.398 192.689 133.662C193.149 132.996 192.629 124.61 192.629 124.61C192.73 122.624 192.615 120.633 192.285 118.671C192.051 117.269 192.272 115.828 192.916 114.56V114.414L192.85 113.775C192.849 113.788 192.849 113.801 192.85 113.814C192.734 112.741 192.515 110.796 192.354 109.899C192.124 108.622 192.413 102.517 192.413 102.517L193.444 99.905L195.282 104.406L197.233 110.401C197.788 111.148 198.13 112.031 198.221 112.957V113.144C198.205 113.277 198.198 113.411 198.198 113.545C198.164 114.302 198.372 115.051 198.792 115.682C198.983 116.944 199.432 118.153 200.113 119.233C200.629 119.815 200.915 120.565 200.916 121.343C201.279 122.983 201.753 124.595 202.336 126.17C202.654 127.064 202.791 128.013 202.739 128.961V129.107C202.739 129.107 202.876 130.577 202.87 131.809V132.246C202.872 132.236 202.872 132.225 202.87 132.215C202.87 132.552 202.83 132.887 202.751 133.214L202.733 133.271C202.73 133.201 202.737 133.132 202.754 133.064C202.554 133.901 202.459 134.759 202.47 135.619C202.338 137.122 202.724 138.625 203.563 139.878C205.114 141.656 206.088 141.435 206.088 141.435C206.088 141.435 205.344 143.655 204.424 144.1C204.389 144.117 204.357 144.138 204.328 144.163C204.323 144.119 204.315 144.075 204.305 144.032C204.202 144.143 204.124 144.274 204.075 144.416C204.026 144.559 204.008 144.71 204.021 144.86C204.063 146.046 204.458 147.192 205.156 148.151C205.373 148.364 205.639 148.52 205.931 148.605C205.884 148.638 205.836 148.667 205.785 148.693C205.683 148.747 205.578 148.796 205.471 148.838C205.321 148.902 205.163 148.943 205.002 148.961C204.691 148.969 204.385 149.044 204.105 149.18C203.825 149.316 203.577 149.51 203.378 149.75C203.193 149.923 203.049 150.135 202.957 150.371C202.864 150.607 202.826 150.861 202.846 151.114C202.865 151.367 202.941 151.612 203.067 151.831C203.194 152.051 203.369 152.239 203.578 152.382L207.681 153.802C207.681 153.802 214.673 154.686 214.303 153.104Z" fill="url(#paint0_linear_231_2010)"/>
<path d="M187.356 155.728L183.381 154.309C183.177 154.161 183.008 153.971 182.885 153.751C182.762 153.531 182.689 153.287 182.67 153.036C182.652 152.785 182.689 152.533 182.778 152.297C182.867 152.062 183.007 151.849 183.188 151.673C183.378 151.437 183.617 151.244 183.888 151.108C184.16 150.972 184.457 150.896 184.76 150.884C185.029 150.85 185.288 150.758 185.519 150.615C185.771 150.478 185.987 150.283 186.149 150.047C186.439 149.587 186.595 149.055 186.6 148.511C186.6 148.511 190.969 147.232 192.154 148.511C192.367 148.742 192.545 149.003 192.682 149.285C193.078 150.168 193.272 151.127 193.25 152.094C193.25 152.094 193.471 153.48 193.832 155.064C194.194 156.648 187.356 155.728 187.356 155.728Z" fill="#2D293D"/>
<path d="M206.787 153.77L202.812 152.35C202.608 152.203 202.438 152.013 202.315 151.794C202.192 151.574 202.119 151.33 202.1 151.079C202.082 150.828 202.119 150.576 202.208 150.341C202.298 150.106 202.438 149.893 202.618 149.718C202.807 149.481 203.046 149.287 203.317 149.151C203.588 149.015 203.885 148.939 204.188 148.929C204.345 148.913 204.498 148.871 204.642 148.806C204.747 148.764 204.85 148.715 204.949 148.661C205.289 148.425 205.566 148.109 205.755 147.741C205.943 147.373 206.038 146.965 206.031 146.551C206.031 146.551 210.389 145.273 211.584 146.551C211.745 146.724 211.885 146.914 212.002 147.119C212.47 148.053 212.698 149.09 212.666 150.134C212.666 150.134 212.888 151.523 213.234 153.104C213.581 154.686 206.787 153.77 206.787 153.77Z" fill="#2D293D"/>
<path opacity="0.1" d="M192.157 148.508C192.37 148.739 192.548 149 192.685 149.282L186.155 150.041C186.445 149.581 186.601 149.049 186.606 148.505C186.606 148.505 190.964 147.229 192.157 148.508Z" fill="black"/>
<path opacity="0.1" d="M212.008 147.12V148.343C210.989 150.015 206.078 149.654 204.649 148.812C204.754 148.769 204.857 148.721 204.957 148.667C205.296 148.431 205.573 148.115 205.762 147.747C205.95 147.379 206.045 146.97 206.038 146.557C206.038 146.557 210.396 145.278 211.592 146.557C211.751 146.729 211.891 146.918 212.008 147.12Z" fill="black"/>
<path d="M212.784 141.845C212.481 142.379 212.221 142.936 212.01 143.512V147.899C210.897 149.731 205.124 149.121 204.344 148.12C203.563 147.12 202.742 144.52 203.626 144.068C204.51 143.617 205.236 141.402 205.236 141.402C205.236 141.402 204.291 141.624 202.792 139.846C201.292 138.068 201.738 134.128 202.017 133.185C202.16 131.819 202.16 130.442 202.017 129.076C202.067 128.079 201.937 127.082 201.631 126.132C201.059 124.557 200.595 122.944 200.244 121.305C200.242 120.532 199.967 119.785 199.466 119.196C198.806 118.108 198.372 116.9 198.188 115.641C197.733 114.933 197.537 114.09 197.634 113.254C197.637 112.215 197.306 111.203 196.69 110.366L194.797 104.368L193.019 99.8701L192.02 102.479C192.02 102.479 191.729 108.586 191.966 109.861C192.204 111.137 192.534 114.52 192.534 114.52C191.91 115.794 191.697 117.229 191.924 118.629C192.241 120.594 192.347 122.587 192.241 124.574C192.241 124.574 192.741 132.955 192.295 133.623C191.996 134.362 191.863 135.157 191.907 135.953C191.907 135.953 194.178 140.836 193.463 141.503C192.748 142.17 192.964 144.001 192.964 144.001C192.964 144.001 194.517 144.001 193.852 144.668C193.186 145.335 192.687 148.834 192.687 148.834L185.972 149.62C185.364 148.735 184.859 147.782 184.469 146.781C183.581 144.716 184.634 144.949 185.528 144.725C186.422 144.501 185.857 143.95 184.8 143.282C183.743 142.614 184.363 141.116 184.363 141.116C184.363 141.116 185.973 138.396 185.417 138.175C184.861 137.953 184.807 134.12 184.807 134.12C184.303 132.234 184.023 130.296 183.976 128.345C183.952 126.913 183.651 125.499 183.088 124.182L182.699 120.688C181.51 118.703 181.077 116.356 181.477 114.078V108.691C181.477 108.691 179.921 98.2539 179.699 92.9788C179.554 89.6009 179.598 84.9897 179.643 82.1127C179.672 80.4994 179.699 79.4293 179.699 79.4293L203.686 76.9308C203.724 78.1291 203.871 79.3214 204.122 80.4936C204.37 81.804 204.753 83.5177 205.354 85.6493C206.394 89.1033 206.622 92.7506 206.021 96.3072L205.797 104.024C205.797 104.024 207.907 109.186 207.464 110.963C207.196 112.019 207.046 113.1 207.015 114.188C207.015 114.188 211.734 125.459 211.238 128.737C210.741 132.014 212.792 137.182 212.792 137.182C212.792 137.182 213.34 140.845 212.784 141.845Z" fill="#464353"/>
<path opacity="0.05" d="M199.071 112.919L206.373 111.945C206.373 111.945 202.237 116.167 199.071 112.919Z" fill="black"/>
<path opacity="0.1" d="M205.316 104.81C205.316 104.81 205.567 107.393 203.985 108.364C203.985 108.364 206.81 107.922 205.316 104.81Z" fill="black"/>
<path opacity="0.1" d="M204.874 96.5941C204.874 96.5941 198.77 101.619 196.55 101.202C194.329 100.786 204.874 96.5941 204.874 96.5941Z" fill="black"/>
<path opacity="0.1" d="M190.019 115.276C190.019 115.276 185.383 116.329 185.244 118.188C185.104 120.047 190.019 115.276 190.019 115.276Z" fill="black"/>
<path opacity="0.05" d="M191.039 138.432C191.039 138.432 184.487 139.654 186.349 140.485C187.944 141.117 189.587 141.618 191.263 141.985C191.263 141.985 193.378 142.096 191.039 138.432Z" fill="black"/>
<g opacity="0.05">
<path opacity="0.05" d="M185.026 141.807C184.861 141.704 184.722 141.566 184.618 141.402C184.515 141.238 184.45 141.052 184.427 140.859L184.359 140.976C184.359 140.976 183.749 142.476 184.805 143.14C184.924 143.217 185.04 143.292 185.145 143.367C185.342 143.33 185.551 143.301 185.752 143.25C186.641 143.029 186.081 142.474 185.026 141.807Z" fill="black"/>
<path opacity="0.05" d="M193.463 141.362C193.645 141.197 193.639 140.771 193.529 140.226C193.267 140.718 193.139 141.271 193.157 141.828C193.227 141.653 193.331 141.495 193.463 141.362Z" fill="black"/>
<path opacity="0.05" d="M192.456 113.74C192.217 114.396 192.07 115.082 192.019 115.778C192.145 115.297 192.316 114.827 192.527 114.376L192.456 113.74Z" fill="black"/>
<path opacity="0.05" d="M207.458 110.827C207.502 110.627 207.522 110.423 207.518 110.219C207.435 110.634 207.372 111.017 207.336 111.355C207.372 111.182 207.413 111.017 207.458 110.827Z" fill="black"/>
<path opacity="0.05" d="M192.298 133.48C192.425 133.082 192.481 132.664 192.463 132.246C192.257 132.74 192.149 133.27 192.142 133.805C192.181 133.691 192.233 133.582 192.298 133.48Z" fill="black"/>
<path opacity="0.05" d="M193.662 143.951C193.318 145.064 193.063 146.204 192.898 147.358L186.183 148.132C185.575 147.247 185.071 146.294 184.682 145.293C184.61 145.134 184.546 144.971 184.491 144.805C184.088 144.99 183.923 145.407 184.458 146.625C184.85 147.626 185.355 148.578 185.963 149.464L192.678 148.687C192.678 148.687 193.178 145.193 193.843 144.521C194.182 144.201 193.971 144.034 193.662 143.951Z" fill="black"/>
<path opacity="0.05" d="M184.804 133.98C184.804 133.98 184.858 137.811 185.414 138.032C185.706 137.398 185.883 136.797 185.633 136.697C185.065 136.475 185.023 132.642 185.023 132.642C184.518 130.757 184.239 128.818 184.191 126.867C184.168 125.435 183.866 124.021 183.303 122.705L182.914 119.21C181.726 117.225 181.292 114.879 181.693 112.6V107.213C181.693 107.213 180.136 96.7761 179.915 91.501C179.769 88.1231 179.813 83.5119 179.858 80.6349C179.858 80.1151 179.876 79.655 179.884 79.2662L179.694 79.2866C179.694 79.2866 179.663 80.3539 179.637 81.97C179.592 84.8456 179.548 89.4568 179.694 92.8332C179.915 98.1083 181.469 108.548 181.469 108.548V113.935C181.07 116.213 181.505 118.558 182.693 120.542L183.079 124.037C183.641 125.355 183.943 126.77 183.967 128.202C184.017 130.155 184.298 132.094 184.804 133.98Z" fill="black"/>
<path opacity="0.05" d="M204.571 146.637C204.026 145.847 203.662 144.946 203.507 143.999C202.823 144.617 203.609 147.02 204.359 147.973C205.133 148.972 210.911 149.584 212.024 147.749V146.694C210.51 148.179 205.304 147.583 204.571 146.637Z" fill="black"/>
<path opacity="0.05" d="M213.007 140.362C212.703 140.895 212.442 141.453 212.229 142.029V142.815C212.399 142.434 212.588 142.063 212.797 141.703C212.973 141.265 213.056 140.796 213.042 140.325C213.042 140.325 213.016 140.351 213.007 140.362Z" fill="black"/>
<path opacity="0.05" d="M204.907 141.241C205.118 140.813 205.301 140.372 205.455 139.92C205.455 139.92 204.51 140.142 203.01 138.364C201.919 137.072 201.857 134.631 202.014 133.035C201.723 133.98 201.286 137.921 202.789 139.699C203.299 140.439 204.046 140.982 204.907 141.241Z" fill="black"/>
<path opacity="0.05" d="M202.014 128.926C202.112 130.02 202.149 131.119 202.125 132.217C202.152 132.043 202.19 131.872 202.238 131.703C202.385 130.337 202.385 128.96 202.238 127.594C202.289 126.597 202.157 125.599 201.85 124.65C201.279 123.073 200.82 121.458 200.475 119.817C200.474 119.044 200.198 118.297 199.698 117.708C199.038 116.62 198.603 115.412 198.419 114.153C197.96 113.447 197.76 112.603 197.851 111.766C197.856 110.727 197.525 109.715 196.909 108.878L195.017 102.883L193.239 98.385L192.237 100.991C192.237 100.991 192.237 101.32 192.204 101.843L193.016 99.7216L194.794 104.21L196.687 110.206C197.303 111.043 197.633 112.055 197.629 113.094C197.537 113.931 197.738 114.775 198.196 115.481C198.379 116.74 198.814 117.949 199.475 119.035C199.976 119.624 200.25 120.372 200.249 121.145C200.601 122.784 201.064 124.397 201.637 125.972C201.942 126.925 202.07 127.927 202.014 128.926Z" fill="black"/>
</g>
<path d="M206.677 26.7717L206.26 28.7984L206.286 29.7012L206.303 30.3651L203.987 30.6039L203.729 30.1234C203.208 29.1066 202.608 28.1329 201.932 27.2114C201.503 26.8532 200.74 21.2156 201.641 21.5505C202.2 21.766 202.659 22.181 202.93 22.7153C202.93 22.7153 207.497 23.2467 206.677 26.7717Z" fill="#FFCDD3"/>
<path opacity="0.1" d="M206.302 30.3664L203.986 30.6052L203.728 30.1247C204.039 29.7694 204.464 29.5332 204.93 29.4564C205.396 29.3797 205.874 29.4672 206.283 29.704L206.302 30.3664Z" fill="black"/>
<path d="M206.887 31.4657L203.829 32.1734L203.764 31.7191L203.591 30.4961C203.758 30.2743 203.967 30.0879 204.206 29.9475C204.446 29.8071 204.711 29.7155 204.986 29.678C205.261 29.6405 205.541 29.6578 205.809 29.729C206.077 29.8002 206.329 29.9238 206.549 30.0927L206.702 30.7144L206.887 31.4657Z" fill="#E2E2E2"/>
<path d="M157.401 26.9945L154.138 28.7417L153.847 28.1287C153.537 27.4778 153.075 26.4994 152.947 26.1412C152.753 25.6025 151.393 24.9197 151.393 24.9197C147.986 21.6568 152.046 18.8525 152.046 18.8525C154.198 14.5224 156.588 20.3231 156.588 20.3231C156.742 21.4036 156.776 22.498 156.687 23.586C156.451 23.7898 156.451 24.6285 156.451 24.6285C156.762 25.2285 157.025 25.8521 157.238 26.4936C157.347 26.8066 157.401 26.9945 157.401 26.9945Z" fill="#FFCDD3"/>
<path opacity="0.1" d="M157.401 26.9958L154.138 28.743L153.846 28.13C154.307 27.7442 155.939 26.4265 156.476 26.4804C156.732 26.5125 156.99 26.5193 157.248 26.5007C157.347 26.8036 157.401 26.9958 157.401 26.9958Z" fill="black"/>
<path d="M157.727 27.98L154.062 29.7854L153.988 28.9992L153.937 28.4546C153.937 28.4546 156.061 26.6346 156.689 26.7074C157.006 26.7534 157.328 26.7534 157.645 26.7074L157.687 27.3656L157.727 27.98Z" fill="#E2E2E2"/>
<path d="M197.792 40.2396C197.792 40.2396 181.814 42.0421 184.8 41.071C185.61 40.8853 186.341 40.4519 186.893 39.8311C187.444 39.2103 187.789 38.4329 187.878 37.6072C187.963 36.3478 187.76 35.0857 187.285 33.9162C186.91 32.9088 186.434 31.9416 185.866 31.029C185.866 31.029 198.074 24.311 195.636 30.4189C195.259 31.3426 195.026 32.3181 194.943 33.312C194.869 34.2995 194.976 35.2921 195.257 36.2415C195.717 37.7823 196.595 39.166 197.792 40.2396Z" fill="#FFCDD3"/>
<path opacity="0.1" d="M195.627 30.4101C195.25 31.3338 195.017 32.3093 194.934 33.3032C193.753 34.1053 192.312 34.4281 190.902 34.2059C189.691 34.4185 188.446 34.3183 187.285 33.9147C186.91 32.9073 186.434 31.94 185.866 31.0275C185.866 31.0275 198.071 24.3022 195.627 30.4101Z" fill="black"/>
<path d="M190.686 34.6326C194.336 34.6326 197.294 31.6744 197.294 28.0253C197.294 24.3762 194.336 21.418 190.686 21.418C187.037 21.418 184.079 24.3762 184.079 28.0253C184.079 31.6744 187.037 34.6326 190.686 34.6326Z" fill="#FFCDD3"/>
<path opacity="0.1" d="M197.792 40.2439C197.792 40.2439 181.814 42.0464 184.8 41.0753C185.61 40.8896 186.341 40.4562 186.893 39.8354C187.444 39.2146 187.789 38.4372 187.878 37.6115C188.868 36.7651 190.031 36.1458 191.285 35.7973C192.222 35.4821 193.234 35.4654 194.181 35.7492C194.554 35.8612 194.909 36.0254 195.235 36.237C195.7 37.7835 196.585 39.1706 197.792 40.2439Z" fill="black"/>
<path opacity="0.1" d="M206.887 31.4658L203.83 32.1734L203.764 31.7191C204.091 31.2699 204.549 30.9324 205.075 30.7526C205.6 30.5729 206.169 30.5595 206.702 30.7145L206.887 31.4658Z" fill="black"/>
<path opacity="0.1" d="M157.731 27.9785L154.066 29.784L153.992 28.9977C155.179 28.3595 156.413 27.8119 157.683 27.3597L157.731 27.9785Z" fill="black"/>
<path opacity="0.1" d="M204.113 80.5009C197.921 81.4896 189.117 82.749 187.723 82.3239C185.041 81.9892 182.332 81.9209 179.636 82.12C179.666 80.5068 179.693 79.4366 179.693 79.4366L203.679 76.9381C203.717 78.1363 203.862 79.3287 204.113 80.5009Z" fill="black"/>
<path d="M210.286 79.0464C210.286 79.0464 189.902 82.5408 187.718 81.8856C185.534 81.2304 174.302 81.9395 174.302 81.9395C169.249 85.3261 171.358 80.3291 171.358 80.3291C171.112 78.7599 171.169 77.158 171.526 75.6102C171.936 74.0613 172.216 72.4809 172.363 70.8855C172.363 70.8855 172.252 67.5527 172.862 66.7738C173.472 65.9948 174.198 60.4445 174.198 60.4445C174.198 60.4445 174.751 56.6677 174.697 55.8363C174.643 55.0049 174.861 52.671 174.861 52.671L175.589 48.7834C171.424 48.2302 158.764 40.4566 158.764 40.4566C158.154 37.8474 153.435 31.7409 153.435 31.7409C153.366 31.2272 153.236 30.7237 153.046 30.2413C152.714 29.3531 157.705 27.5753 157.705 27.5753C157.705 27.5753 161.425 32.118 162.203 33.3498C163.231 34.6256 164.384 35.7962 165.644 36.8442C166.057 36.8015 166.476 36.8558 166.865 37.0029L166.931 37.0233C167.823 37.3737 168.66 37.8519 169.414 38.4429C170.666 38.4135 171.881 38.8719 172.801 39.7213C172.801 39.7213 175.072 39.3864 175.467 39.7751C175.862 40.1639 177.797 39.7751 177.797 39.7751C177.797 39.7751 179.739 35.6663 181.016 36.8631C182.293 38.06 187.713 37.9988 187.713 37.9988C188.709 37.0314 189.944 36.3456 191.291 36.0114C192.228 35.6979 193.24 35.6811 194.187 35.9633C194.595 36.0853 194.98 36.2774 195.323 36.5312L198.619 39.7504C198.619 39.7504 199.561 38.5274 199.45 38.2507C199.34 37.9741 200.56 37.7513 200.56 37.7513C200.56 37.7513 202.17 37.2519 202.78 37.0845C203.39 36.917 203.945 37.5781 204.002 37.6378C203.754 36.8491 203.655 36.021 203.711 35.196C203.745 34.4734 203.507 33.764 203.044 33.2086C204.986 28.4329 209.373 32.4311 209.373 32.4311C209.631 33.6181 209.65 34.8445 209.43 36.0391C208.993 37.0379 209.867 39.1476 209.762 39.7038C209.657 40.26 209.986 41.2035 209.986 42.2591C209.862 43.6058 209.563 44.9307 209.098 46.2005C208.777 47.0886 206.1 49.0877 206.1 49.0877C206.007 50.8281 205.552 52.53 204.765 54.0847C203.6 55.9164 204.328 62.1786 204.328 62.1786C204.328 62.1786 205.437 67.065 206.826 68.6214C208.215 70.1779 210.286 79.0464 210.286 79.0464Z" fill="#3F3D56"/>
<path opacity="0.1" d="M180.582 42.5124C180.582 42.5124 179.971 40.6808 179.417 40.525C178.864 40.3196 178.326 40.0764 177.806 39.797L178.165 39.1127C178.165 39.1127 180.248 39.6805 180.583 40.2964C180.759 41.0247 180.758 41.7844 180.582 42.5124Z" fill="black"/>
<path opacity="0.1" d="M169.421 38.4604C169.311 39.0283 164.368 39.5131 164.368 39.5131L166.866 37.0088L166.929 37.0321C167.825 37.3845 168.664 37.8656 169.421 38.4604Z" fill="black"/>
<path d="M155.122 31.2837C155.367 31.2837 155.565 31.0855 155.565 30.8411C155.565 30.5966 155.367 30.3984 155.122 30.3984C154.878 30.3984 154.68 30.5966 154.68 30.8411C154.68 31.0855 154.878 31.2837 155.122 31.2837Z" fill="#575988"/>
<path d="M155.69 32.1719C155.934 32.1719 156.132 31.9737 156.132 31.7292C156.132 31.4848 155.934 31.2866 155.69 31.2866C155.445 31.2866 155.247 31.4848 155.247 31.7292C155.247 31.9737 155.445 32.1719 155.69 32.1719Z" fill="#575988"/>
<path d="M156.248 32.993C156.492 32.993 156.69 32.7949 156.69 32.5504C156.69 32.306 156.492 32.1078 156.248 32.1078C156.003 32.1078 155.805 32.306 155.805 32.5504C155.805 32.7949 156.003 32.993 156.248 32.993Z" fill="#575988"/>
<path d="M156.828 33.8783C157.073 33.8783 157.271 33.6801 157.271 33.4357C157.271 33.1912 157.073 32.993 156.828 32.993C156.584 32.993 156.386 33.1912 156.386 33.4357C156.386 33.6801 156.584 33.8783 156.828 33.8783Z" fill="#575988"/>
<path d="M209.167 33.7488C209.367 33.7488 209.528 33.5871 209.528 33.3877C209.528 33.1883 209.367 33.0266 209.167 33.0266C208.968 33.0266 208.806 33.1883 208.806 33.3877C208.806 33.5871 208.968 33.7488 209.167 33.7488Z" fill="#575988"/>
<path d="M209.224 34.57C209.424 34.57 209.585 34.4083 209.585 34.2089C209.585 34.0094 209.424 33.8478 209.224 33.8478C209.025 33.8478 208.863 34.0094 208.863 34.2089C208.863 34.4083 209.025 34.57 209.224 34.57Z" fill="#575988"/>
<path d="M209.272 35.3882C209.472 35.3882 209.634 35.2265 209.634 35.0271C209.634 34.8277 209.472 34.666 209.272 34.666C209.073 34.666 208.911 34.8277 208.911 35.0271C208.911 35.2265 209.073 35.3882 209.272 35.3882Z" fill="#575988"/>
<path opacity="0.1" d="M180.602 57.5603C180.548 57.4947 193.065 73.3011 202.781 64.1676C202.79 64.1705 187.445 66.2511 180.602 57.5603Z" fill="black"/>
<path opacity="0.1" d="M173.418 65.7777C173.418 65.7777 180.908 65.9815 181.691 68.1364V70.3787C181.478 70.4968 181.238 70.5589 180.994 70.5589C180.75 70.5589 180.511 70.4968 180.297 70.3787C179.542 69.9695 175.014 67.6705 173.418 68.7771V65.7777Z" fill="black"/>
<path d="M173.558 65.7777C173.558 65.7777 180.721 65.9743 181.471 68.0287V70.1632C181.267 70.2766 181.037 70.3362 180.804 70.3362C180.57 70.3362 180.34 70.2766 180.136 70.1632C179.408 69.7773 175.085 67.5817 173.558 68.6387V65.7777Z" fill="#3F3D56"/>
<path opacity="0.1" d="M177.506 49.5144C178.272 51.2855 179.247 52.9583 180.411 54.4968C181.677 56.1978 183.212 57.6814 184.954 58.8896C184.954 58.8896 177.632 50.5423 177.506 49.5144Z" fill="black"/>
<path opacity="0.1" d="M175.056 40.8118C175.056 40.8118 176.305 46.1989 179.524 48.0379L175.056 40.8118Z" fill="black"/>
<path opacity="0.1" d="M173.134 41.3564C173.104 41.2574 172.025 45.6152 177.285 48.0365C177.291 48.038 175.056 47.2794 173.134 41.3564Z" fill="black"/>
<path opacity="0.1" d="M205.837 37.741C206.991 38.5117 208.1 39.3458 209.161 40.2395C209.161 40.2395 207.426 37.6275 205.837 37.741Z" fill="black"/>
<path d="M188.901 34.0137C188.902 34.1578 188.933 34.3001 188.992 34.4317C189.051 34.5633 189.137 34.6813 189.243 34.7781C189.35 34.875 189.476 34.9487 189.612 34.9945C189.749 35.0404 189.894 35.0574 190.037 35.0445C192.042 35.3143 194.082 35.12 195.999 34.4767C196.347 34.3529 196.658 34.1465 196.908 33.8753C197.184 33.4323 197.364 32.9363 197.437 32.4193C197.775 31.4561 198.182 30.5184 198.655 29.6136C199.332 28.0259 199.559 26.2825 199.31 24.5744C199.258 24.0508 199.085 23.5465 198.805 23.101C198.271 22.3366 197.298 22.0279 196.591 21.4207C195.883 20.8136 195.426 19.8846 194.603 19.4333C193.821 19.0814 192.943 19.0035 192.11 19.212C190.463 19.4921 188.884 20.0852 187.46 20.9592C187.021 21.3152 186.469 21.5027 185.904 21.4877C185.433 21.3401 185.031 21.0306 184.768 20.6141C184.381 21.5225 184.218 22.5109 184.293 23.4955C184.314 23.6408 184.309 23.7888 184.279 23.9323C184.209 24.105 184.103 24.2609 183.969 24.3895C183.688 24.6483 183.505 24.9947 183.448 25.3718C183.39 25.7488 183.463 26.1341 183.654 26.4643C183.867 26.7177 184.196 26.856 184.404 27.1151C184.775 27.5781 184.651 28.2508 184.643 28.842C184.622 29.0471 184.674 29.253 184.788 29.4244C184.896 29.5247 185.027 29.5955 185.17 29.6299C185.313 29.6644 185.462 29.6613 185.604 29.6209C185.886 29.5353 186.183 29.5071 186.477 29.5379C186.785 29.6379 187.051 29.8377 187.233 30.1058C188.045 31.2833 188.613 32.6123 188.901 34.0137Z" fill="#2D293D"/>
<g opacity="0.1">
<path opacity="0.1" d="M197.144 33.3701C196.894 33.6413 196.582 33.8476 196.235 33.9714C194.314 34.6094 192.273 34.8035 190.266 34.5392C190.122 34.5521 189.977 34.535 189.84 34.489C189.703 34.443 189.577 34.3691 189.47 34.272C189.363 34.1748 189.277 34.0566 189.218 33.9246C189.159 33.7927 189.128 33.65 189.127 33.5055C188.842 32.1009 188.269 30.7707 187.444 29.599C187.265 29.3255 186.998 29.1204 186.688 29.0166C186.394 28.9887 186.098 29.0169 185.815 29.0996C185.673 29.1404 185.524 29.1439 185.381 29.11C185.239 29.0761 185.107 29.0058 184.999 28.906C184.885 28.7346 184.833 28.5287 184.854 28.3236C184.854 27.7266 184.987 27.0598 184.615 26.5968C184.408 26.339 184.078 26.1993 183.865 25.9445C183.726 25.7561 183.64 25.5335 183.618 25.3004C183.595 25.0674 183.636 24.8325 183.737 24.621C183.537 24.8686 183.421 25.1729 183.404 25.4904C183.387 25.808 183.471 26.1228 183.644 26.39C183.856 26.6434 184.185 26.7817 184.393 27.0408C184.765 27.5068 184.641 28.1765 184.632 28.7676C184.611 28.9728 184.663 29.1789 184.778 29.3501C184.886 29.4509 185.018 29.522 185.161 29.5565C185.304 29.5909 185.454 29.5875 185.596 29.5466C185.879 29.4611 186.176 29.4328 186.47 29.4636C186.778 29.5636 187.044 29.7634 187.225 30.0315C188.051 31.2043 188.624 32.5354 188.909 33.9408C188.954 34.2914 189.129 34.6122 189.399 34.8406C189.594 34.9346 189.808 34.9815 190.024 34.9775C192.029 35.2486 194.069 35.0543 195.986 34.4097C196.334 34.2867 196.646 34.0802 196.895 33.8083C197.022 33.6487 197.121 33.4678 197.186 33.274C197.184 33.3101 197.169 33.3444 197.144 33.3701Z" fill="black"/>
<path opacity="0.1" d="M184.293 23.7431C184.382 23.6462 184.45 23.5323 184.494 23.4082C184.52 23.2638 184.52 23.1159 184.494 22.9714C184.439 22.1619 184.544 21.3494 184.804 20.5807L184.768 20.5385C184.379 21.4455 184.216 22.4332 184.293 23.417C184.301 23.5245 184.301 23.6326 184.293 23.7402V23.7431Z" fill="black"/>
</g>
<path opacity="0.1" d="M187.722 38.0147C187.722 38.0147 195.976 39.1111 196.716 37.8691L187.722 38.0147Z" fill="black"/>
<path opacity="0.1" d="M203.767 34.6005C203.767 34.6005 208.355 34.6004 209.362 36.3273L203.767 34.6005Z" fill="black"/>
<path d="M229.439 187.958C228.079 189.173 226.312 189.834 224.489 189.809C224.023 189.809 223.379 189.896 223.376 190.362C223.388 190.498 223.435 190.629 223.513 190.742C224.089 191.703 224.999 192.417 226.068 192.75C227.08 192.993 228.126 193.06 229.161 192.946L232.185 192.791C232.753 192.76 233.321 192.731 233.888 192.66C234.456 192.588 235.075 192.472 235.669 192.368C237.127 192.161 238.601 192.093 240.072 192.164C240.263 192.199 240.458 192.191 240.646 192.142C240.833 192.093 241.007 192.004 241.157 191.881C241.39 191.589 241.27 191.055 241.183 190.628C241.001 189.755 241.183 188.832 241.016 187.951C240.818 187.188 240.431 186.487 239.892 185.913C239.353 185.338 238.678 184.909 237.929 184.663C236.566 184.146 234.152 183.554 232.863 184.416C231.636 185.51 230.492 186.695 229.439 187.958Z" fill="#3F3D56"/>
<path d="M232.439 136.212C232.705 137.482 233.936 138.453 233.969 139.747C233.827 140.779 233.396 141.75 232.726 142.547C232.223 143.467 231.798 144.428 231.456 145.42C230.451 148.002 229.204 150.483 227.732 152.831C226.883 153.866 226.409 155.159 226.389 156.498C226.502 157.116 226.721 157.709 227.034 158.253L229.164 162.482C229.631 163.327 229.996 164.224 230.252 165.154C230.437 165.958 230.453 166.789 230.562 167.608C230.897 170.202 232.116 172.814 231.393 175.324C231.331 175.54 231.109 175.802 230.936 175.651C231.707 176.891 232.127 178.318 232.152 179.778C232 180.548 232.007 181.341 232.172 182.108C232.341 182.389 232.453 182.699 232.504 183.022C232.475 183.234 232.434 183.443 232.382 183.65C232.395 183.951 232.505 184.239 232.697 184.472C232.888 184.705 233.15 184.868 233.443 184.938C234.014 185.129 234.636 185.115 235.213 185.288C236.257 185.782 237.215 186.44 238.052 187.236C239.016 187.9 240.152 188.27 241.322 188.3C241.489 188.318 241.657 188.284 241.804 188.204C241.887 188.131 241.953 188.042 241.999 187.941C242.045 187.841 242.069 187.732 242.07 187.622C242.122 187.092 242.043 186.558 241.84 186.066C241.637 185.573 241.316 185.139 240.905 184.8C240.724 184.687 240.574 184.531 240.469 184.346C240.416 184.182 240.402 184.008 240.429 183.838C240.601 181.509 240.559 179.17 240.304 176.849C240.189 176.114 240.152 175.368 240.193 174.626C240.316 174.017 240.376 173.398 240.373 172.778C240.24 172.171 240.05 171.577 239.805 171.006C239.565 169.924 239.467 168.816 239.514 167.71C239.392 165.79 239.078 163.888 238.579 162.031C238.47 161.282 238.166 160.575 237.696 159.981C237.26 159.518 236.532 159.075 236.706 158.46C236.799 158.233 236.938 158.027 237.113 157.855C237.318 157.597 237.469 157.3 237.556 156.982C237.643 156.664 237.664 156.331 237.618 156.005C237.805 156.052 238.002 156.034 238.177 155.952C238.351 155.87 238.492 155.73 238.574 155.556C242.092 153.809 244.781 150.75 246.064 147.039C246.137 146.77 246.25 146.513 246.399 146.277C246.778 145.875 247.248 145.57 247.771 145.389C249.26 144.485 250.498 143.222 251.373 141.716C252.472 140.449 253.039 138.806 252.954 137.131L253.041 133.795C253.06 133.575 253.039 133.353 252.979 133.141C252.894 132.943 252.772 132.763 252.618 132.613C251.673 131.614 250.433 130.946 249.079 130.705C248.171 130.544 247.242 130.574 246.323 130.499C244.565 130.171 242.785 129.981 240.997 129.931C239.597 130.095 238.26 130.604 237.105 131.412C235.95 132.22 235.014 133.302 234.38 134.561C233.921 135.434 233.433 136.194 232.439 136.212Z" fill="#464353"/>
<path d="M216.879 114.522C216.917 115.037 216.848 115.554 216.676 116.041C216.581 116.28 216.402 116.477 216.173 116.595C215.944 116.712 215.679 116.743 215.429 116.68C215.575 116.354 215.19 115.981 214.832 116.022C214.656 116.062 214.493 116.145 214.356 116.263C214.219 116.38 214.113 116.529 214.046 116.697C213.811 117.172 213.733 117.709 213.822 118.232C214.054 118.853 214.186 119.506 214.214 120.168C214.133 120.713 213.733 121.256 213.947 121.761C214.085 121.992 214.259 122.2 214.461 122.377C214.742 122.723 214.879 123.163 214.844 123.606C214.81 124.05 214.607 124.464 214.276 124.762L219.647 124.87C219.542 125.793 219.78 126.722 220.314 127.482C221.603 129.674 223.383 131.538 225.513 132.927C227.643 134.316 230.065 135.194 232.591 135.49C232.455 135.57 232.338 135.679 232.248 135.809C232.159 135.94 232.1 136.089 232.075 136.245C232.051 136.401 232.061 136.561 232.106 136.712C232.15 136.864 232.228 137.004 232.333 137.122C232.577 137.312 232.873 137.424 233.181 137.442C233.49 137.459 233.797 137.382 234.06 137.221C234.579 136.89 235.073 136.52 235.537 136.114C236.419 135.489 237.495 135.199 238.572 135.296C239.245 135.362 239.899 135.58 240.574 135.614C242.562 135.718 244.265 134.287 246.179 133.703C247.624 133.507 249.025 133.067 250.324 132.403C250.592 132.237 250.807 131.999 250.943 131.715C251.08 131.431 251.133 131.114 251.095 130.801C250.973 130.453 250.78 130.133 250.528 129.862C249.912 128.947 249.392 127.971 248.974 126.95C248.018 124.989 246.701 123.224 245.092 121.749C243.878 120.691 242.592 119.718 241.243 118.837C240.916 118.597 240.568 118.387 240.203 118.21C239.718 118.052 239.244 117.862 238.784 117.642C238.211 117.163 237.713 116.603 237.304 115.978C236.074 114.903 234.729 113.966 233.293 113.187C232.503 112.424 231.587 111.803 230.585 111.352C230.074 111.196 229.531 111.185 229.021 111.032C227.856 110.68 227.013 109.649 225.875 109.232C224.945 109.005 223.992 108.884 223.035 108.871C221.97 108.74 220.951 108.352 220.068 107.741C219.784 107.51 219.465 107.324 219.123 107.191C217.683 106.754 217.567 109.433 217.42 110.362C217.145 111.735 216.964 113.125 216.879 114.522Z" fill="#FB5353"/>
<path d="M218.279 123.51C218.521 126.131 216.545 128.663 217.114 131.227C217.237 131.771 217.473 132.291 217.551 132.844C217.588 134.397 217.041 135.907 216.018 137.075L208.579 147.995C208.281 148.474 207.924 148.914 207.518 149.306C206.098 150.57 203.964 150.441 202.096 150.816C200.782 151.083 199.54 151.629 198.456 152.417C198.407 152.455 198.375 152.51 198.367 152.571C198.358 152.632 198.374 152.694 198.411 152.743C198.719 153.163 199.127 153.5 199.599 153.721C200.07 153.943 200.59 154.043 201.11 154.013C201.307 154.268 201.11 154.649 200.841 154.834C200.443 155.125 199.893 155.184 199.813 155.862C199.786 156.098 199.834 156.336 199.95 156.544C200.25 157.001 200.716 157.324 201.25 157.446C203.825 158.235 206.608 156.849 208.53 154.971C210.452 153.093 211.841 150.712 213.731 148.799C214.779 147.738 215.968 146.832 217.047 145.804C219.13 143.679 220.956 141.317 222.487 138.766C223.015 138.041 223.413 137.23 223.665 136.369C223.866 135.496 223.773 134.615 224.003 133.772C224.417 132.702 225.022 131.715 225.786 130.86C227.18 129.07 227.898 126.847 227.813 124.58C227.75 123.455 227.372 122.37 226.723 121.449C226.073 120.528 225.178 119.808 224.14 119.37C223.484 119.11 222.763 119.066 222.081 119.245C221.24 119.595 220.514 120.174 219.986 120.915L218.566 122.545C218.22 122.905 217.949 123.331 217.768 123.797C217.677 124.032 217.657 124.289 217.708 124.535C217.76 124.782 217.882 125.009 218.059 125.189" fill="#FBBEBE"/>
<path d="M222.054 112.772C221.067 112.713 220.091 113.015 219.311 113.624C219.022 113.944 218.787 114.311 218.618 114.708C217.861 116.034 217.394 117.505 217.246 119.024C217.301 120.239 217.467 121.446 217.743 122.63C217.752 123.649 217.648 124.665 217.433 125.66C218.784 125.29 220.094 124.786 221.345 124.155C222.068 123.684 222.836 123.285 223.637 122.965C225.099 122.78 226.583 123.068 227.869 123.788C227.929 123.01 227.344 121.653 227.406 120.876C227.415 120.547 227.474 120.222 227.58 119.911C227.744 119.581 227.939 119.268 228.162 118.976C228.585 118.289 228.779 117.486 228.718 116.681C228.656 115.877 228.341 115.113 227.819 114.499C226.734 113.47 225.315 112.865 223.822 112.795C222.896 112.688 221.962 112.656 221.031 112.699" fill="#E2E2E2"/>
<defs>
<linearGradient id="paint0_linear_231_2010" x1="181.665" y1="156.023" x2="181.665" y2="17.2863" gradientUnits="userSpaceOnUse">
<stop stop-color="#808080" stop-opacity="0.251"/>
<stop offset="0.54" stop-color="#808080" stop-opacity="0.122"/>
<stop offset="1" stop-color="#808080" stop-opacity="0.102"/>
</linearGradient>
</defs>
</svg>
