<svg width="250" height="173" viewBox="0 0 250 173" fill="none" xmlns="http://www.w3.org/2000/svg">
<g clip-path="url(#clip0_19_137)">
<path d="M213.374 134.953L213.19 134.717L213.008 134.48L212.828 134.242L212.649 134.002C212.55 131.696 212.55 129.41 212.649 127.144C212.743 124.895 212.933 122.672 213.22 120.477C213.503 118.298 213.878 116.153 214.345 114.041C214.808 111.946 215.36 109.89 216.001 107.873C216.074 107.64 216.148 107.409 216.224 107.178C216.3 106.947 216.377 106.718 216.455 106.491C216.533 106.262 216.613 106.035 216.694 105.808C216.775 105.581 216.857 105.356 216.94 105.131C217.557 103.447 218.237 101.805 218.979 100.204C219.712 98.6139 220.508 97.0679 221.366 95.5659C222.214 94.0739 223.118 92.6283 224.078 91.229C225.031 89.8396 226.038 88.499 227.097 87.207L227.264 87.007L227.431 86.807L227.599 86.607L227.768 86.407L227.89 86.264L228.013 86.121L228.137 85.9799C228.178 85.9333 228.22 85.887 228.263 85.841L228.363 85.7859L228.463 85.731L228.563 85.676L228.663 85.6219H228.669H228.675H228.681H228.687L228.727 85.6L228.766 85.578L228.805 85.556L228.843 85.534L229.016 85.4409L229.188 85.35L229.36 85.259L229.531 85.167L229.401 85.102L229.073 84.939L229.157 84.977L229.24 85.016L229.323 85.055L229.406 85.095L229.438 85.108L229.47 85.1219L229.502 85.136C229.513 85.1402 229.523 85.1452 229.533 85.151L229.561 85.163L229.589 85.175L229.617 85.187L229.645 85.199C230.839 85.746 232.036 86.299 233.218 86.884C234.4 87.469 235.563 88.074 236.695 88.727C237.824 89.3754 238.918 90.0827 239.972 90.8459C241.024 91.6063 242.02 92.4418 242.951 93.3459C243.934 94.306 244.812 95.3669 245.573 96.511C246.325 97.6352 246.944 98.8434 247.417 100.111C247.87 101.318 248.14 102.585 248.217 103.872C248.292 105.11 248.118 106.35 247.705 107.519C247.649 107.672 247.589 107.822 247.524 107.97C247.459 108.118 247.39 108.264 247.317 108.408C247.244 108.551 247.166 108.692 247.084 108.831C247.002 108.97 246.916 109.106 246.826 109.239C246.789 109.295 246.75 109.35 246.711 109.405C246.672 109.46 246.632 109.514 246.592 109.568L246.47 109.729C246.429 109.782 246.387 109.835 246.345 109.888C245.563 110.871 244.569 111.665 243.438 112.21C242.3 112.753 241.064 113.059 239.804 113.11C238.48 113.165 237.157 112.973 235.904 112.544C234.559 112.085 233.31 111.384 232.217 110.476C231.839 110.165 231.481 109.831 231.145 109.476C230.812 109.123 230.501 108.75 230.215 108.358C229.931 107.97 229.671 107.564 229.438 107.143C229.206 106.725 229.002 106.292 228.827 105.848C228.744 107.228 228.959 108.61 229.455 109.9C229.979 111.257 230.691 112.533 231.57 113.691C232.499 114.924 233.529 116.077 234.65 117.138C235.779 118.22 236.978 119.238 238.162 120.17C239.346 121.102 240.572 122.06 241.762 123.057C242.948 124.037 244.077 125.084 245.143 126.193C246.177 127.264 247.092 128.444 247.872 129.713C248.638 130.966 249.191 132.336 249.51 133.769C249.851 135.33 249.834 136.948 249.459 138.501C249.277 139.257 249.017 139.991 248.685 140.694C248.35 141.402 247.948 142.077 247.485 142.709L247.442 142.767L247.399 142.825L247.355 142.882L247.31 142.939C246.18 144.415 244.762 145.647 243.142 146.558C242.326 147.017 241.467 147.392 240.576 147.679C239.665 147.971 238.727 148.172 237.776 148.279C235.965 148.446 234.139 148.341 232.359 147.969C230.526 147.585 228.744 146.989 227.049 146.193C225.298 145.372 223.625 144.396 222.049 143.276C220.457 142.15 218.951 140.909 217.541 139.562C217.166 139.205 216.8 138.842 216.441 138.471C216.082 138.1 215.728 137.724 215.379 137.342C215.031 136.959 214.691 136.571 214.359 136.176C214.027 135.781 213.699 135.374 213.374 134.953Z" fill="#FB5353"/>
<path d="M242.488 108.232C239.126 106.485 236.176 104.039 233.836 101.058C233.065 100.077 232.366 99.0408 231.745 97.958C231.227 97.0418 230.768 96.0939 230.369 95.12C229.98 94.1698 229.652 93.1955 229.389 92.203C229.132 91.2336 228.941 90.2481 228.816 89.253C228.693 88.2783 228.64 87.2962 228.655 86.314C228.655 86.2586 228.655 86.2037 228.655 86.149C228.655 86.0943 228.655 86.0393 228.655 85.984C228.655 85.9286 228.657 85.874 228.661 85.82L228.669 85.657L228.528 85.769L228.388 85.883L228.248 85.998L228.109 86.113L228.02 86.187L227.93 86.261L227.841 86.336L227.753 86.411L227.874 86.268L227.999 86.121L228.123 85.979C228.164 85.9323 228.206 85.886 228.249 85.84L228.349 85.785L228.449 85.73L228.549 85.676L228.649 85.622H228.655H228.661H228.667H228.673L228.713 85.6L228.753 85.578L228.792 85.556L228.83 85.534L229.003 85.441L229.175 85.35L229.347 85.259L229.519 85.168L229.384 85.101L229.056 84.938L229.14 84.976L229.223 85.015L229.306 85.054L229.389 85.094L229.42 85.107L229.452 85.121L229.484 85.135C229.495 85.1392 229.505 85.1442 229.515 85.15V85.202V85.251V85.299V85.348C229.394 87.0025 229.48 88.6657 229.771 90.299C230.07 91.98 230.562 93.6211 231.236 95.19C231.934 96.8128 232.805 98.3552 233.836 99.79C234.9 101.275 236.119 102.643 237.472 103.871C238.834 105.089 240.32 106.162 241.906 107.071C242.689 107.52 243.496 107.927 244.322 108.29C245.141 108.649 245.98 108.964 246.833 109.233C246.795 109.289 246.757 109.344 246.718 109.399C246.679 109.454 246.64 109.508 246.599 109.562L246.477 109.722C246.436 109.775 246.394 109.828 246.352 109.881C246.023 109.772 245.695 109.656 245.37 109.533C245.045 109.41 244.721 109.281 244.398 109.144C244.076 109.011 243.756 108.868 243.438 108.715C243.12 108.562 242.803 108.401 242.488 108.232Z" fill="white"/>
<path d="M220.335 120.597C219.968 120.05 219.622 119.492 219.297 118.925C218.972 118.358 218.668 117.782 218.385 117.199C218.102 116.616 217.841 116.025 217.602 115.427C217.363 114.829 217.146 114.226 216.951 113.617C216.852 113.294 216.76 112.97 216.676 112.645C216.592 112.32 216.516 111.994 216.448 111.668C216.381 111.342 216.321 111.015 216.267 110.688C216.213 110.361 216.168 110.033 216.133 109.706C216.114 109.553 216.098 109.401 216.083 109.248C216.068 109.095 216.055 108.943 216.044 108.79C216.033 108.637 216.023 108.485 216.015 108.332C216.007 108.179 216.001 108.027 215.996 107.875C216.069 107.642 216.144 107.411 216.219 107.18C216.294 106.949 216.371 106.72 216.45 106.491C216.528 106.262 216.607 106.035 216.688 105.808C216.769 105.581 216.851 105.356 216.935 105.131C216.917 105.32 216.901 105.509 216.888 105.698C216.875 105.887 216.864 106.077 216.857 106.268C216.849 106.459 216.844 106.65 216.842 106.841C216.84 107.032 216.84 107.224 216.842 107.417C216.842 107.522 216.842 107.626 216.842 107.731C216.842 107.836 216.845 107.94 216.85 108.045C216.853 108.15 216.858 108.254 216.864 108.359C216.87 108.464 216.876 108.568 216.883 108.673C216.963 109.849 217.148 111.015 217.434 112.158C217.724 113.315 218.102 114.449 218.565 115.548C219.037 116.668 219.581 117.757 220.194 118.807C220.819 119.875 221.503 120.909 222.242 121.902C223.035 122.975 223.874 124.019 224.757 125.035C225.64 126.051 226.557 127.039 227.508 127.999C228.459 128.958 229.439 129.888 230.446 130.788C231.453 131.688 232.477 132.557 233.518 133.395C234.585 134.255 235.672 135.083 236.78 135.878C237.888 136.673 239.015 137.433 240.161 138.158C241.306 138.883 242.468 139.573 243.647 140.227C244.826 140.881 246.019 141.498 247.224 142.078C247.279 142.105 247.329 142.142 247.371 142.187C247.413 142.231 247.446 142.282 247.471 142.337C247.495 142.391 247.509 142.45 247.513 142.509C247.517 142.569 247.509 142.629 247.49 142.686C247.484 142.71 247.475 142.734 247.464 142.757C247.453 142.779 247.44 142.8 247.425 142.82C247.41 142.839 247.393 142.857 247.375 142.873C247.356 142.889 247.336 142.902 247.315 142.914C247.292 142.924 247.268 142.932 247.244 142.936C247.219 142.939 247.194 142.939 247.17 142.936C247.144 142.934 247.119 142.93 247.095 142.922C247.07 142.914 247.046 142.904 247.023 142.891L246.576 142.676L246.13 142.459L245.685 142.238C245.537 142.163 245.389 142.088 245.242 142.012C244.013 141.381 242.8 140.711 241.604 140.004C240.408 139.297 239.23 138.553 238.069 137.772C236.909 136.991 235.77 136.176 234.652 135.325C233.534 134.474 232.44 133.59 231.369 132.671C230.335 131.787 229.314 130.871 228.317 129.928C227.32 128.985 226.349 128.008 225.417 127.001C224.485 125.994 223.583 124.957 222.732 123.889C221.881 122.821 221.076 121.727 220.335 120.597Z" fill="white"/>
<path d="M243.488 32.7729L242.608 32.8869L248.508 10.7329C248.943 9.2537 249.013 7.6913 248.714 6.17889C248.454 4.94291 247.812 3.82011 246.878 2.96989C245.899 2.12145 244.701 1.56681 243.421 1.3699C241.861 1.12857 240.269 1.19995 238.737 1.57989L198.621 10.7159C197.221 11.0557 195.881 11.607 194.647 12.3509C193.305 13.1489 192.057 14.0951 190.926 15.1719C189.763 16.2699 188.719 17.4877 187.811 18.8049C186.924 20.0796 186.202 21.4608 185.66 22.9159L143.689 138.357C142.991 140.255 142.538 142.234 142.34 144.247C142.156 146.034 142.243 147.838 142.597 149.599C142.893 151.129 143.511 152.579 144.409 153.852C145.233 155.01 146.393 155.886 147.733 156.36L190.118 170.951C192.001 171.592 194.022 171.712 195.968 171.299C198.048 170.846 200.004 169.945 201.7 168.659C203.605 167.228 205.243 165.472 206.539 163.473C207.975 161.276 209.047 158.863 209.716 156.325L238.132 49.6769L239.024 49.6059L243.488 32.7729Z" fill="#2F2E41"/>
<path d="M240.421 31.5469L239.541 31.6609L245.441 9.50694C245.876 8.02775 245.946 6.46535 245.647 4.95294C245.387 3.71695 244.745 2.59416 243.811 1.74394C242.832 0.895498 241.634 0.340862 240.354 0.143948C238.794 -0.0973779 237.202 -0.026001 235.67 0.35394L195.554 9.48994C194.154 9.8297 192.814 10.381 191.58 11.1249C190.238 11.9229 188.99 12.8692 187.859 13.9459C186.696 15.044 185.652 16.2617 184.744 17.5789C183.857 18.8537 183.135 20.2349 182.593 21.6899L140.622 137.131C139.924 139.029 139.471 141.008 139.273 143.021C139.089 144.808 139.176 146.612 139.53 148.373C139.826 149.903 140.444 151.353 141.342 152.626C142.166 153.784 143.327 154.66 144.667 155.134L187.052 169.725C188.935 170.366 190.956 170.486 192.902 170.073C194.982 169.62 196.938 168.719 198.634 167.433C200.539 166.002 202.177 164.246 203.473 162.247C204.909 160.05 205.981 157.637 206.65 155.1L235.066 48.4519L235.958 48.3809L240.421 31.5469Z" fill="#3F3D56"/>
<path d="M235.319 3.23999L229.419 4.53198C229.483 5.0421 229.432 5.56014 229.27 6.04799C229.086 6.61705 228.819 7.15609 228.479 7.64798C227.712 8.76833 226.689 9.68924 225.494 10.334C225.351 10.41 225.208 10.4803 225.066 10.545C224.924 10.6097 224.782 10.668 224.64 10.72C224.499 10.7727 224.358 10.819 224.218 10.859C224.078 10.899 223.94 10.9323 223.804 10.959L200.749 15.627C200.321 15.7265 199.875 15.7214 199.449 15.612C199.107 15.5201 198.805 15.3167 198.591 15.034C198.375 14.7304 198.254 14.3702 198.241 13.998C198.223 13.523 198.298 13.0492 198.462 12.603C198.503 12.4823 198.549 12.361 198.602 12.239C198.655 12.117 198.712 11.995 198.773 11.873C198.834 11.7503 198.901 11.6283 198.973 11.507C199.045 11.3857 199.122 11.2643 199.203 11.143L194.838 12.099C193.787 12.3455 192.78 12.753 191.853 13.307C190.84 13.9037 189.898 14.6136 189.045 15.423C188.166 16.2499 187.377 17.1681 186.693 18.162C186.026 19.1227 185.483 20.1644 185.079 21.262L143.189 137.717C142.666 139.148 142.33 140.639 142.189 142.156C142.06 143.493 142.137 144.842 142.415 146.156C142.647 147.293 143.122 148.367 143.806 149.304C144.432 150.153 145.305 150.789 146.306 151.124L189.006 164.995C190.414 165.448 191.918 165.517 193.362 165.195C194.899 164.843 196.344 164.165 197.597 163.208C198.999 162.146 200.206 160.85 201.164 159.375C202.224 157.755 203.02 155.978 203.521 154.108L242.537 10.152C242.864 9.05312 242.925 7.892 242.714 6.76499C242.531 5.84151 242.064 4.9983 241.378 4.35298C240.659 3.70778 239.772 3.28016 238.82 3.11998C237.657 2.92495 236.467 2.96611 235.32 3.24098L235.319 3.23999Z" fill="white"/>
<path d="M212.42 58.392H127.489V29.61H212.424L212.42 58.392Z" fill="white"/>
<path d="M187.589 68.5499H104.347V108.901H187.589V68.5499Z" fill="white"/>
<path d="M117.87 87.927C121.195 87.927 123.891 85.2313 123.891 81.906C123.891 78.5807 121.195 75.885 117.87 75.885C114.545 75.885 111.849 78.5807 111.849 81.906C111.849 85.2313 114.545 87.927 117.87 87.927Z" fill="#FB5353"/>
<path d="M131.776 77.892C131.51 77.892 131.255 77.9977 131.066 78.1859C130.878 78.3741 130.773 78.6293 130.773 78.8954C130.773 79.1616 130.878 79.4168 131.066 79.605C131.255 79.7932 131.51 79.899 131.776 79.899H179.086C179.352 79.899 179.607 79.7932 179.796 79.605C179.984 79.4168 180.089 79.1616 180.089 78.8954C180.089 78.6293 179.984 78.3741 179.796 78.1859C179.607 77.9977 179.352 77.892 179.086 77.892H131.776Z" fill="#FB5353"/>
<path d="M131.776 83.913C131.51 83.913 131.255 84.0187 131.066 84.2069C130.878 84.3951 130.773 84.6503 130.773 84.9165C130.773 85.1826 130.878 85.4378 131.066 85.626C131.255 85.8142 131.51 85.92 131.776 85.92H152.138C152.404 85.92 152.659 85.8142 152.848 85.626C153.036 85.4378 153.141 85.1826 153.141 84.9165C153.141 84.6503 153.036 84.3951 152.848 84.2069C152.659 84.0187 152.404 83.913 152.138 83.913H131.776Z" fill="#FB5353"/>
<path d="M113.252 93.5389C112.489 93.5389 111.867 93.9889 111.867 94.5389C111.867 95.0889 112.488 95.5389 113.252 95.5389H178.524C179.287 95.5389 179.909 95.0889 179.909 94.5389C179.909 93.9889 179.288 93.5389 178.524 93.5389H113.252Z" fill="#E6E6E6"/>
<path d="M113.252 99.5599C112.489 99.5599 111.867 100.01 111.867 100.56C111.867 101.11 112.488 101.56 113.252 101.56H163.5C164.263 101.56 164.885 101.11 164.885 100.56C164.885 100.01 164.264 99.5599 163.5 99.5599H113.252Z" fill="#E6E6E6"/>
<path d="M188.435 109.744H103.5V67.704H188.435V109.744ZM105.193 108.051H186.742V69.397H105.193V108.051Z" fill="#E6E6E6"/>
<path d="M141.855 49.8329C145.18 49.8329 147.876 47.1372 147.876 43.8119C147.876 40.4866 145.18 37.7909 141.855 37.7909C138.53 37.7909 135.834 40.4866 135.834 43.8119C135.834 47.1372 138.53 49.8329 141.855 49.8329Z" fill="#FB5353"/>
<path d="M155.761 39.798C155.495 39.798 155.24 39.9037 155.051 40.0919C154.863 40.2801 154.757 40.5353 154.757 40.8015C154.757 41.0676 154.863 41.3229 155.051 41.511C155.24 41.6992 155.495 41.805 155.761 41.805H203.071C203.337 41.805 203.592 41.6992 203.781 41.511C203.969 41.3229 204.074 41.0676 204.074 40.8015C204.074 40.5353 203.969 40.2801 203.781 40.0919C203.592 39.9037 203.337 39.798 203.071 39.798H155.761Z" fill="#FB5353"/>
<path d="M155.761 45.819C155.495 45.819 155.24 45.9247 155.051 46.1129C154.863 46.3011 154.757 46.5563 154.757 46.8225C154.757 47.0886 154.863 47.3439 155.051 47.532C155.24 47.7202 155.495 47.826 155.761 47.826H192.987C193.253 47.826 193.508 47.7202 193.697 47.532C193.885 47.3439 193.99 47.0886 193.99 46.8225C193.99 46.5563 193.885 46.3011 193.697 46.1129C193.508 45.9247 193.253 45.819 192.987 45.819H155.761Z" fill="#FB5353"/>
<path d="M212.42 58.392H127.489V29.61H212.424L212.42 58.392ZM129.178 56.699H210.727V31.299H129.178V56.699Z" fill="#E6E6E6"/>
<path d="M45.532 168.029H49.813L51.849 151.514H45.53L45.532 168.029Z" fill="#FFB6B6"/>
<path d="M58.07 172.005L44.614 172.006L44.6137 166.806L53.5047 166.805C54.1043 166.805 54.698 166.923 55.2519 167.153C55.8058 167.382 56.3091 167.718 56.7331 168.142C57.157 168.566 57.4933 169.07 57.7226 169.624C57.952 170.178 58.07 170.771 58.0699 171.371L58.07 172.005Z" fill="#2F2E41"/>
<path d="M2.71899 162.481L6.47099 164.544L16.213 151.054L10.676 148.01L2.71899 162.481Z" fill="#FFB6B6"/>
<path d="M11.792 172.004L0.000522665 165.521L2.50572 160.964L10.2969 165.248C10.8223 165.537 11.2856 165.926 11.6605 166.394C12.0353 166.862 12.3143 167.399 12.4815 167.975C12.6487 168.551 12.7009 169.154 12.635 169.75C12.5691 170.346 12.3864 170.923 12.0974 171.448L11.792 172.004Z" fill="#2F2E41"/>
<path d="M45.333 158.858C44.9515 158.858 44.5831 158.719 44.2966 158.467C44.0101 158.215 43.8251 157.867 43.776 157.489L38.422 116.228C38.3982 116.046 38.3175 115.875 38.1912 115.742C38.0649 115.608 37.8996 115.517 37.7189 115.483C37.5382 115.449 37.3513 115.472 37.1848 115.551C37.0184 115.629 36.8809 115.758 36.792 115.919L14.476 156.406C14.2918 156.736 13.9951 156.99 13.6398 157.12C13.2845 157.251 12.8942 157.249 12.54 157.116L7.676 155.263C7.47997 155.189 7.30074 155.076 7.14887 154.932C6.997 154.787 6.87556 154.614 6.79169 154.422C6.70783 154.23 6.66323 154.023 6.66053 153.814C6.65783 153.604 6.69711 153.396 6.77601 153.202L22.235 115.227C22.2741 115.131 22.3007 115.03 22.314 114.927C24.408 98.7209 29.735 90.4799 31.314 88.3409C31.4296 88.1837 31.5056 88.0009 31.5357 87.808C31.5658 87.6152 31.5491 87.418 31.487 87.2329L31.269 86.5799C31.1817 86.321 31.1635 86.0437 31.2161 85.7756C31.2687 85.5075 31.3903 85.2577 31.569 85.0509C37.269 78.5509 47.213 82.0999 47.313 82.1359L47.363 82.1539L47.394 82.1969C58.541 97.4839 54.419 147.135 53.48 156.933C53.4449 157.301 53.2807 157.645 53.0164 157.904C52.7522 158.163 52.4048 158.32 52.036 158.347L45.445 158.854C45.414 158.858 45.373 158.858 45.333 158.858Z" fill="#2F2E41"/>
<path d="M42.31 44.2109C47.5722 44.2109 51.838 39.9451 51.838 34.6829C51.838 29.4207 47.5722 25.1549 42.31 25.1549C37.0478 25.1549 32.782 29.4207 32.782 34.6829C32.782 39.9451 37.0478 44.2109 42.31 44.2109Z" fill="#FFB8B8"/>
<path d="M27.579 95.3149L55.617 97.8669C53.173 89.3669 50.933 80.8969 52.758 72.4579C55.076 64.9239 55.292 60.7499 49.176 57.2009L45.048 47.9939L37.575 47.7219L33.931 46.7219C30.9875 51.4553 29.7832 57.0656 30.525 62.5899C32.105 74.6009 31.682 85.7489 27.579 95.3149Z" fill="#FB5353"/>
<path d="M31.835 52.7959L29.015 39.8519C28.4265 36.7878 28.5743 33.6278 29.446 30.6319C29.5408 30.325 29.655 30.0243 29.788 29.7319C30.5687 28.0306 31.7961 26.5729 33.3396 25.5139C34.883 24.4548 36.6848 23.8342 38.553 23.7179C44.962 23.2749 45.903 23.9509 46.135 24.2839C49.757 24.1379 52.565 25.5369 53.847 28.1259C53.9724 28.383 54.04 28.6644 54.0449 28.9504C54.0498 29.2363 53.992 29.5199 53.8755 29.7811C53.759 30.0423 53.5866 30.2748 53.3706 30.4622C53.1545 30.6497 52.9001 30.7875 52.625 30.8659C50.6257 31.5128 48.5331 31.824 46.432 31.7869C42.65 36.3239 44.196 44.6349 48.032 49.5869L48.183 49.7819L44.383 50.5609L39.965 44.4089C39.8779 44.2863 39.7513 44.1975 39.6063 44.1574C39.4614 44.1173 39.3071 44.1284 39.1694 44.1887C39.0317 44.2491 38.919 44.355 38.8502 44.4888C38.7815 44.6225 38.7609 44.7758 38.792 44.9229L40.133 51.4389L31.835 52.7959Z" fill="#2F2E41"/>
<path d="M86.298 87.651L16.95 136.691L0.33197 113.191L69.68 64.151L86.298 87.651Z" fill="white"/>
<path d="M23.7333 121.402C26.4468 119.483 27.0911 115.728 25.1724 113.015C23.2537 110.301 19.4986 109.657 16.7851 111.576C14.0717 113.495 13.4274 117.25 15.3461 119.963C17.2648 122.677 21.0199 123.321 23.7333 121.402Z" fill="#FB5353"/>
<path d="M29.301 105.178C29.1934 105.254 29.1018 105.351 29.0315 105.462C28.9612 105.574 28.9135 105.698 28.8913 105.828C28.869 105.958 28.8725 106.091 28.9016 106.219C28.9307 106.348 28.9849 106.469 29.061 106.577C29.1371 106.685 29.2337 106.776 29.3451 106.846C29.4566 106.917 29.5809 106.964 29.7108 106.987C29.8407 107.009 29.9737 107.005 30.1023 106.976C30.2308 106.947 30.3524 106.893 30.46 106.817L69.087 79.5019C69.3043 79.3482 69.4517 79.1145 69.4967 78.8521C69.5417 78.5897 69.4807 78.3202 69.327 78.1029C69.1733 77.8856 68.9396 77.7382 68.6772 77.6932C68.4148 77.6482 68.1453 77.7092 67.928 77.8629L29.301 105.178Z" fill="#FB5353"/>
<path d="M32.778 110.099C32.6702 110.175 32.5785 110.271 32.5079 110.382C32.4374 110.494 32.3895 110.618 32.3669 110.748C32.3444 110.877 32.3476 111.01 32.3764 111.139C32.4053 111.268 32.4591 111.389 32.535 111.497C32.6108 111.605 32.7071 111.696 32.8184 111.767C32.9297 111.838 33.0538 111.885 33.1836 111.908C33.3135 111.931 33.4464 111.927 33.575 111.899C33.7036 111.87 33.8252 111.816 33.933 111.74L64.324 90.249C64.5413 90.0953 64.6887 89.8615 64.7337 89.5992C64.7787 89.3368 64.7177 89.0673 64.564 88.85C64.4103 88.6326 64.1765 88.4852 63.9142 88.4402C63.6518 88.3952 63.3823 88.4563 63.165 88.61L32.778 110.099Z" fill="#FB5353"/>
<path d="M86.298 87.651L16.95 136.691L0.33197 113.191L69.68 64.151L86.298 87.651ZM17.355 134.331L83.938 87.246L69.275 66.511L2.69197 113.596L17.355 134.331Z" fill="#E6E6E6"/>
<path d="M244.646 78.9439C244.892 78.9345 245.137 78.9764 245.366 79.0669C245.583 79.1541 245.78 79.2852 245.944 79.4519C246.109 79.6196 246.238 79.8194 246.323 80.0389C246.412 80.2715 246.453 80.52 246.443 80.7689C246.433 81.0246 246.374 81.2759 246.268 81.5089C246.061 81.9682 245.693 82.3359 245.234 82.5429C245.003 82.6464 244.754 82.7031 244.501 82.7099C244.255 82.7174 244.01 82.6734 243.782 82.5809C243.566 82.4925 243.37 82.3604 243.207 82.1929C243.044 82.0247 242.916 81.825 242.833 81.6059C242.745 81.374 242.705 81.1267 242.716 80.8789C242.726 80.6247 242.785 80.3748 242.89 80.1429C242.993 79.9166 243.135 79.7107 243.311 79.5349C243.486 79.359 243.691 79.2163 243.917 79.1139C244.146 79.0099 244.394 78.9522 244.646 78.9439Z" fill="#FB5353"/>
<path d="M49.678 102.849L45.168 78.1969L45.486 62.9519L35.322 62.6339L37.228 79.7849L43.8 103.568C43.2529 104.231 42.9173 105.044 42.8366 105.9C42.7558 106.756 42.9336 107.617 43.347 108.371C43.7604 109.125 44.3904 109.737 45.1556 110.13C45.9208 110.522 46.7861 110.676 47.6396 110.572C48.4932 110.467 49.2959 110.109 49.944 109.544C50.592 108.979 51.0558 108.232 51.2752 107.401C51.4947 106.569 51.4598 105.691 51.175 104.88C50.8903 104.068 50.3688 103.361 49.678 102.849Z" fill="#FFB8B8"/>
<path d="M34.687 64.222C38.3693 62.8194 42.4387 62.8194 46.121 64.222L45.486 51.5219C45.486 50.1741 44.9506 48.8815 43.9975 47.9284C43.0444 46.9754 41.7518 46.4399 40.404 46.4399C39.0562 46.4399 37.7635 46.9754 36.8105 47.9284C35.8574 48.8815 35.322 50.1741 35.322 51.5219L34.687 64.222Z" fill="#E2E2E2"/>
</g>
<defs>
<clipPath id="clip0_19_137">
<rect width="249.758" height="172.005" fill="white"/>
</clipPath>
</defs>
</svg>
