<svg width="266" height="199" viewBox="0 0 266 199" fill="none" xmlns="http://www.w3.org/2000/svg">
<g clip-path="url(#clip0_22_245)">
<path d="M135.33 48.439H108.472V40.286C116.959 34.38 124.479 34.893 134.372 40.766L135.33 48.439Z" fill="#E2E2E2"/>
<path d="M102.253 193.258H96.373L95.494 170.579H102.254L102.253 193.258Z" fill="#FFB8B8"/>
<path d="M103.751 198.958H84.793V198.718C84.793 196.761 85.5705 194.884 86.9543 193.5C88.3381 192.116 90.215 191.339 92.172 191.339H103.752L103.751 198.958Z" fill="#2F2E41"/>
<path d="M135.37 193.258H141.25L142.129 170.579H135.369L135.37 193.258Z" fill="#FFB8B8"/>
<path d="M133.87 191.335H145.45C147.407 191.335 149.284 192.112 150.668 193.496C152.052 194.88 152.829 196.757 152.829 198.714V198.954H133.87V191.335Z" fill="#2F2E41"/>
<path d="M135.525 190.351C135.035 190.349 134.559 190.181 134.176 189.875C133.794 189.568 133.526 189.14 133.418 188.662L118.844 125.096C118.812 124.935 118.724 124.79 118.596 124.687C118.468 124.585 118.308 124.53 118.144 124.533C117.979 124.53 117.818 124.586 117.69 124.69C117.562 124.794 117.475 124.941 117.444 125.103L104.055 188.24C103.951 188.723 103.685 189.156 103.301 189.467C102.917 189.778 102.438 189.949 101.944 189.951H95.565C95.2709 189.951 94.9798 189.891 94.7098 189.774C94.4397 189.658 94.1963 189.487 93.9946 189.273C93.7929 189.059 93.6371 188.806 93.5367 188.529C93.4363 188.253 93.3936 187.959 93.411 187.665L98.159 107.641L100.07 107.076H100.106L137.639 107.404L145.633 187.34C145.661 187.625 145.632 187.913 145.547 188.186C145.463 188.46 145.325 188.714 145.141 188.934C144.957 189.154 144.731 189.334 144.477 189.466C144.223 189.598 143.944 189.677 143.659 189.7L135.696 190.343C135.639 190.348 135.582 190.351 135.525 190.351Z" fill="#2F2E41"/>
<path d="M120.025 33.8259C126.53 33.8259 131.804 28.5523 131.804 22.0469C131.804 15.5416 126.53 10.2679 120.025 10.2679C113.52 10.2679 108.246 15.5416 108.246 22.0469C108.246 28.5523 113.52 33.8259 120.025 33.8259Z" fill="#FFB8B8"/>
<path d="M112.809 116.415C110.744 116.44 108.687 116.15 106.709 115.556C104.949 115.025 103.316 114.14 101.911 112.954C100.505 111.768 99.3576 110.308 98.538 108.662C98.2781 108.167 98.2204 107.59 98.377 107.053C99.677 102.619 105.954 79.5719 101.948 61.2529C101.383 58.7078 101.336 56.0749 101.81 53.5112C102.284 50.9475 103.27 48.5055 104.708 46.331C106.113 44.1735 107.938 42.3211 110.075 40.8842C112.211 39.4474 114.615 38.4556 117.143 37.9679C117.807 37.8379 118.475 37.732 119.128 37.651C121.922 37.3069 124.758 37.5848 127.433 38.4648C130.108 39.3447 132.555 40.8049 134.599 42.741C136.704 44.715 138.347 47.13 139.409 49.8131C140.472 52.4961 140.928 55.3809 140.745 58.2609L137.667 107.661C137.646 108.031 137.529 108.39 137.327 108.701C137.125 109.012 136.846 109.266 136.517 109.437C132.967 111.292 122.317 116.415 112.809 116.415Z" fill="#3F3D56"/>
<path d="M133.332 13.377C132.108 10.3018 129.867 7.73935 126.982 6.11726C124.097 4.49518 120.743 3.91162 117.48 4.46397L121.194 7.46397C116.58 7.61897 111.722 7.28897 108.427 10.524C109.476 10.495 110.851 12.738 111.9 12.709C110.918 12.7779 109.973 13.1089 109.163 13.6676C108.353 14.2262 107.707 14.9919 107.294 15.885C106.492 17.693 106.304 19.7142 106.76 21.639C107.147 23.562 110.102 28.066 110.897 29.859C110.76 25.173 119.985 13.997 124.49 15.159C122.202 16.0081 120.216 17.5158 118.783 19.492C121.848 17.9456 125.314 17.3787 128.711 17.868C129.487 18.0461 130.287 18.091 131.078 18.001C131.563 17.905 132.015 17.6864 132.391 17.3661C132.767 17.0457 133.054 16.6343 133.226 16.1711C133.398 15.7079 133.448 15.2084 133.372 14.7203C133.296 14.2322 133.096 13.7718 132.791 13.383L133.332 13.377Z" fill="#2F2E41"/>
<path d="M111.995 113.448C111.698 113.447 111.403 113.385 111.131 113.266L88.781 103.511C88.3062 103.307 87.9207 102.939 87.6957 102.474C87.4706 102.009 87.421 101.479 87.556 100.98L102.356 45.088C102.631 44.048 103.111 43.0733 103.767 42.221C104.424 41.3687 105.243 40.6559 106.179 40.1243C107.114 39.5927 108.146 39.2529 109.214 39.125C110.282 38.997 111.365 39.0833 112.399 39.379L118.315 41.067L114.15 111.415C114.129 111.762 114.024 112.099 113.845 112.397C113.666 112.695 113.417 112.945 113.121 113.127C112.783 113.336 112.393 113.448 111.995 113.448Z" fill="#E2E2E2"/>
<path d="M153.362 100.979L152.379 97.272L150.955 91.8811L150.269 89.2961L148.845 83.9201L138.567 45.087C138.293 44.0466 137.814 43.0714 137.157 42.2187C136.501 41.366 135.681 40.6529 134.746 40.1213C133.81 39.5897 132.778 39.2503 131.71 39.123C130.641 38.9957 129.558 39.0831 128.524 39.38L122.61 41.0681L125.54 90.548L125.84 95.7131L126.032 98.9691L126.339 104.106L126.771 111.406C126.806 111.954 127.048 112.469 127.448 112.846C127.847 113.223 128.375 113.435 128.924 113.439C129.221 113.437 129.515 113.375 129.787 113.257L152.136 103.502C152.611 103.299 152.996 102.93 153.221 102.465C153.446 102 153.495 101.469 153.359 100.97L153.362 100.979Z" fill="#E2E2E2"/>
<path d="M150.268 89.2961L125.842 95.713L125.542 90.548L148.842 83.92L150.268 89.2961Z" fill="#FB5353"/>
<path d="M152.379 97.2729L126.342 104.112L126.035 98.975L150.955 91.887L152.379 97.2729Z" fill="#FB5353"/>
<path d="M115.08 91.6609L114.78 96.7299L90.821 89.5939L92.221 84.2939L115.08 91.6609Z" fill="#FB5353"/>
<path d="M114.581 100.068L90.136 92.179L88.731 97.498L114.284 105.109L114.581 100.068Z" fill="#FB5353"/>
<path d="M90.563 105.37C91.2919 105.18 91.9702 104.832 92.5501 104.351C93.13 103.871 93.5975 103.269 93.9196 102.588C94.2417 101.907 94.4105 101.164 94.4142 100.41C94.4179 99.657 94.2564 98.9121 93.941 98.228L105.432 62.15L97.283 60.443L86.747 95.815C85.6333 96.4209 84.7804 97.4143 84.3501 98.6069C83.9197 99.7996 83.9417 101.109 84.4119 102.286C84.8821 103.464 85.7678 104.428 86.9013 104.996C88.0347 105.564 89.3372 105.697 90.562 105.369L90.563 105.37Z" fill="#FFB8B8"/>
<path d="M105.752 44.414C108.092 44.653 109.408 47.284 108.826 50.56L106.034 66.28C105.825 67.458 104.855 68.391 104.049 68.19L94.605 65.829C93.878 65.647 93.611 64.615 94.022 63.582L99.691 49.36C100.924 46.272 103.484 44.182 105.752 44.414Z" fill="#3F3D56"/>
<path d="M119.986 5.214e-07C123.972 0.000403949 127.802 1.55226 130.664 4.327C133.527 7.10173 135.197 10.8815 135.321 14.866H138.211C138.465 14.866 138.709 14.967 138.889 15.1469C139.069 15.3267 139.17 15.5707 139.17 15.825V19.662C139.17 19.9163 139.069 20.1603 138.889 20.3401C138.709 20.52 138.465 20.621 138.211 20.621H105.594C105.34 20.621 105.096 20.52 104.916 20.3401C104.736 20.1603 104.635 19.9163 104.635 19.662V15.35C104.635 13.334 105.031 11.3377 105.803 9.47511C106.574 7.61252 107.705 5.92015 109.13 4.49468C110.556 3.0692 112.248 1.93857 114.111 1.16736C115.974 0.396148 117.97 -0.000524958 119.986 5.214e-07Z" fill="#FB5353"/>
<path d="M121.817 94.867H115.037C114.819 94.8677 114.61 94.787 114.448 94.6409C114.287 94.4947 114.186 94.2936 114.166 94.077L112.809 80.168H124.044L122.687 94.077C122.667 94.2934 122.566 94.4944 122.405 94.6405C122.244 94.7867 122.034 94.8674 121.817 94.867Z" fill="#FB5353"/>
<path d="M124.026 81.918H112.826C112.594 81.9177 112.372 81.8254 112.208 81.6614C112.044 81.4974 111.951 81.275 111.951 81.043V78.943C111.951 78.711 112.044 78.4886 112.208 78.3246C112.372 78.1605 112.594 78.0683 112.826 78.068H124.026C124.258 78.0683 124.48 78.1605 124.644 78.3246C124.809 78.4886 124.901 78.711 124.901 78.943V81.043C124.901 81.275 124.809 81.4974 124.644 81.6614C124.48 81.8254 124.258 81.9177 124.026 81.918Z" fill="#BF8D30"/>
<path d="M118.572 87.408C118.836 87.4384 119.096 87.4896 119.352 87.5609L137.407 72.0779L136.352 66.3969L144.717 63.684L147.563 73.559C147.792 74.3561 147.756 75.206 147.461 75.9812C147.167 76.7564 146.629 77.4152 145.928 77.8589L123.062 92.3289C123.078 93.351 122.783 94.3538 122.215 95.2039C121.648 96.0541 120.835 96.7113 119.884 97.0881C118.934 97.4649 117.892 97.5435 116.896 97.3134C115.9 97.0833 114.997 96.5555 114.309 95.8C113.62 95.0446 113.177 94.0975 113.04 93.0845C112.903 92.0715 113.077 91.0408 113.54 90.1293C114.003 89.2179 114.732 88.469 115.631 87.9821C116.53 87.4953 117.556 87.2936 118.572 87.404V87.408Z" fill="#FFB8B8"/>
<path d="M137.453 45.712C139.953 45.012 142.453 46.912 143.287 50.156L147.303 65.709C147.603 66.875 147.019 68.1089 146.103 68.2449L135.403 69.7839C134.58 69.9019 133.854 69.058 133.824 67.946L133.409 52.64C133.324 49.318 135.03 46.391 137.453 45.712Z" fill="#3F3D56"/>
<path d="M178.645 61.8989H171.865C171.647 61.8996 171.437 61.819 171.276 61.6729C171.115 61.5267 171.014 61.3256 170.994 61.1089L169.637 47.2H180.872L179.515 61.1089C179.495 61.3254 179.394 61.5264 179.233 61.6725C179.072 61.8187 178.862 61.8994 178.645 61.8989Z" fill="#FB5353"/>
<path d="M180.855 48.951H169.655C169.423 48.9507 169.201 48.8584 169.037 48.6944C168.873 48.5304 168.78 48.3079 168.78 48.076V45.976C168.78 45.744 168.873 45.5216 169.037 45.3575C169.201 45.1935 169.423 45.1012 169.655 45.101H180.855C181.087 45.1012 181.309 45.1935 181.473 45.3575C181.637 45.5216 181.73 45.744 181.73 45.976V48.076C181.73 48.3079 181.637 48.5304 181.473 48.6944C181.309 48.8584 181.087 48.9507 180.855 48.951Z" fill="#BF8D30"/>
<path d="M245.251 143.583C240.325 137.031 236.431 129.764 233.704 122.034C233.546 121.572 233.557 121.068 233.736 120.613C233.914 120.159 234.248 119.782 234.678 119.55L251.534 110.518C251.807 110.371 252.109 110.288 252.419 110.275C252.729 110.262 253.037 110.32 253.321 110.445C253.61 110.571 253.866 110.76 254.071 111C254.275 111.24 254.422 111.523 254.501 111.828C256.463 119.277 260.151 126.16 265.266 131.919C265.477 132.153 265.632 132.433 265.718 132.736C265.805 133.039 265.821 133.358 265.766 133.668C265.713 133.973 265.59 134.262 265.408 134.513C265.227 134.764 264.99 134.97 264.716 135.116L247.861 144.148C247.43 144.378 246.93 144.448 246.452 144.344C245.974 144.241 245.549 143.971 245.251 143.583Z" fill="#CCCCCC"/>
<path d="M246.401 142.718C246.492 142.831 246.619 142.909 246.761 142.939C246.903 142.968 247.051 142.947 247.179 142.879L264.035 133.847C264.117 133.804 264.188 133.743 264.242 133.669C264.296 133.594 264.332 133.508 264.348 133.417C264.365 133.321 264.361 133.222 264.333 133.128C264.306 133.034 264.258 132.948 264.192 132.876C258.926 126.947 255.129 119.861 253.11 112.193C253.087 112.098 253.042 112.01 252.978 111.936C252.915 111.861 252.836 111.802 252.746 111.764C252.661 111.726 252.569 111.709 252.477 111.712C252.384 111.716 252.294 111.741 252.213 111.786L235.358 120.818C235.23 120.887 235.13 120.998 235.075 121.132C235.02 121.267 235.014 121.416 235.058 121.555C237.737 129.147 241.562 136.284 246.401 142.718Z" fill="white"/>
<path d="M252.641 123.402L243.461 127.454C243.288 127.531 243.102 127.572 242.912 127.577C242.723 127.581 242.535 127.548 242.359 127.48C242.182 127.412 242.021 127.31 241.884 127.179C241.747 127.048 241.637 126.892 241.561 126.719L241.334 126.205C241.257 126.032 241.216 125.846 241.211 125.656C241.207 125.467 241.24 125.279 241.308 125.103C241.376 124.926 241.478 124.765 241.609 124.628C241.74 124.491 241.896 124.381 242.069 124.305L251.249 120.253C251.422 120.176 251.608 120.135 251.798 120.13C251.987 120.126 252.175 120.158 252.351 120.227C252.528 120.295 252.689 120.397 252.826 120.528C252.963 120.659 253.073 120.815 253.149 120.988L253.376 121.502C253.453 121.675 253.494 121.861 253.499 122.05C253.503 122.24 253.47 122.428 253.402 122.604C253.334 122.781 253.232 122.942 253.101 123.079C252.97 123.216 252.814 123.326 252.641 123.402Z" fill="#FB5353"/>
<path d="M255.998 129.637L246.818 133.689C246.645 133.766 246.459 133.807 246.269 133.812C246.08 133.816 245.892 133.783 245.716 133.715C245.539 133.647 245.378 133.545 245.241 133.414C245.104 133.283 244.994 133.127 244.918 132.954L244.691 132.44C244.537 132.091 244.527 131.694 244.665 131.338C244.803 130.982 245.077 130.695 245.426 130.54L254.606 126.488C254.955 126.334 255.352 126.324 255.708 126.462C256.064 126.6 256.351 126.874 256.506 127.223L256.733 127.737C256.81 127.91 256.851 128.096 256.856 128.286C256.86 128.475 256.827 128.663 256.759 128.839C256.691 129.016 256.589 129.177 256.458 129.314C256.327 129.451 256.171 129.561 255.998 129.637Z" fill="#FB5353"/>
<path d="M234.468 124.447C233.835 124.04 233.298 123.498 232.896 122.861C232.495 122.224 232.238 121.506 232.144 120.759C232.049 120.012 232.12 119.253 232.351 118.536C232.581 117.819 232.967 117.161 233.479 116.609L229.607 61.667L240.759 62.749L241.065 116.549C241.938 117.471 242.441 118.681 242.48 119.95C242.519 121.219 242.091 122.458 241.276 123.432C240.462 124.406 239.319 125.047 238.063 125.233C236.807 125.419 235.527 125.138 234.465 124.443L234.468 124.447Z" fill="#A0616A"/>
<path d="M232.132 80.127C231.871 79.9392 231.655 79.6951 231.501 79.4128C231.347 79.1305 231.258 78.8173 231.241 78.496L230.423 63.688C230.341 62.2201 230.805 60.7739 231.727 59.6283C232.648 58.4828 233.962 57.7193 235.413 57.4853C236.865 57.2512 238.351 57.5632 239.586 58.3609C240.821 59.1587 241.717 60.3857 242.1 61.805L245.69 75.0441C245.839 75.5965 245.763 76.1855 245.478 76.6819C245.194 77.1783 244.724 77.5415 244.172 77.692L233.96 80.461C233.65 80.5458 233.325 80.5598 233.008 80.5022C232.692 80.4446 232.392 80.3167 232.132 80.128V80.127Z" fill="#3F3D56"/>
<path d="M213.124 191.993H207.244L204.444 169.314H213.122L213.124 191.993Z" fill="#A0616A"/>
<path d="M203.044 190.312H214.384V197.452H195.904C195.904 195.558 196.656 193.742 197.995 192.403C199.334 191.064 201.15 190.312 203.044 190.312Z" fill="#2F2E41"/>
<path d="M235.186 191.993H229.306L226.506 169.314H235.184L235.186 191.993Z" fill="#A0616A"/>
<path d="M225.106 190.312H236.446V197.452H217.966C217.966 195.558 218.718 193.742 220.057 192.403C221.396 191.064 223.212 190.312 225.106 190.312Z" fill="#2F2E41"/>
<path d="M212.847 180.567L206.374 180.258C205.823 180.232 205.302 179.996 204.92 179.598C204.537 179.199 204.322 178.67 204.318 178.118C202.612 151.779 200.248 123.536 203.866 112.625C203.864 112.314 203.929 112.007 204.057 111.723C204.185 111.44 204.372 111.187 204.606 110.983C204.841 110.779 205.116 110.628 205.415 110.54C205.713 110.452 206.026 110.43 206.334 110.474L232.234 114.233C232.746 114.305 233.214 114.559 233.554 114.948C233.893 115.338 234.081 115.836 234.082 116.353C237.388 129.272 237.537 152.698 237.412 177.039C237.414 177.324 237.36 177.606 237.253 177.87C237.145 178.134 236.987 178.374 236.786 178.576C236.585 178.778 236.347 178.939 236.084 179.048C235.821 179.158 235.539 179.214 235.254 179.214H228.276C227.761 179.216 227.263 179.033 226.871 178.699C226.48 178.364 226.222 177.9 226.144 177.391L221.839 150.021C221.776 149.621 221.57 149.258 221.259 148.997C220.949 148.737 220.555 148.598 220.15 148.606C219.745 148.613 219.357 148.767 219.056 149.038C218.755 149.309 218.563 149.68 218.514 150.082L215.096 178.667C215.031 179.19 214.778 179.672 214.383 180.022C213.989 180.372 213.48 180.565 212.953 180.567C212.915 180.57 212.881 180.569 212.847 180.567Z" fill="#2F2E41"/>
<path d="M217.403 116.353C213.623 114.132 209.434 112.697 205.087 112.134C204.802 112.107 204.525 112.022 204.273 111.884C204.021 111.747 203.8 111.559 203.623 111.334C203.442 111.107 203.309 110.845 203.232 110.564C203.155 110.284 203.136 109.991 203.176 109.703L209.376 63.637C209.733 60.942 210.774 58.3832 212.4 56.2041C214.025 54.0251 216.182 52.2983 218.663 51.188C221.065 50.0838 223.71 49.6126 226.345 49.8191C228.981 50.0256 231.519 50.9031 233.72 52.368C233.933 52.5093 234.141 52.6536 234.346 52.801C236.88 54.6578 238.808 57.2233 239.886 60.174C240.965 63.1247 241.146 66.3286 240.406 69.382C236.606 84.947 235.294 110.466 235.071 115.423C235.054 115.846 234.911 116.254 234.662 116.595C234.413 116.937 234.068 117.198 233.671 117.344C231.331 118.194 228.861 118.634 226.371 118.644C223.235 118.662 220.146 117.873 217.403 116.353Z" fill="#3F3D56"/>
<path d="M222.592 44.933C229.097 44.933 234.371 39.6594 234.371 33.154C234.371 26.6486 229.097 21.375 222.592 21.375C216.087 21.375 210.813 26.6486 210.813 33.154C210.813 39.6594 216.087 44.933 222.592 44.933Z" fill="#A0616A"/>
<path d="M230.929 42.474C230.437 43.007 229.803 43.3883 229.102 43.5727C228.401 43.7571 227.661 43.737 226.971 43.5147C226.281 43.2924 225.668 42.8773 225.207 42.3183C224.745 41.7593 224.452 41.0798 224.364 40.36C224.34 40.1119 224.34 39.8621 224.364 39.614C224.512 38.197 225.33 36.914 225.134 35.414C225.091 35.0419 224.953 34.687 224.734 34.383C222.983 32.038 218.872 35.432 217.219 33.309C216.206 32.009 217.397 29.958 216.619 28.503C215.593 26.583 212.553 27.53 210.646 26.479C208.525 25.309 208.652 22.055 210.046 20.079C210.955 18.9093 212.11 17.9544 213.43 17.2823C214.75 16.6103 216.202 16.2377 217.683 16.191C220.647 16.1212 223.591 16.6958 226.312 17.875C229.44 19.094 232.541 20.775 234.465 23.528C236.806 26.872 237.031 31.368 235.865 35.279C235.154 37.656 232.723 40.563 230.929 42.474Z" fill="#2F2E41"/>
<path d="M240.258 53.9259C240.052 52.9569 238.282 51.6339 235.75 50.5539C231.68 48.9053 227.277 48.2415 222.902 48.6165C218.527 48.9915 214.301 50.3948 210.571 52.712C210.31 52.7255 210.062 52.8244 209.863 52.9934C209.664 53.1624 209.526 53.392 209.471 53.647L200.954 91.3169L199.846 96.2229L199.112 99.47L198.004 104.362L197.414 106.976C197.376 107.143 197.374 107.317 197.408 107.485C197.443 107.652 197.513 107.811 197.614 107.95C197.715 108.088 197.844 108.204 197.993 108.288C198.143 108.373 198.308 108.424 198.479 108.439L235.259 111.614C235.293 111.614 235.331 111.614 235.364 111.614C235.667 111.612 235.959 111.495 236.179 111.287C236.4 111.079 236.533 110.795 236.553 110.492L236.903 105.164L237.277 99.4639L237.44 96.9939L237.809 91.311L240.26 53.979V53.945L240.258 53.9259Z" fill="#E2E2E2"/>
<path d="M179.907 56.298C179.966 56.5569 180.004 56.82 180.022 57.085L200.622 68.97L205.63 66.087L210.969 73.076L200.256 80.711L176.756 62.168C175.797 62.5227 174.753 62.5772 173.763 62.3242C172.773 62.0711 171.883 61.5225 171.212 60.7514C170.541 59.9803 170.12 59.0232 170.006 58.0073C169.893 56.9914 170.091 55.965 170.575 55.0645C171.058 54.164 171.805 53.4321 172.715 52.9662C173.624 52.5002 174.655 52.3224 175.668 52.4562C176.681 52.59 177.63 53.0291 178.388 53.7152C179.146 54.4013 179.677 55.3018 179.91 56.297L179.907 56.298Z" fill="#A0616A"/>
<path d="M201.36 67.958C201.326 67.6382 201.364 67.3147 201.471 67.0115C201.578 66.7083 201.752 66.433 201.98 66.206L212.466 55.718C213.505 54.6776 214.892 54.0589 216.36 53.9812C217.828 53.9035 219.273 54.3724 220.415 55.2974C221.558 56.2224 222.317 57.5378 222.547 58.9898C222.777 60.4419 222.46 61.9275 221.659 63.16L214.192 74.667C213.88 75.1465 213.391 75.4828 212.831 75.602C212.272 75.7213 211.688 75.6137 211.207 75.303L202.332 69.544C202.062 69.3693 201.834 69.1361 201.666 68.8616C201.497 68.587 201.393 68.2783 201.36 67.958Z" fill="#3F3D56"/>
<path d="M237.811 91.3199L237.442 97.0029L199.842 96.226L200.956 91.3199H237.811Z" fill="#FB5353"/>
<path d="M237.279 99.474L236.904 105.174L198.004 104.368L199.112 99.476L237.279 99.474Z" fill="#FB5353"/>
<path d="M222.824 10.2679C218.838 10.2689 215.009 11.821 212.147 14.5956C209.285 17.3703 207.615 21.1498 207.491 25.1339H204.601C204.347 25.1339 204.103 25.235 203.923 25.4148C203.743 25.5947 203.642 25.8386 203.642 26.093V29.9299C203.642 30.1843 203.743 30.4282 203.923 30.6081C204.103 30.7879 204.347 30.8889 204.601 30.8889H237.214C237.468 30.8889 237.712 30.7879 237.892 30.6081C238.072 30.4282 238.173 30.1843 238.173 29.9299V25.618C238.173 21.5477 236.556 17.6441 233.678 14.766C230.8 11.8879 226.896 10.2709 222.826 10.2709L222.824 10.2679Z" fill="#FB5353"/>
<path d="M51.8521 164.529C48.8167 165.596 45.5577 165.863 42.3891 165.305C39.2205 164.747 36.2491 163.382 33.761 161.342C27.425 156.024 25.438 147.262 23.821 139.149L19.04 115.149L29.05 122.041C36.25 126.998 43.6091 132.113 48.5941 139.293C53.5791 146.473 55.7541 156.273 51.7491 164.042" fill="#FB5353"/>
<path d="M50.9961 193.583C52.0091 186.203 53.0511 178.729 52.3401 171.27C51.8781 164.618 49.5309 158.236 45.5731 152.87C43.3891 150.059 40.7316 147.651 37.7201 145.754C36.9351 145.254 36.2121 146.503 36.9941 146.996C42.2048 150.289 46.2352 155.152 48.5041 160.884C51.0101 167.258 51.412 174.205 50.98 180.976C50.719 185.07 50.1651 189.138 49.6081 193.2C49.5639 193.383 49.5909 193.577 49.6837 193.741C49.7765 193.905 49.9282 194.028 50.1081 194.085C50.2917 194.135 50.4874 194.11 50.6531 194.016C50.8187 193.923 50.9408 193.768 50.993 193.585L50.9961 193.583Z" fill="#F2F2F2"/>
<path d="M41.237 180.525C39.935 182.503 38.1455 184.113 36.041 185.199C33.9364 186.285 31.5877 186.81 29.221 186.725C23.138 186.436 18.067 182.191 13.502 178.16L0.00201416 166.238L8.93802 165.81C15.364 165.502 21.957 165.216 28.078 167.197C34.199 169.178 39.844 173.948 40.963 180.284" fill="#FB5353"/>
<path d="M53.863 197.826C48.987 189.197 43.33 179.608 33.224 176.543C30.4142 175.692 27.4676 175.387 24.543 175.643C23.621 175.722 23.851 177.143 24.772 177.064C29.674 176.657 34.5665 177.952 38.626 180.729C42.4422 183.498 45.6774 186.989 48.1481 191.005C49.7251 193.405 51.137 195.905 52.548 198.405C52.999 199.205 54.319 198.627 53.862 197.819L53.863 197.826Z" fill="#F2F2F2"/>
</g>
<defs>
<clipPath id="clip0_22_245">
<rect width="265.797" height="198.958" fill="white"/>
</clipPath>
</defs>
</svg>
