<svg width="16" height="16" viewBox="0 0 16 16" fill="none" xmlns="http://www.w3.org/2000/svg">
<path d="M14.7849 11.349V13.42C14.7857 13.6123 14.7463 13.8026 14.6693 13.9788C14.5922 14.155 14.4793 14.3131 14.3376 14.4431C14.1959 14.5731 14.0287 14.6721 13.8465 14.7337C13.6644 14.7954 13.4714 14.8183 13.2799 14.801C11.1551 14.5701 9.11408 13.844 7.32089 12.681C5.65251 11.6209 4.23802 10.2064 3.17789 8.53802C2.01093 6.73686 1.28465 4.68615 1.05789 2.55202C1.04097 2.36126 1.06391 2.16907 1.12526 1.98766C1.1866 1.80624 1.285 1.63957 1.41421 1.49822C1.54343 1.35688 1.70063 1.24395 1.87582 1.16662C2.05102 1.08929 2.24038 1.04924 2.43189 1.04902H4.50389C4.83904 1.04573 5.16396 1.16444 5.41805 1.38302C5.67214 1.6016 5.83806 1.90513 5.88489 2.23702C5.97223 2.89983 6.13426 3.55063 6.36789 4.17702C6.46077 4.42419 6.48083 4.69282 6.42571 4.95105C6.37059 5.20928 6.2426 5.4463 6.05689 5.63402L5.18489 6.51102C6.16716 8.23726 7.59665 9.66675 9.32289 10.649L10.1999 9.77202C10.3876 9.58631 10.6246 9.45831 10.8829 9.40319C11.1411 9.34807 11.4097 9.36814 11.6569 9.46102C12.2833 9.69464 12.9341 9.85667 13.5969 9.94402C13.9329 9.99132 14.2398 10.1607 14.4589 10.4199C14.6781 10.679 14.7941 11.0098 14.7849 11.349V11.349Z" stroke="#B7B7B7" stroke-width="1.3" stroke-linecap="round" stroke-linejoin="round"/>
</svg>
