<svg width="10" height="9" viewBox="0 0 10 9" fill="none" xmlns="http://www.w3.org/2000/svg">
<path d="M2.0998 8.66996C2.04786 8.69456 1.99007 8.70415 1.93297 8.69762C1.87587 8.6911 1.82174 8.66873 1.77669 8.63304C1.73164 8.59736 1.69747 8.54978 1.67805 8.49569C1.65863 8.4416 1.65473 8.38315 1.6668 8.32696L2.1478 5.58196L0.0997966 3.63496C0.0568337 3.59388 0.0260372 3.54175 0.0107975 3.4843C-0.00444216 3.42685 -0.00353408 3.36631 0.0134218 3.30934C0.0303777 3.25238 0.0627238 3.20119 0.106899 3.16142C0.151075 3.12166 0.205366 3.09485 0.263797 3.08396L3.1058 2.68396L4.3758 0.168958C4.40057 0.118772 4.4389 0.0765174 4.48644 0.0469724C4.53397 0.0174274 4.58883 0.00177002 4.6448 0.00177002C4.70077 0.00177002 4.75562 0.0174274 4.80316 0.0469724C4.85069 0.0765174 4.88902 0.118772 4.9138 0.168958L6.1808 2.67596L9.0228 3.07596C9.08123 3.08685 9.13552 3.11366 9.17969 3.15342C9.22387 3.19319 9.25622 3.24438 9.27317 3.30134C9.29013 3.35831 9.29104 3.41885 9.2758 3.4763C9.26056 3.53375 9.22976 3.58588 9.1868 3.62696L7.1428 5.58196L7.6238 8.32696C7.63586 8.38315 7.63196 8.4416 7.61254 8.49569C7.59312 8.54978 7.55896 8.59736 7.51391 8.63304C7.46886 8.66873 7.41472 8.6911 7.35762 8.69762C7.30052 8.70415 7.24273 8.69456 7.1908 8.66996L4.6438 7.36096L2.0998 8.66996Z" fill="#FFBB00"/>
</svg>
