<svg width="18" height="22" viewBox="0 0 18 22" fill="none" xmlns="http://www.w3.org/2000/svg">
<path fill-rule="evenodd" clip-rule="evenodd" d="M8.66481 17.6316L2.73346 20.8811C2.25989 21.1272 1.67646 20.953 1.41538 20.4875V20.4875C1.33985 20.3433 1.2991 20.1834 1.29639 20.0206V5.62247C1.29639 2.87647 3.17282 1.77808 5.87305 1.77808H12.2163C14.8341 1.77808 16.793 2.80325 16.793 5.4394V20.0206C16.793 20.2804 16.6898 20.5295 16.5061 20.7132C16.3224 20.8969 16.0733 21 15.8135 21C15.6479 20.9974 15.485 20.9567 15.3376 20.8811L9.36961 17.6316C9.1497 17.5128 8.88472 17.5128 8.66481 17.6316Z" stroke="#B7B7B7" stroke-width="2" stroke-linecap="round" stroke-linejoin="round"/>
</svg>
