<svg width="16" height="16" viewBox="0 0 16 16" fill="none" xmlns="http://www.w3.org/2000/svg">
<path d="M14.25 10.5H3.75C3.55109 10.5 3.36032 10.421 3.21967 10.2803C3.07902 10.1397 3 9.94891 3 9.75C3 9.55109 3.07902 9.36032 3.21967 9.21967C3.36032 9.07902 3.55109 9 3.75 9H11.58C12.0815 9.00003 12.5686 8.83252 12.964 8.52407C13.3594 8.21562 13.6405 7.78392 13.7625 7.2975L15 2.43C15.0281 2.31931 15.0305 2.20366 15.0071 2.09188C14.9837 1.9801 14.9351 1.87514 14.865 1.785C14.7921 1.69255 14.6984 1.61857 14.5915 1.56906C14.4847 1.51955 14.3677 1.49589 14.25 1.5H3.57C3.41527 1.06234 3.12895 0.683249 2.7503 0.414704C2.37165 0.146159 1.91921 0.00130463 1.455 0H0.75C0.551088 0 0.360322 0.0790176 0.21967 0.21967C0.0790176 0.360322 0 0.551088 0 0.75C0 0.948912 0.0790176 1.13968 0.21967 1.28033C0.360322 1.42098 0.551088 1.5 0.75 1.5H1.455C1.62633 1.49501 1.79419 1.54885 1.93065 1.65256C2.06712 1.75627 2.16394 1.90359 2.205 2.07L2.25 2.43L3.5475 7.5C2.95076 7.52685 2.38913 7.78966 1.98617 8.2306C1.5832 8.67155 1.3719 9.25451 1.39875 9.85125C1.4256 10.448 1.68841 11.0096 2.12935 11.4126C2.5703 11.8156 3.15326 12.0269 3.75 12H3.885C3.76165 12.3398 3.72202 12.7044 3.76945 13.0628C3.81688 13.4212 3.94998 13.763 4.15749 14.059C4.36499 14.3551 4.64079 14.5968 4.96151 14.7637C5.28224 14.9305 5.63846 15.0176 6 15.0176C6.36154 15.0176 6.71776 14.9305 7.03849 14.7637C7.35921 14.5968 7.63501 14.3551 7.84251 14.059C8.05002 13.763 8.18312 13.4212 8.23055 13.0628C8.27798 12.7044 8.23835 12.3398 8.115 12H9.885C9.76165 12.3398 9.72202 12.7044 9.76945 13.0628C9.81688 13.4212 9.94998 13.763 10.1575 14.059C10.365 14.3551 10.6408 14.5968 10.9615 14.7637C11.2822 14.9305 11.6385 15.0176 12 15.0176C12.3615 15.0176 12.7178 14.9305 13.0385 14.7637C13.3592 14.5968 13.635 14.3551 13.8425 14.059C14.05 13.763 14.1831 13.4212 14.2306 13.0628C14.278 12.7044 14.2383 12.3398 14.115 12H14.25C14.4489 12 14.6397 11.921 14.7803 11.7803C14.921 11.6397 15 11.4489 15 11.25C15 11.0511 14.921 10.8603 14.7803 10.7197C14.6397 10.579 14.4489 10.5 14.25 10.5ZM13.29 3L12.3075 6.93C12.2664 7.09641 12.1696 7.24373 12.0332 7.34744C11.8967 7.45115 11.7288 7.50499 11.5575 7.5H5.085L3.96 3H13.29ZM6 13.5C5.85166 13.5 5.70666 13.456 5.58332 13.3736C5.45999 13.2912 5.36386 13.1741 5.30709 13.037C5.25032 12.9 5.23547 12.7492 5.26441 12.6037C5.29335 12.4582 5.36478 12.3246 5.46967 12.2197C5.57456 12.1148 5.7082 12.0434 5.85368 12.0144C5.99917 11.9855 6.14997 12.0003 6.28701 12.0571C6.42406 12.1139 6.54119 12.21 6.6236 12.3333C6.70601 12.4567 6.75 12.6017 6.75 12.75C6.75 12.9489 6.67098 13.1397 6.53033 13.2803C6.38968 13.421 6.19891 13.5 6 13.5ZM12 13.5C11.8517 13.5 11.7067 13.456 11.5833 13.3736C11.46 13.2912 11.3639 13.1741 11.3071 13.037C11.2503 12.9 11.2355 12.7492 11.2644 12.6037C11.2934 12.4582 11.3648 12.3246 11.4697 12.2197C11.5746 12.1148 11.7082 12.0434 11.8537 12.0144C11.9992 11.9855 12.15 12.0003 12.287 12.0571C12.4241 12.1139 12.5412 12.21 12.6236 12.3333C12.706 12.4567 12.75 12.6017 12.75 12.75C12.75 12.9489 12.671 13.1397 12.5303 13.2803C12.3897 13.421 12.1989 13.5 12 13.5Z" fill="#ffffff"/>
</svg>
