<svg width="97" height="97" viewBox="0 0 97 97" fill="none" xmlns="http://www.w3.org/2000/svg">
<path d="M69.4478 59.572H58.3998C57.5614 59.572 56.7574 59.239 56.1646 58.6462C55.5718 58.0534 55.2388 57.2493 55.2388 56.411C55.2388 55.5726 55.5718 54.7686 56.1646 54.1758C56.7574 53.583 57.5614 53.25 58.3998 53.25H69.4478C70.2861 53.25 71.0902 53.583 71.683 54.1758C72.2758 54.7686 72.6088 55.5726 72.6088 56.411C72.6088 57.2493 72.2758 58.0534 71.683 58.6462C71.0902 59.239 70.2861 59.572 69.4478 59.572Z" fill="#E65C64"/>
<path d="M40.5189 41.692C39.6806 41.692 38.8765 41.359 38.2837 40.7662C37.6909 40.1734 37.3579 39.3694 37.3579 38.531V27.483C37.3579 26.6447 37.6909 25.8407 38.2837 25.2478C38.8765 24.655 39.6806 24.322 40.5189 24.322C41.3573 24.322 42.1613 24.655 42.7541 25.2478C43.3469 25.8407 43.6799 26.6447 43.6799 27.483V38.531C43.6799 39.3694 43.3469 40.1734 42.7541 40.7662C42.1613 41.359 41.3573 41.692 40.5189 41.692Z" fill="#F26D76"/>
<path d="M45.5621 2.783C44.2365 1.45523 42.5469 0.550518 40.7069 0.183355C38.867 -0.183807 36.9595 0.00308037 35.2258 0.720369C33.4921 1.43766 32.0101 2.65311 30.9674 4.21292C29.9247 5.77273 29.3682 7.60678 29.3682 9.483C29.3682 11.3592 29.9247 13.1933 30.9674 14.7531C32.0101 16.3129 33.4921 17.5284 35.2258 18.2456C36.9595 18.9629 38.867 19.1498 40.7069 18.7827C42.5469 18.4155 44.2365 17.5108 45.5621 16.183C46.4436 15.304 47.1429 14.2598 47.6201 13.1101C48.0973 11.9604 48.3429 10.7278 48.3429 9.483C48.3429 8.23821 48.0973 7.00565 47.6201 5.85594C47.1429 4.70623 46.4436 3.66197 45.5621 2.783ZM41.1041 11.703C40.8132 12.0011 40.4658 12.2382 40.0821 12.4004C39.6985 12.5627 39.2864 12.6469 38.8699 12.6481C38.4533 12.6493 38.0407 12.5675 37.6562 12.4075C37.2716 12.2474 36.9228 12.0124 36.6301 11.716C36.0486 11.1186 35.7232 10.3177 35.7232 9.484C35.7232 8.65027 36.0486 7.84945 36.6301 7.252C37.2202 6.65871 38.0219 6.32414 38.8587 6.32189C39.6954 6.31964 40.4989 6.6499 41.0921 7.24C41.6854 7.83011 42.02 8.63173 42.0223 9.46852C42.0245 10.3053 41.6942 11.1087 41.1041 11.702V11.703Z" fill="#FFC033"/>
<path d="M80.7508 41.692C82.4966 41.692 83.9118 40.2768 83.9118 38.531C83.9118 36.7852 82.4966 35.37 80.7508 35.37C79.0051 35.37 77.5898 36.7852 77.5898 38.531C77.5898 40.2768 79.0051 41.692 80.7508 41.692Z" fill="#43BFBF"/>
<path d="M58.3988 19.34C60.1446 19.34 61.5598 17.9248 61.5598 16.179C61.5598 14.4332 60.1446 13.018 58.3988 13.018C56.653 13.018 55.2378 14.4332 55.2378 16.179C55.2378 17.9248 56.653 19.34 58.3988 19.34Z" fill="#36D9D9"/>
<path d="M80.7508 77.453C82.4966 77.453 83.9118 76.0378 83.9118 74.292C83.9118 72.5462 82.4966 71.131 80.7508 71.131C79.0051 71.131 77.5898 72.5462 77.5898 74.292C77.5898 76.0378 79.0051 77.453 80.7508 77.453Z" fill="#43BFBF"/>
<path d="M22.639 19.34C24.3848 19.34 25.8 17.9248 25.8 16.179C25.8 14.4332 24.3848 13.018 22.639 13.018C20.8933 13.018 19.478 14.4332 19.478 16.179C19.478 17.9248 20.8933 19.34 22.639 19.34Z" fill="#36D9D9"/>
<path d="M83.912 9.85699C83.0736 9.85699 82.2696 9.52396 81.6768 8.93116C81.084 8.33835 80.751 7.53434 80.751 6.69599V3.53499C80.751 2.69664 81.084 1.89263 81.6768 1.29983C82.2696 0.707026 83.0736 0.373993 83.912 0.373993C84.7503 0.373993 85.5544 0.707026 86.1472 1.29983C86.74 1.89263 87.073 2.69664 87.073 3.53499V6.69599C87.0731 7.11114 86.9915 7.52224 86.8326 7.90581C86.6738 8.28938 86.441 8.6379 86.1474 8.93145C85.8539 9.225 85.5054 9.45783 85.1218 9.61664C84.7382 9.77545 84.3271 9.85712 83.912 9.85699Z" fill="#FFC033"/>
<path d="M83.912 25.662C83.0736 25.662 82.2696 25.329 81.6768 24.7362C81.084 24.1434 80.751 23.3394 80.751 22.501V19.34C80.751 18.5017 81.084 17.6977 81.6768 17.1049C82.2696 16.512 83.0736 16.179 83.912 16.179C84.7503 16.179 85.5544 16.512 86.1472 17.1049C86.74 17.6977 87.073 18.5017 87.073 19.34V22.501C87.0731 22.9162 86.9915 23.3273 86.8326 23.7108C86.6738 24.0944 86.441 24.4429 86.1474 24.7365C85.8539 25.03 85.5054 25.2629 85.1218 25.4217C84.7382 25.5805 84.3271 25.6621 83.912 25.662Z" fill="#F9A926"/>
<path d="M77.591 16.179H74.4301C73.5917 16.179 72.7877 15.846 72.1949 15.2532C71.6021 14.6604 71.269 13.8563 71.269 13.018C71.269 12.1796 71.6021 11.3756 72.1949 10.7828C72.7877 10.19 73.5917 9.85699 74.4301 9.85699H77.591C78.4294 9.85699 79.2334 10.19 79.8262 10.7828C80.419 11.3756 80.752 12.1796 80.752 13.018C80.752 13.8563 80.419 14.6604 79.8262 15.2532C79.2334 15.846 78.4294 16.179 77.591 16.179Z" fill="#FFC033"/>
<path d="M93.3918 16.179H90.2308C89.3925 16.179 88.5884 15.846 87.9956 15.2532C87.4028 14.6604 87.0698 13.8563 87.0698 13.018C87.0698 12.1796 87.4028 11.3756 87.9956 10.7828C88.5884 10.19 89.3925 9.85699 90.2308 9.85699H93.3918C94.2302 9.85699 95.0342 10.19 95.627 10.7828C96.2198 11.3756 96.5528 12.1796 96.5528 13.018C96.5528 13.8563 96.2198 14.6604 95.627 15.2532C95.0342 15.846 94.2302 16.179 93.3918 16.179Z" fill="#F9A926"/>
<path d="M94.0299 49.143C92.7043 47.8152 91.0146 46.9105 89.1747 46.5434C87.3347 46.1762 85.4272 46.3631 83.6935 47.0804C81.9598 47.7977 80.4779 49.0131 79.4352 50.5729C78.3925 52.1327 77.8359 53.9668 77.8359 55.843C77.8359 57.7192 78.3925 59.5533 79.4352 61.1131C80.4779 62.6729 81.9598 63.8884 83.6935 64.6056C85.4272 65.3229 87.3347 65.5098 89.1747 65.1427C91.0146 64.7755 92.7043 63.8708 94.0299 62.543C94.9113 61.664 95.6107 60.6198 96.0879 59.4701C96.565 58.3204 96.8106 57.0878 96.8106 55.843C96.8106 54.5982 96.565 53.3656 96.0879 52.2159C95.6107 51.0662 94.9113 50.022 94.0299 49.143ZM89.5719 58.061C89.2812 58.3594 88.9338 58.5968 88.5502 58.7593C88.1666 58.9218 87.7545 59.0062 87.3379 59.0075C86.9213 59.0088 86.5086 58.927 86.124 58.7669C85.7394 58.6068 85.3905 58.3716 85.0979 58.075C84.5164 57.4776 84.191 56.6767 84.191 55.843C84.191 55.0093 84.5164 54.2085 85.0979 53.611C85.6904 53.0295 86.4881 52.7049 87.3183 52.7076C88.1484 52.7103 88.944 53.04 89.5327 53.6254C90.1213 54.2108 90.4555 55.0045 90.4629 55.8346C90.4702 56.6648 90.1501 57.4643 89.5719 58.06V58.061Z" fill="#F9A926"/>
<path d="M50.7692 49.323C50.1432 49.3237 49.5311 49.1386 49.0105 48.7911C48.4899 48.4435 48.0842 47.9492 47.8448 47.3709C47.6054 46.7925 47.5431 46.156 47.6658 45.5422C47.7886 44.9284 48.0908 44.3649 48.5342 43.923L68.2662 24.191C68.5584 23.8916 68.9071 23.6532 69.2921 23.4896C69.6771 23.326 70.0908 23.2405 70.5091 23.2379C70.9274 23.2354 71.3421 23.3159 71.7291 23.4748C72.1161 23.6338 72.4676 23.8679 72.7634 24.1637C73.0593 24.4595 73.2934 24.8111 73.4523 25.1981C73.6112 25.5851 73.6918 25.9997 73.6892 26.4181C73.6867 26.8364 73.6011 27.25 73.4375 27.6351C73.2739 28.0201 73.0355 28.3688 72.7362 28.661L53.0042 48.393C52.7113 48.6877 52.3631 48.9216 51.9795 49.0812C51.596 49.2408 51.1846 49.323 50.7692 49.323Z" fill="#FFC033"/>
<path d="M48.5342 48.396C48.8276 48.6897 49.176 48.9227 49.5595 49.0817C49.943 49.2407 50.3541 49.3225 50.7692 49.3225C51.1843 49.3225 51.5954 49.2407 51.9789 49.0817C52.3624 48.9227 52.7108 48.6897 53.0042 48.396L72.7362 28.664C73.0298 28.3705 73.2627 28.0221 73.4216 27.6386C73.5805 27.2552 73.6623 26.8441 73.6623 26.429C73.6623 26.0139 73.5805 25.6028 73.4216 25.2194C73.2627 24.8359 73.0298 24.4875 72.7362 24.194L48.5362 48.394L48.5342 48.396Z" fill="#F9A926"/>
<path d="M24.532 80.662V89.586L4.21101 96.743C3.64864 96.9411 3.04172 96.976 2.46033 96.8439C1.87894 96.7117 1.34677 96.4178 0.925282 95.9961C0.50379 95.5744 0.210159 95.0421 0.0782871 94.4606C-0.0535847 93.8792 -0.0183189 93.2723 0.180013 92.71L7.34501 72.41H16.29L20.405 76.53L24.532 80.662Z" fill="#F26D76"/>
<path d="M24.5332 80.662V89.586L4.2082 96.742C3.64802 96.9445 3.04157 96.9825 2.46052 96.8513C1.87947 96.7202 1.3481 96.4255 0.929199 96.002L20.4022 76.527L24.5332 80.662Z" fill="#E65C64"/>
<path d="M15.5123 60.459L36.4912 81.446H47.6093L59.4482 77.274C60.2397 76.9916 60.8875 76.408 61.2507 75.6502C61.6139 74.8924 61.6629 74.0218 61.3873 73.228L23.6872 35.55C23.2972 35.4098 22.8832 35.3482 22.4691 35.3688C22.0551 35.3895 21.6493 35.4919 21.2751 35.6702C20.9008 35.8486 20.5656 36.0992 20.2888 36.4078C20.012 36.7164 19.7991 37.0767 19.6623 37.468L15.5103 49.23V60.459H15.5123Z" fill="#F26D76"/>
<path d="M36.4922 81.448H47.6102L59.4492 77.276C60.2407 76.9936 60.8885 76.41 61.2517 75.6522C61.6149 74.8944 61.664 74.0238 61.3883 73.23L42.5392 54.388L25.9893 70.938L36.4922 81.448Z" fill="#E65C64"/>
<path d="M15.4919 49.27L7.33691 72.408L24.5369 89.582L24.5999 89.561L47.6509 81.427L15.4919 49.27Z" fill="#FFC033"/>
<path d="M24.5312 89.582L24.5942 89.561L47.6472 81.427L31.5751 65.355L15.9312 80.995L24.5312 89.582Z" fill="#F9A926"/>
<path d="M62.871 81.923C62.4558 81.9235 62.0446 81.842 61.6611 81.683C61.2775 81.5241 60.9292 81.291 60.636 80.997L15.936 36.297C15.3551 35.7018 15.0321 34.9016 15.0372 34.0699C15.0422 33.2383 15.3748 32.4421 15.9629 31.854C16.551 31.2659 17.3472 30.9332 18.1789 30.9282C19.0106 30.9231 19.8108 31.2461 20.406 31.827L65.106 76.527C65.5494 76.9689 65.8516 77.5324 65.9743 78.1462C66.097 78.76 66.0348 79.3965 65.7954 79.9749C65.556 80.5532 65.1503 81.0475 64.6297 81.3951C64.109 81.7426 63.497 81.9277 62.871 81.927V81.923Z" fill="#36D9D9"/>
<path d="M60.6352 80.997C60.9274 81.2964 61.2761 81.5348 61.6611 81.6984C62.0461 81.862 62.4598 81.9475 62.8781 81.95C63.2964 81.9526 63.7111 81.8721 64.0981 81.7132C64.4851 81.5542 64.8367 81.3201 65.1325 81.0243C65.4283 80.7285 65.6624 80.3769 65.8213 79.9899C65.9803 79.6029 66.0608 79.1883 66.0582 78.7699C66.0557 78.3516 65.9701 77.9379 65.8065 77.5529C65.6429 77.1679 65.4046 76.8192 65.1052 76.527L42.7542 54.176L38.2842 58.646L60.6352 80.997Z" fill="#43BFBF"/>
</svg>
